<?xml version="1.0" encoding="UTF-8" standalone="no"?>
<!DOCTYPE svg  PUBLIC '-//W3C//DTD SVG 1.1//EN'  'http://www.w3.org/Graphics/SVG/1.1/DTD/svg11.dtd'>
<svg xmlns="http://www.w3.org/2000/svg">
<defs>
<font id="Aitu-Regular" horiz-adv-x="1160">
<font-face underline-position="44" font-weight="400" descent="-400" panose-1="0 0 5 0 0 0 0 0 0 0" units-per-em="2000" unicode-range="U+000D-FB02" bbox="-492 -390 2092 1887" x-height="1013" underline-thickness="50" font-family="Aitu" ascent="1600" cap-height="1433"/>
<missing-glyph d="M95 54h867v1324h-867v-1324zM45 1433h974v-1433h-974v1433zM396 292q0 48 31 79q32 32 79 32q21 0 42 -8q20 -9 35 -24q14 -16 23 -35q8 -22 8 -44t-8 -43q-9 -19 -23 -35q-15 -16 -35 -23q-20 -9 -42 -9q-47 0 -79 32q-31 31 -31 78zM297 1065l-47 76q20 18 54 41 q28 19 62 34q39 15 74 23q42 8 85 8q61 0 115 -17q49 -17 88 -50q36 -31 57 -77q20 -48 20 -102q0 -55 -15 -95q-15 -42 -37 -69q-22 -29 -50 -51q-10 -9 -28 -23t-23 -18q-28 -23 -41 -37q-17 -19 -22 -42l-17 -105h-122l-12 117q-4 34 9 60q12 23 36 47q27 25 50 41 q22 16 51 43q22 20 40 52q16 28 16 69q0 51 -36 81q-38 30 -94 30q-40 0 -69 -9q-26 -8 -48 -20q-21 -11 -34 -20t-25 -9q-25 0 -37 22z" horiz-adv-x="1063"/>
<glyph glyph-name="fi" horiz-adv-x="1145" unicode="fi" d="M209 0v861l-112 1q-19 4 -35 16q-13 10 -13 30v85h160v56q0 92 29 171q29 78 87 133q59 56 145 87q84 31 200 31q33 0 78 -5q40 -4 69 -15l-7 -93q-1 -10 -7 -14q-5 -3 -18 -5q-11 -1 -27 0h-38q-179 0 -258 -73q-80 -74 -80 -222v-51h612v-993h-179v864h-428v-864h-178z "/>
<glyph glyph-name="fl" horiz-adv-x="1179" unicode="fl" d="M209 0v861l-112 1q-19 4 -35 16q-13 10 -13 30v85h160v54q0 82 26 160q26 77 77 131q54 57 130 89q78 33 182 33q77 0 149 -6q63 -5 138 -7h121v-1447h-177v1322q-36 1 -108 5q-55 3 -96 3q-130 0 -199 -74q-70 -74 -70 -209v-54h263v-129h-258v-864h-178z"/>
<glyph glyph-name="f_f_i" horiz-adv-x="1775" unicode="ffi" d="M209 0v861h-112q-19 4 -35 16q-13 10 -13 30v86h160v83q0 89 25 155q24 67 69 114q45 46 109 70t144 24q66 0 126 -20l-5 -90q-2 -24 -26 -26q-32 -2 -66 -2q-44 0 -83 -11q-39 -12 -64 -39q-28 -27 -41 -71q-15 -45 -15 -110v-77h457v56q0 92 29 171q29 78 87 133 q59 56 145 87q84 31 200 31q33 0 78 -5q40 -4 69 -15l-7 -93q-1 -10 -7 -14q-5 -3 -18 -5q-11 -1 -27 0h-38q-179 0 -258 -73q-80 -74 -80 -222v-51h612v-993h-179v864h-428v-864h-178v864h-452v-864h-178z"/>
<glyph glyph-name="f_f_l" horiz-adv-x="1808" unicode="ffl" d="M207 0v861l-112 1q-19 4 -34 16q-14 11 -14 30v85h160v83q0 89 25 155q24 68 70 114q45 46 109 70q65 24 144 24q67 0 125 -20l-4 -90q-2 -24 -26 -26q-34 -2 -66 -2q-44 0 -83 -11q-38 -12 -65 -39q-28 -27 -41 -71q-15 -45 -15 -110v-77h457v54q0 82 26 160 q26 76 78 131q54 57 130 89q78 33 182 33q76 0 148 -6q63 -5 138 -7h122v-1447h-178v1322q-36 1 -108 5q-55 3 -95 3q-129 0 -200 -74q-70 -74 -70 -209v-54h292v-129h-286v-864h-179v864h-451v-864h-179z"/>
<glyph glyph-name=".notdef" d="M95 54h867v1324h-867v-1324zM45 1433h974v-1433h-974v1433zM396 292q0 48 31 79q32 32 79 32q21 0 42 -8q20 -9 35 -24q14 -16 23 -35q8 -22 8 -44t-8 -43q-9 -19 -23 -35q-15 -16 -35 -23q-20 -9 -42 -9q-47 0 -79 32q-31 31 -31 78zM297 1065l-47 76q20 18 54 41 q28 19 62 34q39 15 74 23q42 8 85 8q61 0 115 -17q49 -17 88 -50q36 -31 57 -77q20 -48 20 -102q0 -55 -15 -95q-15 -42 -37 -69q-22 -29 -50 -51q-10 -9 -28 -23t-23 -18q-28 -23 -41 -37q-17 -19 -22 -42l-17 -105h-122l-12 117q-4 34 9 60q12 23 36 47q27 25 50 41 q22 16 51 43q22 20 40 52q16 28 16 69q0 51 -36 81q-38 30 -94 30q-40 0 -69 -9q-26 -8 -48 -20q-21 -11 -34 -20t-25 -9q-25 0 -37 22z" horiz-adv-x="1063"/>
<glyph glyph-name=".null" horiz-adv-x="0"/>
<glyph glyph-name="nonmarkingreturn" horiz-adv-x="666"/>
<glyph glyph-name="glyph1" horiz-adv-x="0"/>
<glyph glyph-name="glyph1" horiz-adv-x="0"/>
<glyph glyph-name="CR" horiz-adv-x="0" unicode=""/>
<glyph glyph-name="space" horiz-adv-x="512" unicode=" "/>
<glyph glyph-name="exclam" horiz-adv-x="538" unicode="!" d="M142 110q0 28 10 49q9 23 26 40q16 16 40 27q21 10 49 10t49 -10q22 -10 39 -27q16 -16 27 -40q10 -21 10 -49t-10 -49q-11 -24 -27 -40q-17 -17 -39 -27q-23 -9 -49 -9t-49 9q-24 11 -40 27q-17 17 -26 40q-10 21 -10 49zM355 1433v-572q0 -30 -2 -88q-1 -27 -5 -86 q-4 -61 -7 -89q-1 -11 -11 -98h-120q-3 29 -10 98q-6 60 -8 89q-4 59 -5 86q-2 58 -2 88v572h170z"/>
<glyph glyph-name="quotedbl" horiz-adv-x="741" unicode='&quot;' d="M615 1433v-290l-16 -155q-5 -33 -18 -49q-13 -18 -44 -18q-27 0 -41 18q-15 17 -20 49l-16 155v290h155zM282 1433v-290l-16 -155q-5 -33 -18 -49q-13 -18 -44 -18q-28 0 -41 18q-15 17 -20 49l-16 155v290h155z"/>
<glyph glyph-name="numbersign" d="M418 554l65 326h247l-65 -326h-247zM793 423h237l9 57q6 41 -6 58q-13 16 -42 16h-179l65 326h138q37 0 57 14q19 14 23 42l13 75h-212l73 355q5 29 -11 48t-46 19h-79l-84 -422h-247l84 422h-80q-29 0 -51 -17q-22 -16 -28 -47l-72 -358h-158q-37 0 -56 -14 q-19 -13 -24 -43l-13 -74h232l-65 -326h-204l-8 -57q-6 -41 7 -57q12 -17 40 -17h146l-83 -407q70 9 106.5 18t43.5 15.5t9 18.5l71 355h247l-71 -346q-3 -17 0 -31q3 -12 11 -24q7 -10 18 -16l1 -1l104 1zM298 3l307 2l-47 -1q-118 0 -260 -1zM298 3q-121 -2 -298 -3zM0 0 q115 10 169 16l-2 -10h80z" unicode="#"/>
<glyph glyph-name="dollar" d="M328 1071q0 -47 17 -83q16 -35 47 -63q32 -29 70 -47q40 -20 87 -36l30 451q-64 -6 -112 -26q-47 -19 -78 -50q-31 -30 -46 -67q-15 -38 -15 -79zM883 407q0 50 -18 86q-20 37 -51 62q-32 25 -75 45q-38 17 -92 35l-34 -498q65 6 116 29t85 57q33 33 52 82q17 48 17 102z M475 -238l15 226q-121 10 -220 60q-100 48 -172 123l54 82q7 10 20 18q11 7 26 7q20 0 43 -19q17 -14 59 -43q34 -26 84 -48q51 -24 116 -31l37 531q-67 20 -137 48q-69 26 -121 69q-54 42 -86 107q-33 64 -33 161q0 71 29 143q29 71 83 123q56 55 135 89q77 33 183 38 l10 144q1 19 15 34q13 15 35 15h66l-14 -198q106 -14 182 -54q76 -41 135 -99l-43 -66q-20 -30 -46 -30q-15 0 -34 13q-7 4 -23 13.5t-26 15.5q-25 15 -67 33q-36 15 -88 23l-33 -484q68 -21 142 -48q68 -25 126 -67q57 -42 91 -102q34 -61 34 -154q0 -90 -30 -169t-87 -139 q-58 -59 -141 -97q-85 -38 -191 -44l-12 -176q-1 -19 -15 -34q-14 -14 -35 -14h-66z" unicode="$"/>
<glyph glyph-name="percent" horiz-adv-x="1603" unicode="%" d="M1377 338q0 65 -14 113q-13 46 -38 75q-26 29 -58 42t-70 13q-39 0 -69 -13q-33 -14 -57 -42q-23 -28 -37 -75q-14 -48 -14 -113q0 -63 14 -110q14 -45 37 -73q25 -29 57 -41q30 -13 69 -13q38 0 70 13q32 11 58 41q25 30 38 73q14 47 14 110zM1515 338q0 -83 -26 -150 q-25 -66 -69 -111q-42 -45 -101 -70q-59 -24 -122 -24q-68 0 -125 24q-58 24 -100 70q-43 44 -67 111q-24 66 -24 150q0 86 24 154q24 67 67 113q42 46 100 70q57 24 125 24q67 0 126 -24q58 -24 101 -70q42 -46 67 -113q24 -67 24 -154zM182 0l1047 1403q11 12 24 21t36 9 h129l-1048 -1404q-9 -13 -23 -21t-34 -8h-131zM584 1087q0 64 -14 112q-13 45 -38 76q-26 29 -58 42t-70 13q-39 0 -69 -13q-32 -14 -56 -42q-25 -31 -38 -76q-14 -48 -14 -112q0 -63 14 -110q13 -44 38 -74q24 -29 56 -41q30 -13 69 -13q38 0 70 13q32 11 58 41 q25 30 38 74q14 47 14 110zM722 1087q0 -83 -26 -150q-25 -67 -69 -112q-42 -45 -101 -70q-59 -24 -122 -24q-66 0 -125 24q-58 24 -100 70q-43 44 -67 112q-24 66 -24 150q0 85 24 153q24 67 67 113q42 46 100 70q59 24 125 24q68 0 126 -24t101 -70t67 -113 q24 -68 24 -153z"/>
<glyph glyph-name="ampersand" horiz-adv-x="1424" unicode="&amp;" d="M82 374q0 127 68.5 223t237.5 192q-77 87 -108 134.5t-49 101.5q-18 51 -18 106q0 144 94.5 225t262.5 81q156 0 245.5 -80.5t89.5 -223.5q0 -104 -66.5 -191t-215.5 -175l391 -376q91 101 140 315h162q-64 -272 -197 -417l287 -280h-220l-178 172q-112 -101 -229.5 -146 t-262.5 -45q-206 0 -320 101.5t-114 282.5zM520 133q233 0 385 148l-421 408q-103 -63 -148.5 -106t-67.5 -94q-21 -49 -21 -111q0 -112 74.5 -178.5t198.5 -66.5zM371 1135q0 -66 34.5 -126.5t118.5 -144.5q123 72 172 132.5t49 141.5q0 75 -49.5 121t-132.5 46 q-86 0 -139 -46.5t-53 -123.5z"/>
<glyph glyph-name="quotesingle" horiz-adv-x="408" unicode="&apos;" d="M282 1433v-290l-16 -155q-5 -33 -18 -49q-13 -18 -44 -18q-28 0 -41 18q-15 17 -20 49l-16 155v290h155z"/>
<glyph glyph-name="parenleft" horiz-adv-x="534" unicode="(" d="M245 629q0 -215 55 -416q54 -203 159 -384q11 -22 11 -35q0 -7 -3 -13q-7 -15 -23 -26l-79 -48q-73 113 -127 228q-55 117 -85 227q-33 114 -48 230t-15 237t15 237t48 230q31 110 85 226q55 119 127 229l79 -49q16 -11 23 -26q3 -6 3 -13q0 -14 -11 -34 q-105 -181 -159 -384q-55 -201 -55 -416z"/>
<glyph glyph-name="parenright" horiz-adv-x="534" unicode=")" d="M289 629q0 214 -54 416q-56 204 -160 384q-9 18 -10 27q0 2 -0.5 5t-0.5 4q0 3 2 11q3 8 10 15q6 7 14 11l79 49q75 -116 128 -229q50 -108 85 -226q32 -117 47 -230q15 -116 15 -237t-15 -237q-15 -113 -47 -230q-34 -118 -85 -227q-51 -110 -128 -228l-79 48 q-7 5 -14 11q-7 7 -10 15q-2 8 -2 12q0 1 0.5 4t0.5 5q1 9 10 27q104 180 160 384q54 203 54 416z"/>
<glyph glyph-name="asterisk" horiz-adv-x="850" unicode="*" d="M381 863v197q0 20 3 36q2 16 9 33q-19 -25 -53 -45l-172 -99l-44 75l172 100q36 21 73 24q-19 1 -37 8q-17 4 -36 17l-173 101l44 75l173 -100q18 -10 32 -23q15 -13 25 -29q-9 18 -12 37q-4 16 -4 38v198h88v-197q0 -39 -14 -72q10 14 25 26q21 16 30 22l172 99l44 -75 l-172 -100q-18 -12 -33 -17q-18 -7 -35 -8q13 -1 35 -7q15 -5 33 -17l173 -101l-44 -75l-173 100q-15 9 -32 22q-15 12 -25 27q16 -32 16 -72v-198h-88z"/>
<glyph glyph-name="plus" d="M652 1166v-427h408v-135h-408v-430h-145v430h-406v135h406v427h145z" unicode="+"/>
<glyph glyph-name="comma" horiz-adv-x="454" unicode="," d="M107 123q0 47 33 80q32 33 86 33q29 0 53 -11q23 -11 39 -30q16 -21 23 -45q8 -27 8 -56q0 -45 -12 -93q-14 -51 -37 -97q-26 -48 -60 -92q-35 -45 -80 -83l-30 29q-9 9 -11 13q-3 6 -3 15q0 6 5 14q4 7 10 13q4 4 12.5 14t13.5 15q14 18 31 43q16 23 30 53q13 26 19 62 h-13q-52 0 -84 35q-33 34 -33 88z"/>
<glyph glyph-name="hyphen" horiz-adv-x="743" unicode="-" d="M125 675h494v-151h-494v151z"/>
<glyph glyph-name="period" horiz-adv-x="472" unicode="." d="M111 110q0 28 10 49q9 23 26 40t39 27q21 10 49 10t49 -10q24 -11 40 -27t27 -40q10 -21 10 -49t-10 -49q-11 -24 -27 -40t-40 -27q-22 -9 -49 -9t-49 9q-22 10 -39 27t-26 40q-10 21 -10 49z"/>
<glyph glyph-name="slash" horiz-adv-x="904" unicode="/" d="M837 1473l-598 -1494q-14 -36 -40 -52q-29 -17 -57 -17h-75l601 1497q13 33 37 49q25 17 56 17h76z"/>
<glyph glyph-name="zero" d="M256 714q0 -308 77.5 -451.5t238.5 -143.5q162 0 239 144.5t77 450.5q0 307 -77 450t-239 143q-161 0 -238.5 -142.5t-77.5 -450.5zM1054 714q0 -734 -482 -734q-232 0 -356 188t-124 546q0 734 480 734q232 0 357 -189t125 -545z" unicode="0"/>
<glyph glyph-name="one" horiz-adv-x="767" unicode="1" d="M617 0h-159v1021q0 120 8 242q-14 -14 -46 -44q-73 -60 -234 -191l-86 112l380 293h137v-1433z"/>
<glyph glyph-name="two" d="M1049 0h-937v139l375 378q181 184 227 248q109 146 109 295q0 115 -70 181.5t-192 66.5q-91 0 -170.5 -30.5t-174.5 -105.5l-86 111q197 163 430 163q200 0 314.5 -102.5t114.5 -276.5q0 -138 -78.5 -272t-282.5 -332l-312 -305v-8h733v-150z" unicode="2"/>
<glyph glyph-name="three" d="M988 1096q0 -137 -76.5 -224.5t-218.5 -117.5v-7q339 -43 339 -342q0 -205 -142 -315t-404 -110q-231 0 -392 77v155q191 -94 398 -94q371 0 371 291q0 261 -409 261h-141v140h143q168 0 265.5 74.5t97.5 205.5q0 105 -71.5 164.5t-195.5 59.5q-97 0 -180.5 -26 t-187.5 -93l-82 109q89 71 204.5 110t241.5 39q208 0 324 -95t116 -262z" unicode="3"/>
<glyph glyph-name="four" d="M750 475v474q0 148 10 315h-8q-44 -89 -88 -155l-446 -634h532zM1117 328h-212v-328h-155v328h-694v141l677 965h172v-959h212v-147z" unicode="4"/>
<glyph glyph-name="five" d="M549 875q226 0 356 -112.5t130 -307.5q0 -223 -141.5 -349t-390.5 -126q-244 0 -370 77v157q67 -44 169 -69t203 -25q173 0 268 82t95 235q0 300 -367 300q-90 0 -249 -29l-85 54l54 671h713v-150h-574l-36 -431q117 23 225 23z" unicode="5"/>
<glyph glyph-name="six" d="M594 134q139 0 214 85.5t75 246.5q0 140 -71.5 217.5t-210.5 77.5q-87 0 -159 -35t-116 -97q-44 -60 -44 -129q0 -98 39.5 -182.5t109.5 -134.5q71 -49 163 -49zM117 614q0 408 162.5 612t481.5 204q111 0 172 -19v-135q-71 24 -170 24q-231 0 -350.5 -141t-130.5 -438 h11q108 165 338 165q191 0 301 -113.5t110 -306.5q0 -217 -120 -341.5t-326 -124.5q-222 0 -350.5 163t-128.5 451z" unicode="6"/>
<glyph glyph-name="seven" d="M281 0l594 1283h-781v150h954v-130l-586 -1303h-181z" unicode="7"/>
<glyph glyph-name="eight" d="M582 1321q-122 0 -192 -58.5t-70 -157.5q0 -92 59.5 -156.5t212.5 -127.5q138 58 197.5 125t59.5 159q0 100 -71.5 158t-195.5 58zM274 361q0 -118 82 -183.5t230 -65.5q146 0 227.5 68.5t81.5 188.5q0 98 -78.5 171.5t-264.5 141.5q-146 -62 -212 -138.5t-66 -182.5z M584 1453q197 0 311 -91t114 -252q0 -216 -275 -352q172 -82 247 -173.5t75 -213.5q0 -179 -125 -285t-341 -106q-229 0 -353 100t-124 285q0 246 300 384q-132 74 -192 162.5t-60 200.5q0 156 114.5 248.5t308.5 92.5z" unicode="8"/>
<glyph glyph-name="nine" d="M587 1296q-139 0 -214.5 -85.5t-75.5 -245.5q0 -140 72 -218t211 -78q87 0 159 35t116 97t44 129q0 98 -39.5 182.5t-110.5 134.5q-70 49 -162 49zM1064 817q0 -817 -644 -817q-112 0 -173 19v135q72 -23 171 -23q230 0 349.5 140.5t131.5 436.5h-12q-107 -164 -338 -164 q-191 0 -301 113t-110 308q0 217 120.5 341t326.5 124q222 0 350.5 -163t128.5 -450z" unicode="9"/>
<glyph glyph-name="colon" horiz-adv-x="500" unicode=":" d="M125 860q0 28 10 49q9 23 26 40t39 27q21 10 49 10t49 -10q24 -11 40 -27t27 -40q10 -21 10 -49t-10 -49q-11 -24 -27 -40q-17 -17 -40 -26q-21 -10 -49 -10t-49 10q-22 9 -39 26t-26 40q-10 21 -10 49zM125 110q0 28 10 49q9 23 26 40t39 27q21 10 49 10t49 -10 q24 -11 40 -27t27 -40q10 -21 10 -49t-10 -49q-11 -24 -27 -40t-40 -27q-22 -9 -49 -9t-49 9q-22 10 -39 27t-26 40q-10 21 -10 49z"/>
<glyph glyph-name="semicolon" horiz-adv-x="523" unicode=";" d="M136 860q0 28 10 49q9 23 26 40q16 17 39 27q21 10 49 10t49 -10q24 -11 40 -27t27 -40q10 -21 10 -49t-10 -49q-11 -24 -27 -40q-17 -17 -40 -26q-21 -10 -49 -10t-49 10q-22 9 -39 26t-26 40q-10 21 -10 49zM141 123q0 47 33 80q32 33 86 33q29 0 53 -11q23 -11 39 -30 q16 -21 23 -45q8 -27 8 -56q0 -45 -12 -93q-14 -51 -37 -97q-26 -48 -60 -92q-35 -45 -80 -83l-30 29q-9 9 -11 13q-3 6 -3 15q0 6 5 14q4 7 10 13q4 4 12.5 14t13.5 15q14 18 31 43q16 23 30 53q13 26 19 62h-13q-52 0 -84 35q-33 34 -33 88z"/>
<glyph glyph-name="less" d="M162 710l773 401v-127q0 -16 -8 -29q-6 -11 -28 -23l-449 -228q-20 -10 -42 -18q-28 -9 -48 -14q19 -3 48 -13q22 -7 42 -18l449 -227q22 -12 28 -23q8 -14 8 -29v-128l-773 402v74z" unicode="&lt;"/>
<glyph glyph-name="equal" d="M150 909h860v-135h-860v135zM150 574h860v-135h-860v135z" unicode="="/>
<glyph glyph-name="greater" d="M225 234v128q0 15 8 29q6 11 28 23l449 227q20 11 42 18q30 10 47 13q-17 4 -47 14q-22 8 -42 18l-449 228q-22 12 -28 23q-8 13 -8 29v127l773 -401v-74z" unicode="&gt;"/>
<glyph glyph-name="question" horiz-adv-x="895" unicode="?" d="M276 110q0 28 10 49q9 23 26 40q16 17 39 27q21 10 49 10t49 -10q24 -11 40 -27t27 -40q10 -21 10 -49q0 -29 -10 -50q-10 -22 -27 -39q-16 -16 -40 -27q-23 -9 -49 -9t-49 9q-23 10 -39 27q-17 17 -26 39q-10 21 -10 50zM128 1230l-47 75q36 33 69 55q42 29 82 46 q46 21 96 32q53 11 111 11q78 0 147 -23q65 -22 116 -65q48 -41 77 -102q28 -59 28 -135q0 -77 -22 -131q-23 -55 -57 -96q-34 -42 -75 -72q-9 -7 -77 -58q-34 -26 -61 -54q-25 -27 -30 -60l-18 -153h-122l-12 166q-1 5 -1 15q0 35 18 64q22 34 55 63q43 35 75 58 q42 30 77 63q35 35 59 80q24 43 24 106q0 42 -17 78q-16 33 -46 60q-27 23 -68 37q-39 13 -85 13q-60 0 -104 -15q-45 -15 -74 -33q-30 -18 -48 -33q-19 -15 -31 -15q-25 0 -39 23z"/>
<glyph glyph-name="at" horiz-adv-x="1673" unicode="@" d="M759 306q33 0 63 10q33 11 61 35q30 27 54 68q25 43 42 108l76 295q-39 9 -86 9q-76 0 -137 -31q-62 -31 -108 -83q-44 -50 -70 -117t-26 -135q0 -71 33 -115t98 -44zM1185 186q-77 0 -126 37q-50 38 -63 115q-60 -81 -126 -115q-68 -35 -146 -35q-60 0 -103 21 q-46 20 -74 57q-30 38 -43 86q-15 50 -15 108q0 85 33 172q32 86 96 156q65 70 159 113q96 44 220 44q69 0 118 -10q47 -10 96 -31l-94 -361q-19 -76 -19 -117v-6q2 -49 16 -75q13 -27 40 -36q24 -10 57 -10q50 0 93 28q44 29 78 79q34 52 53 123q19 69 19 158 q0 137 -44 242q-43 102 -121 174q-79 70 -183 104q-105 34 -228 34q-134 0 -251 -51t-204 -141q-88 -91 -137 -213q-51 -123 -51 -268q0 -171 54 -298q52 -128 146 -216q92 -87 217 -131q126 -44 268 -44q152 0 269 33q115 33 201 84q19 12 35 7q15 -4 22 -22l26 -66 q-110 -73 -244 -113q-138 -41 -309 -41q-176 0 -323 55q-150 56 -258 158q-111 105 -172 254q-63 150 -63 340q0 111 28 210q27 99 77 189q49 86 120 160q69 71 156 124q87 52 186 80q97 28 207 28q89 0 180 -20q85 -19 167 -59q78 -39 144 -96q66 -60 113 -132 q48 -75 75 -166q26 -93 26 -199q0 -107 -30 -199q-31 -92 -84 -159q-54 -68 -127 -105q-74 -38 -157 -38z"/>
<glyph glyph-name="A" horiz-adv-x="1354" unicode="A" d="M409 532h535l-225 583q-11 25 -21 60q-20 67 -22 73q-17 -63 -20 -73q-9 -29 -22 -61zM1348 0h-150q-26 0 -42 13t-24 33l-134 346h-643l-134 -346q-6 -18 -23 -32t-42 -14h-150l573 1433h196z"/>
<glyph glyph-name="B" horiz-adv-x="1293" unicode="B" d="M376 791h256q82 0 143 18q58 17 100 50q38 31 58 78q19 44 19 99q0 128 -76 186t-236 58h-264v-489zM376 653v-499h310q85 0 143 19q60 19 99 54t56 82q18 47 18 104q0 112 -79 176t-237 64h-310zM183 0v1433h457q130 0 228 -26q95 -26 157 -74q61 -48 90 -117 q29 -72 29 -157q0 -54 -16 -102t-50 -91q-32 -41 -83 -75q-51 -33 -119 -54q159 -32 237 -113q80 -83 80 -216q0 -91 -33 -166q-35 -76 -98 -129q-65 -55 -159 -83q-94 -30 -214 -30h-506z"/>
<glyph glyph-name="C" horiz-adv-x="1336" unicode="C" d="M1189 296q16 0 28 -13l77 -83q-88 -102 -213 -159q-126 -57 -304 -57q-154 0 -280 54q-127 53 -215 150q-88 96 -138 231q-49 134 -49 297q0 162 51 297q51 134 144 232q90 96 221 151q130 53 285 53q154 0 270 -49q119 -50 206 -133l-64 -89q-6 -10 -15 -16 q-10 -7 -26 -7q-18 0 -44 20q-21 16 -68 43q-44 25 -105 44t-155 19q-110 0 -203 -38q-93 -40 -158 -112q-66 -72 -104 -178q-37 -104 -37 -237q0 -134 39 -239q38 -105 105 -177q66 -74 157 -111q91 -38 195 -38q60 0 116 8t95 23q47 18 81 41q36 23 74 58q17 15 34 15z "/>
<glyph glyph-name="D" horiz-adv-x="1521" unicode="D" d="M1226 716q0 132 -36 236t-102 176q-67 73 -160 110q-96 38 -210 38h-341v-1119h341q114 0 210 38q93 37 160 110q65 70 102 175q36 104 36 236zM1425 716q0 -161 -51 -293q-51 -131 -144 -226q-93 -94 -223 -145q-129 -52 -289 -52h-535v1433h535q158 0 289 -51 q131 -53 223 -146q93 -94 144 -227q51 -132 51 -293z"/>
<glyph glyph-name="E" horiz-adv-x="1155" unicode="E" d="M1066 1433v-158h-689v-476h558v-152h-558v-489h690l-1 -158h-883v1433h883z"/>
<glyph glyph-name="F" horiz-adv-x="1131" unicode="F" d="M1066 1433v-158h-689v-501h589v-158h-589v-616h-194v1433h883z"/>
<glyph glyph-name="G" horiz-adv-x="1461" unicode="G" d="M1347 139q-108 -78 -230 -117q-125 -38 -269 -38q-171 0 -312 53q-140 54 -238 151q-99 98 -151 231q-53 136 -53 297q0 164 51 299q52 134 147 232q95 97 231 149q138 53 304 53q85 0 158 -12q73 -13 135 -36q64 -25 115 -57q55 -36 99 -76l-55 -88q-14 -21 -33 -25 q-21 -6 -46 9q-1 0 -55 34q-31 20 -75 39q-42 17 -105 31q-59 13 -144 13q-121 0 -219 -39q-100 -41 -167 -113q-68 -72 -106 -178q-37 -104 -37 -235q0 -134 39 -241q38 -107 110 -181q70 -75 173 -114q102 -39 229 -39q51 0 94 6q37 5 83 17q44 11 77 26q33 13 75 35v316 h-223q-19 0 -30 11q-12 10 -12 27v110h440v-550z"/>
<glyph glyph-name="H" horiz-adv-x="1527" unicode="H" d="M1344 0h-194v652h-773v-652h-194v1433h194v-639h773v639h194v-1433z"/>
<glyph glyph-name="I" horiz-adv-x="560" unicode="I" d="M377 0h-194v1433h194v-1433z"/>
<glyph glyph-name="J" horiz-adv-x="1063" unicode="J" d="M701 1433h194v-938q0 -119 -29 -215q-30 -96 -87 -160q-59 -66 -142 -101q-78 -32 -173 -35h-16q-129 3 -233 50q-116 52 -195 137l56 92q7 10 20 18q11 8 25 8q13 0 30 -11q5 -3 37 -26q25 -20 48 -35q28 -20 62 -35q34 -16 78 -27q20 -5 61 -9q56 1 105 20q52 19 87 62 q35 42 54 108q18 65 18 155v942z"/>
<glyph glyph-name="K" horiz-adv-x="1325" unicode="K" d="M376 805h73q40 0 61 10q22 9 42 32l477 540q19 25 42 36q21 10 54 10h164l-546 -617q-18 -23 -38 -39q-17 -15 -40 -26q25 -8 49 -26q22 -18 43 -46l570 -679h-168q-19 0 -32 3q-12 1 -24 8q-7 3 -17 13t-15 17l-494 569q-19 25 -43 36q-21 10 -70 10h-88v-656h-193v1433 h193v-628z"/>
<glyph glyph-name="L" horiz-adv-x="1027" unicode="L" d="M376 163h620v-163h-813v1433h193v-1270z"/>
<glyph glyph-name="M" horiz-adv-x="1857" unicode="M" d="M888 518q14 -27 23 -50q4 -11 12.5 -30t9.5 -23l21 54q11 27 24 50l486 881q13 24 27 28q15 5 40 5h143v-1433h-170v1053q0 29 1 45q2 32 3 49l-491 -896q-23 -45 -70 -45h-28q-47 0 -70 45l-502 899q4 -34 5 -51t1 -46v-1053h-170v1433h143q25 0 40 -5q13 -4 27 -28z "/>
<glyph glyph-name="N" horiz-adv-x="1527" unicode="N" d="M283 1433q16 0 22 -1t16 -5q6 -4 14 -10q10 -10 15 -17l829 -1079l-3 51q-2 32 -2 46v1015h170v-1433h-97q-22 0 -38 8q-16 7 -31 27l-829 1079q1 -17 3 -49q1 -16 1 -44v-1021h-170v1433h100z"/>
<glyph glyph-name="O" horiz-adv-x="1601" unicode="O" d="M1308 716q0 132 -36 237q-36 104 -102 178q-66 72 -160 111t-210 39q-114 0 -209 -39q-94 -39 -160 -111q-67 -73 -103 -178t-36 -237t36 -236q36 -106 103 -177q66 -74 160 -111q95 -39 209 -39q116 0 210 39q94 37 160 111q66 72 102 177q36 104 36 236zM1507 716 q0 -162 -51 -295q-51 -134 -144 -232q-93 -97 -223 -151q-132 -53 -289 -53q-156 0 -288 53q-130 54 -223 151q-93 98 -144 232t-51 295t51 296q52 135 144 232q93 97 223 151t288 54t289 -54q130 -54 223 -151q92 -97 144 -232q51 -135 51 -296z"/>
<glyph glyph-name="P" horiz-adv-x="1201" unicode="P" d="M376 690h230q84 0 147 22q66 23 107 62q42 38 65 94q22 54 22 121q0 137 -84 214q-86 77 -257 77h-230v-590zM376 536v-536h-193v1433h423q138 0 237 -31q100 -31 166 -90q67 -59 99 -140q32 -84 32 -183t-35 -183q-35 -83 -102 -143t-167 -93q-99 -34 -230 -34h-230z "/>
<glyph glyph-name="Q" horiz-adv-x="1601" unicode="Q" d="M1010 192q39 16 76 39l-193 193l234 4l79 -80q40 57 66 132q36 104 36 236t-36 237q-36 104 -102 178q-66 72 -160 111t-210 39q-114 0 -209 -39q-94 -39 -160 -111q-67 -73 -103 -178t-36 -237t36 -236q36 -106 103 -177q66 -74 160 -111q95 -39 209 -39q116 0 210 39z M1549 0h-232l-105 105q-56 -39 -123 -66q-131 -54 -289 -54t-288 54q-130 52 -223 150t-144 232t-51 295t51 296q52 135 144 232q93 97 223 151t288 54t289 -54q130 -54 223 -151q92 -97 144 -232q51 -135 51 -296q0 -162 -51 -295q-43 -116 -120 -205z"/>
<glyph glyph-name="R" horiz-adv-x="1253" unicode="R" d="M376 739h204q84 0 149 21q63 19 108 58q43 37 65 89q22 51 22 115q0 128 -84 193q-85 65 -252 65h-212v-541zM376 598v-598h-193v1433h405q136 0 235 -27q102 -29 164 -80q64 -52 95 -125q31 -72 31 -165q0 -76 -24 -142q-24 -65 -69 -118q-46 -52 -111 -90 q-67 -38 -149 -56q40 -26 64 -61l418 -569h-172q-52 0 -78 41l-372 512q-17 25 -36 35t-61 10h-147z"/>
<glyph glyph-name="S" horiz-adv-x="1085" unicode="S" d="M963 1301l-47 -92q-9 -15 -19 -22q-11 -8 -26 -8q-17 0 -40 17q-27 19 -57 38q-38 22 -83 37q-51 17 -118 17q-63 0 -114 -17q-50 -18 -83 -48q-35 -30 -51 -70q-17 -42 -17 -88q0 -60 30 -99q27 -39 78 -68q47 -28 110 -48q14 -5 39 -13.5t46.5 -15.5t40.5 -14 q70 -24 126 -49q61 -28 110 -70q48 -42 78 -103q29 -63 29 -150q0 -92 -32 -176q-31 -83 -93 -144q-61 -61 -151 -96q-91 -35 -204 -35q-139 0 -254 50q-113 51 -195 137l56 92q8 12 20 19q10 7 25 7q14 0 30 -10q14 -9 37 -27q5 -4 48 -35q22 -16 62 -35q30 -14 78 -26 q46 -11 99 -11q70 0 123 19q55 20 92 54q38 35 57 82q20 49 20 107q0 64 -29 107q-30 40 -78 69q-47 28 -110 48q-120 38 -126 40q-61 18 -126 47q-64 28 -110 70q-49 44 -77 108q-30 64 -30 159q0 77 30 147q28 70 86 126q54 54 139 88q82 33 189 33q119 0 219 -38 q97 -37 173 -110z"/>
<glyph glyph-name="T" horiz-adv-x="1181" unicode="T" d="M1152 1433v-163h-464v-1270h-193v1270h-465v163h1122z"/>
<glyph glyph-name="U" horiz-adv-x="1471" unicode="U" d="M736 154q88 0 159 30q69 29 119 84q49 55 74 129t25 165v871h193v-871q0 -124 -39 -230q-41 -108 -113 -183q-74 -79 -180 -122q-108 -44 -238 -44t-238 44q-106 43 -180 122q-74 77 -113 183q-40 105 -40 230v871h193v-870q0 -89 26 -165q26 -77 74 -129q48 -54 119 -84 q69 -31 159 -31z"/>
<glyph glyph-name="V" horiz-adv-x="1354" unicode="V" d="M6 1433h155q26 0 42 -13q17 -14 24 -33l404 -1011q13 -32 25 -74q16 -54 23 -83q8 40 21 83q10 38 24 74l403 1011q6 17 24 32q17 14 42 14h155l-584 -1433h-174z"/>
<glyph glyph-name="W" horiz-adv-x="2071" unicode="W" d="M31 1433h161q27 0 44 -13q18 -15 22 -33l296 -996q1 -5 14 -58q8 -42 12 -65q8 34 15 66q9 36 16 57l337 996q6 17 24 32q17 14 42 14h56q26 0 42 -13q16 -14 24 -33l336 -996q10 -29 17 -56q5 -20 13 -62q8 42 12 62q7 37 13 56l297 996q5 18 23 32q17 14 42 14h151 l-447 -1433h-174l-363 1093q-12 36 -20 72q-6 -26 -9 -38q-1 -3 -10 -34l-365 -1093h-174z"/>
<glyph glyph-name="X" horiz-adv-x="1298" unicode="X" d="M513 736l-473 697h193q21 0 31 -7q11 -8 18 -20l374 -574q7 19 21 46l353 524q7 13 19 23q11 8 26 8h185l-475 -688l491 -745h-192q-22 0 -34 12q-13 10 -21 25l-384 601q-7 -20 -18 -40l-374 -561q-14 -18 -21 -25q-12 -12 -32 -12h-180z"/>
<glyph glyph-name="Y" horiz-adv-x="1248" unicode="Y" d="M721 571v-571h-194v571l-525 862h170q26 0 41 -12q16 -14 26 -33l328 -557q12 -23 33 -65q20 -46 25 -61q5 15 25 61q12 27 32 65l327 557q10 19 25 31q17 14 41 14h171z"/>
<glyph glyph-name="Z" horiz-adv-x="1204" unicode="Z" d="M1139 1433v-72q0 -32 -20 -64l-812 -1139h820v-158h-1074v76q0 16 6 30q3 9 13 27l812 1142h-793v158h1048z"/>
<glyph glyph-name="bracketleft" horiz-adv-x="612" unicode="[" d="M182 -289v1822h368v-70q0 -20 -13 -33q-14 -14 -36 -14h-169v-1587h169q22 0 36 -14q13 -13 13 -34v-70h-368z"/>
<glyph glyph-name="backslash" horiz-adv-x="904" unicode="\" d="M67 1473h76q31 0 57 -17q23 -16 36 -49l601 -1497h-75q-28 0 -57 17q-27 16 -40 52z"/>
<glyph glyph-name="bracketright" horiz-adv-x="612" unicode="]" d="M62 -289v70q0 20 14 34t35 14h169v1587h-169q-21 0 -35 14t-14 33v70h368v-1822h-368z"/>
<glyph glyph-name="asciicircum" d="M1028 696h-130q-18 0 -29 10q-12 8 -20 24l-230 443q-27 56 -40 97q-13 -39 -16 -47q-6 -16 -20 -50l-223 -443q-6 -14 -19 -24t-33 -10h-136l388 737h115z" unicode="^"/>
<glyph glyph-name="underscore" horiz-adv-x="918" unicode="_" d="M853 -165v-120h-788v120h788z"/>
<glyph glyph-name="grave" horiz-adv-x="800" unicode="`" d="M131 1449h169q33 0 49 -10t30 -34l149 -242h-102q-21 0 -34 7q-14 6 -27 21z"/>
<glyph glyph-name="a" horiz-adv-x="994" unicode="a" d="M690 246v278q-120 -4 -209 -20q-83 -14 -141 -40q-62 -28 -79 -59q-2 -3 -7 -11t-6 -10.5t-4 -10.5t-3.5 -14.5t-2 -18.5t-2 -27t-0.5 -35q0 -59 13 -86q14 -29 36 -47q23 -20 53 -27q30 -9 65 -9q49 0 86 10q40 9 74 27q31 15 66 43q29 24 61 57zM511 1031q86 0 151 -28 q66 -29 111 -78q45 -50 68 -121q23 -72 23 -156v-648h-79q-27 0 -40 9q-15 10 -22 33l-20 95q-37 -33 -78 -64q-38 -28 -80 -48q-42 -19 -89 -30q-50 -11 -106 -11q-57 0 -111 17q-53 17 -90 49q-38 32 -61 84q-23 51 -23 136q0 75 7 105t26 62q32 54 107 98q70 41 193 71 q116 26 292 31v11q0 118 -51 179q-51 60 -149 60q-68 0 -110 -16q-42 -15 -77 -37q-42 -27 -56 -37q-25 -17 -47 -17q-18 0 -31 10q-12 8 -22 23l-32 57q83 80 181 121q96 40 215 40z"/>
<glyph glyph-name="b" horiz-adv-x="1120" unicode="b" d="M591 887q-88 0 -152 -40q-67 -42 -119 -113v-490q50 -66 108 -93t128 -27q142 0 219 101q76 100 76 301q0 186 -67 274q-68 87 -193 87zM141 0v1473h179v-607q64 76 144 119q82 44 186 44q90 0 161 -34q73 -36 121 -98q50 -65 77 -157q26 -93 26 -207q0 -123 -30 -224 t-86 -172q-57 -72 -138 -111q-80 -40 -182 -40t-168 38q-70 38 -120 106l-9 -92q-8 -38 -46 -38h-115z"/>
<glyph glyph-name="c" horiz-adv-x="955" unicode="c" d="M893 897l-47 -64q-7 -10 -16 -17q-8 -6 -22 -6q-16 0 -33 13q-14 9 -44 27q-24 13 -65 28q-39 12 -95 12q-74 0 -132 -26q-57 -27 -95 -77q-38 -48 -58 -121q-20 -72 -20 -159q0 -93 21 -163q21 -72 60 -120q36 -48 93 -74q55 -26 122 -26q66 0 107 16q42 15 70 34 q32 23 46 35q18 15 36 15q22 0 34 -17l50 -65q-35 -43 -75 -70q-42 -28 -90 -48q-52 -20 -102 -29q-52 -9 -108 -9q-94 0 -176 35q-82 34 -142 102q-59 65 -94 163q-34 96 -34 221q0 111 32 209q32 97 92 166t149 108q88 39 203 39q108 0 189 -34q80 -34 144 -98z"/>
<glyph glyph-name="d" horiz-adv-x="1120" unicode="d" d="M527 130q89 0 154 40q66 41 120 113v489q-49 66 -108 93q-58 27 -130 27q-140 0 -217 -101q-76 -100 -76 -288q0 -96 17 -169q16 -70 50 -116q32 -46 81 -67q48 -21 109 -21zM873 0h-30q-6 -3 -10 9q-1 3 -8 28l-16 123q-64 -78 -148 -126t-192 -48q-89 0 -158 34 q-71 33 -121 98q-50 66 -77 162q-27 98 -27 223q0 111 30 209q30 96 86 167q57 72 138 112q80 40 183 40q94 0 160 -31q64 -31 118 -89v562h178v-1473h-106z"/>
<glyph glyph-name="e" horiz-adv-x="1056" unicode="e" d="M560 898q-129 0 -203 -74q-70 -72 -92 -230h554q0 83 -17 137q-18 52 -51 89q-34 37 -82 58q-49 20 -109 20zM556 1029q91 0 169 -30q78 -32 134 -88q57 -61 88 -142q32 -87 32 -216q0 -43 -9 -56q-9 -14 -34 -14h-677q2 -98 26 -167q22 -61 66 -105q35 -36 100 -61 q58 -24 130 -24q68 0 116 16q49 15 83 33q40 21 59 34q23 15 40 15q22 0 34 -17l50 -65q-33 -41 -79 -69q-46 -30 -98 -49q-46 -17 -109 -29q-55 -9 -111 -9q-104 0 -193 36q-88 34 -153 104q-65 68 -101 169q-36 100 -36 232q0 107 33 198q32 93 93 160t149 106 q90 38 198 38z"/>
<glyph glyph-name="f" horiz-adv-x="701" unicode="f" d="M207 0v861h-112q-19 4 -34 16q-14 11 -14 30v86h160v98q0 89 25 155q24 68 70 114q45 46 109 70q65 24 144 24q75 0 142 -23l-4 -89q-2 -24 -26 -26h-13q-10 0 -34.5 0.5t-35.5 0.5q-46 0 -83 -12q-38 -12 -65 -39q-28 -28 -41 -71q-15 -43 -15 -109v-93h292v-129h-286 v-864h-179z"/>
<glyph glyph-name="g" horiz-adv-x="1120" unicode="g" d="M528 155q88 0 153 40q65 41 120 114v464q-47 63 -106 92q-58 27 -131 27q-142 0 -218 -97t-76 -276q0 -95 18 -164q16 -69 50 -113q33 -45 81 -66t109 -21zM980 1013v-957q0 -93 -31 -168q-31 -76 -92 -132q-60 -56 -147 -87t-200 -31q-126 0 -214 36q-91 38 -150 91 l41 67q6 11 20 20q10 7 28 7q17 0 39 -14q32 -20 51 -31q34 -18 74 -31q45 -14 107 -14q74 0 129 21t92 58q36 36 56 89q18 51 18 111v117q-38 -43 -67 -67q-33 -27 -73 -48q-38 -20 -82 -29q-43 -10 -97 -10q-93 0 -165 34q-74 33 -125 98t-78 159q-28 93 -28 217 q0 107 30 202q30 93 87 162q55 67 138 108q81 39 183 39q98 0 168 -35t122 -99l12 80q9 37 47 37h107z"/>
<glyph glyph-name="h" horiz-adv-x="1116" unicode="h" d="M141 0v1473h179v-596q64 69 144 111q80 41 182 41q82 0 147 -27q62 -28 106 -78q41 -50 64 -122q22 -69 22 -157v-651h-179v651q0 115 -52 179q-52 63 -160 63q-80 0 -148 -38q-67 -37 -126 -103v-746h-179z"/>
<glyph glyph-name="i" horiz-adv-x="480" unicode="i" d="M367 1331q0 -27 -10 -48q-10 -22 -28 -40q-17 -17 -41 -28q-23 -10 -50 -10t-48 10q-25 12 -40 28q-16 16 -27 40q-10 21 -10 48t10 50q11 24 27 41q16 16 40 27q21 10 48 10t50 -10q24 -11 41 -27q18 -20 28 -41q10 -23 10 -50zM329 1013v-1013h-178v1013h178z"/>
<glyph glyph-name="j" horiz-adv-x="480" unicode="j" d="M366 1331q0 -27 -10 -48q-10 -22 -28 -40q-17 -17 -41 -28q-21 -10 -49 -10q-27 0 -48 10q-25 12 -40 28q-16 16 -27 40q-10 21 -10 48t10 50q11 24 27 41q16 16 40 27q21 10 48 10q28 0 49 -10q24 -11 41 -27q18 -20 28 -41q10 -23 10 -50zM329 1013v-1088 q0 -63 -16 -114q-16 -52 -51 -91t-89 -62q-54 -22 -131 -22q-29 0 -59 5q-27 5 -54 15l7 96q1 8 6 13q4 4 13 6q8 2 20 0h32q78 0 111 36q33 37 33 118v1088h178z"/>
<glyph glyph-name="k" horiz-adv-x="1016" unicode="k" d="M320 1473v-867h46q21 0 34 6q11 4 28 22l320 343q14 17 30 27q15 9 41 9h161l-373 -397q-26 -33 -58 -53q18 -12 33 -27q14 -16 27 -36l396 -500h-159q-21 0 -39 8q-17 8 -29 27l-333 415q-14 20 -29 28q-15 6 -45 6h-51v-484h-179v1473h179z"/>
<glyph glyph-name="l" horiz-adv-x="472" unicode="l" d="M325 1473v-1473h-178v1473h178z"/>
<glyph glyph-name="m" horiz-adv-x="1645" unicode="m" d="M141 0v1013h107q38 0 47 -37l13 -104q56 70 126 113q71 44 162 44q101 0 166 -57q63 -57 91 -154q22 54 57 95q35 42 77 66q46 27 92 38q48 12 98 12q81 0 143 -25q63 -26 106 -75q44 -49 66 -120q23 -74 23 -164v-639h-179v639q0 120 -52 181t-150 61q-44 0 -83 -15 q-41 -16 -70 -46q-31 -31 -47 -75q-18 -47 -18 -106v-639h-179v639q0 123 -49 182q-50 60 -143 60q-66 0 -122 -35q-58 -38 -103 -97v-755h-179z"/>
<glyph glyph-name="n" horiz-adv-x="1116" unicode="n" d="M141 0v1013h107q38 0 47 -37l14 -110q66 73 148 118q83 45 189 45q82 0 147 -27q62 -28 106 -78q41 -50 64 -122q22 -69 22 -157v-651h-179v651q0 115 -52 179q-52 63 -160 63q-80 0 -148 -38q-67 -37 -126 -103v-746h-179z"/>
<glyph glyph-name="o" horiz-adv-x="1134" unicode="o" d="M568 125q150 0 224 101t74 280q0 181 -74 282t-224 101q-75 0 -132 -26q-56 -25 -94 -75t-56 -120q-19 -70 -19 -162q0 -180 75 -280q74 -101 226 -101zM568 1029q113 0 200 -37q89 -38 152 -105q62 -66 97 -164q33 -97 33 -216q0 -120 -33 -216q-35 -98 -97 -164 q-63 -68 -152 -104q-87 -37 -200 -37q-114 0 -201 37q-89 36 -153 104q-63 67 -96 164q-34 95 -34 216q0 120 34 216q33 97 96 164t153 105q87 37 201 37z"/>
<glyph glyph-name="p" horiz-adv-x="1121" unicode="p" d="M593 887q-88 0 -152 -40q-66 -41 -121 -113v-490q48 -66 107 -93q58 -27 130 -27q141 0 218 101q76 100 76 288q0 97 -17 170q-18 71 -51 117q-33 45 -81 66t-109 21zM141 -343v1356h107q38 0 47 -37l15 -120q63 78 149 127q84 48 192 48q89 0 159 -33q72 -35 121 -99 q51 -67 77 -163q27 -97 27 -223q0 -112 -30 -208q-29 -95 -86 -167q-57 -70 -138 -111t-184 -41q-94 0 -159 31q-67 31 -118 88v-448h-179z"/>
<glyph glyph-name="q" horiz-adv-x="1120" unicode="q" d="M527 130q89 0 154 40q66 41 120 113v490q-47 63 -107 92q-58 27 -131 27q-140 0 -217 -101q-76 -100 -76 -288q0 -96 17 -169q16 -70 50 -116q32 -46 81 -67q48 -21 109 -21zM979 1013v-1356h-178v493q-66 -75 -145 -119q-82 -45 -187 -45q-89 0 -158 34q-71 33 -121 98 q-50 66 -77 162q-27 98 -27 223q0 111 30 209q30 96 86 167q57 72 138 112q80 40 183 40q98 0 168 -35q68 -35 122 -99l12 79q10 37 48 37h106z"/>
<glyph glyph-name="r" horiz-adv-x="728" unicode="r" d="M141 0v1013h102q29 0 40 -11q10 -10 15 -38l11 -154q48 104 119 163q70 58 171 58q34 0 62 -7q31 -8 52 -22l-13 -133q-6 -25 -30 -25q-14 0 -41 6t-61 6q-47 0 -86 -14q-39 -16 -67 -42q-32 -31 -53 -68q-24 -43 -42 -92v-640h-179z"/>
<glyph glyph-name="s" horiz-adv-x="866" unicode="s" d="M771 911l-40 -65q-12 -22 -37 -22q-14 0 -34 11q-1 1 -18 10.5t-28 14.5q-25 12 -66 25q-39 11 -90 11q-43 0 -81 -11q-34 -11 -61 -32q-25 -19 -39 -46q-14 -28 -14 -58q0 -39 23 -65t59 -45q37 -19 84 -33q9 -3 43.5 -14t53.5 -17q38 -13 96 -37q45 -19 84 -50 q38 -30 60 -73t22 -105q0 -72 -25 -129q-25 -60 -74 -104q-48 -42 -120 -68q-69 -25 -164 -25q-108 0 -192 34q-85 34 -146 89l42 68q6 11 19 20q10 7 28 7t38 -14q23 -16 49 -31q33 -19 69 -31q42 -14 102 -14q51 0 91 14t65 36t39 53q12 30 12 64q0 42 -22 70 q-23 28 -60 47q-35 18 -84 34q-45 13 -97 30q-58 19 -97 37q-47 19 -85 51q-37 31 -59 77q-23 46 -23 110q0 58 24 112q25 55 70 94q46 40 113 64t153 24q102 0 180 -31t137 -87z"/>
<glyph glyph-name="t" horiz-adv-x="717" unicode="t" d="M452 -16q-120 0 -184 67q-65 68 -65 193v620h-122q-17 0 -27 10q-11 9 -11 29v92h166v313q3 14 14 25q11 9 27 9h131v-349h293v-129h-293v-608q0 -64 31 -95t80 -31q27 0 49 8q23 9 35 16q14 8 26 17q10 7 18 7q14 0 25 -17l52 -85q-46 -43 -111 -67q-63 -25 -134 -25z "/>
<glyph glyph-name="u" horiz-adv-x="1115" unicode="u" d="M309 1013v-646q0 -114 53 -178q52 -63 160 -63q79 0 147 37q69 37 127 103v747h178v-1011l-148 -2q1 12 -6 37l-14 109q-66 -74 -148 -117q-82 -45 -188 -45q-84 0 -146 28q-62 26 -107 77q-42 48 -64 121q-22 69 -22 157v646h178z"/>
<glyph glyph-name="v" horiz-adv-x="1032" unicode="v" d="M23 1013h145q22 0 36 -11q15 -11 19 -26l257 -652q12 -38 21 -72q11 -41 17 -70q6 29 17 70q10 40 22 72l260 652q6 16 20 27q13 10 33 10h139l-413 -1013h-160z"/>
<glyph glyph-name="w" horiz-adv-x="1571" unicode="w" d="M33 1013h140q20 0 36 -11q15 -11 19 -26l194 -652q10 -46 15 -68q8 -35 12 -67q7 31 18 67q7 22 21 68l214 656q4 14 18 25q11 10 30 10h78q20 0 33 -10q14 -11 18 -25l209 -656q7 -23 19 -69q14 -53 17 -67q3 16 14 67q13 55 16 69l198 652q4 16 19 27q13 10 33 10h134 l-328 -1013h-141q-26 0 -36 34l-224 687q-10 29 -13 47q-1 8 -4.5 23.5t-5.5 22.5q-1 -6 -4.5 -22t-5.5 -25q-8 -32 -13 -47l-228 -686q-9 -34 -40 -34h-134z"/>
<glyph glyph-name="x" horiz-adv-x="996" unicode="x" d="M378 519l-341 494h171q22 0 32 -7q11 -8 18 -20l248 -380q8 24 26 56l218 320q9 14 20 23q11 8 25 8h164l-341 -484l355 -529h-171q-22 0 -34 12q-13 10 -21 25l-255 397q-8 -30 -21 -52l-236 -345q-14 -18 -21 -25q-12 -12 -32 -12h-159z"/>
<glyph glyph-name="y" horiz-adv-x="1031" unicode="y" d="M1015 1013l-565 -1312q-10 -21 -22 -32q-14 -12 -42 -12h-132l185 402l-418 954h154q23 0 37 -11q13 -12 18 -26l271 -638q10 -30 15 -44q8 -22 12 -45q14 45 30 90l263 637q6 16 21 27q13 10 32 10h141z"/>
<glyph glyph-name="z" horiz-adv-x="904" unicode="z" d="M840 1013v-76q0 -19 -6 -37q-7 -17 -18 -31l-549 -730h554v-139h-763v74q0 13 6 31q6 17 18 33l552 735h-545v140h751z"/>
<glyph glyph-name="braceleft" horiz-adv-x="602" unicode="{" d="M204 425q0 63 -35 104q-34 40 -101 40v107q67 0 101 40q35 41 35 104q0 46 -8 99q-4 27 -17 98q-12 66 -17 99q-8 53 -8 102q0 68 21 127q19 57 62 100q41 42 103 65q63 23 142 23h54v-79q0 -20 -14 -29t-26 -9h-20q-78 0 -122 -50q-44 -52 -44 -137q0 -59 7 -108 q9 -61 16 -101q6 -33 16 -99q7 -46 7 -99q0 -37 -11 -70q-10 -30 -31 -58q-22 -27 -48 -44q-28 -19 -61 -28q32 -9 61 -27q27 -19 48 -45q21 -27 31 -58q11 -33 11 -69q0 -53 -7 -99q-9 -60 -16 -98q-7 -37 -16 -102q-7 -49 -7 -108q0 -87 44 -137t122 -50h20q12 0 26 -9 t14 -29v-80h-54q-79 0 -142 23q-63 25 -103 66q-43 43 -62 100q-21 59 -21 127q0 49 8 102q5 33 17 99q13 71 17 98q8 53 8 99z"/>
<glyph glyph-name="bar" horiz-adv-x="501" unicode="|" d="M181 1533h139v-1882h-139v1882z"/>
<glyph glyph-name="braceright" horiz-adv-x="602" unicode="}" d="M398 425q0 -46 8 -99q4 -27 17 -98q12 -66 17 -99q8 -53 8 -102q0 -67 -20 -127q-20 -57 -62 -100q-42 -42 -103 -66q-63 -23 -143 -23h-54v80q0 20 15 29q13 9 25 9h20q78 0 122 50t44 137q0 59 -7 108q-9 65 -16 102q-7 38 -16 98q-7 46 -7 99q0 36 11 69q11 32 32 58 q19 26 48 45q27 18 60 27q-34 9 -60 28q-28 18 -48 44q-22 27 -32 58q-11 33 -11 70q0 53 7 99q10 66 16 99q7 40 16 101q7 49 7 108q0 85 -44 137q-44 50 -122 50h-20q-12 0 -25 9q-15 9 -15 29v79h54q80 0 143 -23q60 -22 103 -65q42 -43 62 -100q20 -60 20 -127 q0 -49 -8 -102q-5 -33 -17 -99q-13 -71 -17 -98q-8 -53 -8 -99q0 -63 35 -104q34 -40 101 -40v-107q-67 0 -101 -40q-35 -41 -35 -104z"/>
<glyph glyph-name="asciitilde" d="M763 613q65 0 102 43q35 41 37 112h144q0 -68 -18 -123q-20 -57 -53 -96t-86 -62q-50 -22 -115 -22q-54 0 -103 16q-53 17 -98 36q-55 22 -91 36q-42 16 -79 16q-65 0 -101 -42q-36 -41 -38 -113h-144q0 69 19 123q18 55 53 96t85 63q48 22 115 22q54 0 103 -16 q51 -16 99 -36q46 -20 90 -36q45 -17 79 -17z" unicode="~"/>
<glyph glyph-name="exclamdown" horiz-adv-x="504" unicode="¡" d="M125 904q0 29 10 50q9 22 26 39q16 16 40 27q23 9 49 9t49 -9q23 -10 39 -27t27 -39q10 -21 10 -50q0 -28 -10 -49q-11 -24 -27 -40q-16 -17 -39 -27q-21 -10 -49 -10t-49 10q-24 11 -40 27q-17 17 -26 40q-10 21 -10 49zM168 -343v541q0 30 2 88q1 28 5 86q2 22 8 89 q7 69 10 98h120q10 -87 11 -98q3 -31 7 -89t5 -86q2 -58 2 -88v-541h-170z"/>
<glyph glyph-name="cent" d="M316 506q0 -160 68 -257q68 -98 188 -120l53 760q-152 -10 -231 -112q-78 -101 -78 -271zM547 -235l15 224q-95 11 -169 50q-79 39 -134 105q-56 65 -88 157q-32 93 -32 205q0 110 33 205q33 93 96 162t155 110q90 40 211 43l13 179q2 20 15 35q14 14 34 14h67l-16 -233 q83 -12 148 -43q66 -32 119 -81l-46 -62q-9 -12 -15 -16q-7 -6 -22 -6q-11 0 -28 9q-10 5 -39 20q-22 12 -54 24q-29 11 -73 19l-53 -762q66 5 106 20q39 14 72 32q20 11 48 31q20 14 35 14q12 0 20 -4q10 -5 14 -12l49 -63q-60 -71 -153 -108t-200 -45l-12 -175 q-1 -19 -15 -34q-14 -14 -35 -14h-66z" unicode="¢"/>
<glyph glyph-name="sterling" d="M48 614v58q0 27 16 44q16 18 45 18h134v261q0 95 27 177q27 83 82 144t137 97q82 35 191 35q79 0 139 -19q61 -19 108 -54q50 -37 82 -79q34 -44 58 -97l-72 -46q-24 -13 -48 -11q-23 2 -43 25q-22 30 -39 50q-21 23 -47 41q-25 16 -59 27q-33 10 -79 10q-64 0 -110 -21 q-49 -21 -80 -60q-32 -39 -48 -94q-16 -54 -16 -123v-263h440v-72q0 -17 -14 -33q-15 -15 -38 -15h-388v-243q0 -76 -28 -129q-27 -53 -79 -100l57 9q28 3 58 3h677v-76q0 -12 -5 -27q-7 -16 -16 -25q-9 -10 -25 -19q-13 -7 -32 -7h-964v115q35 11 66 27q29 15 55 43 q24 25 39 60q14 36 14 80v289h-195z" unicode="£"/>
<glyph glyph-name="currency" d="M355 672q0 -46 18 -86q17 -41 48 -71q31 -31 72 -49t87 -18q47 0 89 18q41 18 72 49q30 30 48 71q18 40 18 86q0 48 -18 88t-48 72q-31 31 -72 49q-43 17 -89 17q-45 0 -87 -17q-41 -18 -72 -49q-31 -32 -48 -72q-18 -40 -18 -88zM223 672q0 55 17 108q17 52 45 94 l-153 153l91 90l151 -152q44 31 96 48q54 17 110 17q59 0 108 -16t94 -47l153 153l89 -91l-151 -152q31 -43 48 -95q17 -54 17 -110q0 -59 -16 -108q-15 -47 -46 -94l152 -151l-91 -92l-152 152q-45 -31 -96 -47q-54 -17 -109 -17q-56 0 -107 17q-52 17 -95 45l-153 -153 l-89 91l151 152q-31 45 -47 96q-17 53 -17 109z" unicode="¤"/>
<glyph glyph-name="yen" d="M150 625h307l-408 808h148q27 0 43 -12q16 -13 24 -33l277 -566q13 -34 24 -63q4 -14 16 -58q12 44 16 58q7 22 23 63l276 566q8 17 25 31t41 14h149l-409 -808h308v-102h-341v-105h341v-103h-341v-315h-178v315h-341v103h341v105h-341v102z" unicode="¥"/>
<glyph glyph-name="brokenbar" horiz-adv-x="507" unicode="¦" d="M184 452h139v-795h-139v795zM184 1533h139v-794h-139v794z"/>
<glyph glyph-name="section" horiz-adv-x="990" unicode="§" d="M259 726q0 -51 35 -86q35 -37 90 -65q61 -32 120 -55q68 -26 128 -57q53 25 78 64q24 37 24 84q0 35 -15 64q-15 28 -41 51q-24 21 -61 42q-27 16 -74 37q-7 3 -82 35q-28 11 -82 37q-66 -30 -93 -66q-27 -37 -27 -85zM844 1330l-39 -65q-13 -22 -37 -22q-14 0 -34 11 q-39 21 -47 25q-25 12 -66 25q-39 11 -90 11q-49 0 -86 -12q-40 -14 -65 -34q-28 -22 -41 -49q-14 -30 -14 -59q0 -38 25 -66q26 -31 64 -52q39 -24 90 -45q34 -15 104 -45q45 -19 103 -50q50 -28 91 -63q39 -36 64 -82q24 -46 24 -107q0 -81 -39 -144q-39 -65 -123 -102 q49 -37 80 -86t31 -118q0 -72 -25 -129q-25 -60 -73 -103q-49 -43 -120 -69q-71 -25 -164 -25q-109 0 -192 35q-87 35 -146 88l42 68q6 11 19 20q10 7 28 7t38 -14q25 -17 50 -31q30 -19 71 -32q44 -14 105 -14q52 0 91 13q38 12 66 35q28 24 41 53q14 33 14 69q0 46 -25 78 q-26 34 -66 59q-38 24 -93 46q-95 38 -107 43q-49 20 -107 48q-55 27 -94 60q-39 34 -66 82q-25 46 -25 110q0 79 43 141q45 63 136 97q-48 37 -81 91q-32 53 -32 127q0 58 24 112q24 53 70 93t114 64q67 24 153 24q101 0 179 -31q80 -32 137 -86z"/>
<glyph glyph-name="dieresis" horiz-adv-x="800" unicode="¨" d="M703 1289q0 -23 -9 -43t-24 -35q-16 -15 -36 -24q-21 -9 -44 -9q-24 0 -43 9q-21 9 -36 24t-24 35t-9 43t9 44q9 20 24 37q15 15 36 24q19 9 43 9q23 0 44 -9q20 -9 36 -24q15 -17 24 -37q9 -21 9 -44zM322 1289q0 -23 -9 -43q-10 -21 -25 -35q-16 -15 -36 -24 q-21 -9 -44 -9q-22 0 -42 9t-35 24q-15 14 -25 35q-9 20 -9 43t9 44t25 37q15 15 35 24t42 9q23 0 44 -9q20 -9 36 -24q16 -16 25 -37t9 -44z"/>
<glyph glyph-name="copyright" horiz-adv-x="1663" unicode="©" d="M202 716q0 -90 22 -171q22 -83 63 -153q41 -73 98 -130q58 -59 127 -99q66 -40 150 -65q79 -22 169 -22q89 0 170 22q85 25 152 65q68 39 128 99q59 60 98 130q42 74 64 153q22 81 22 171q0 135 -49 252q-49 116 -135 205q-85 86 -202 138q-117 50 -248 50 q-86 0 -169 -23q-78 -22 -150 -64q-68 -41 -127 -101q-55 -55 -98 -130q-40 -72 -63 -155q-22 -81 -22 -172zM101 716q0 99 26 195q25 90 74 175q48 81 115 148q66 66 147 114q83 49 174 74q95 26 194 26t195 -26q91 -25 174 -74q80 -47 148 -114q67 -67 115 -148 q49 -86 73 -175q26 -96 26 -195q0 -98 -26 -193q-24 -90 -73 -175q-49 -82 -115 -147q-67 -67 -148 -115q-83 -49 -174 -74q-96 -26 -195 -26t-194 26q-91 25 -174 74q-82 49 -147 115q-66 65 -115 147q-49 83 -74 174q-26 95 -26 194zM1087 474q15 1 27 -11l60 -64 q-57 -66 -139 -102q-81 -37 -199 -37q-100 0 -178 34q-83 35 -138 95q-57 60 -89 145t-32 184q0 102 34 186q35 85 95 145q61 59 145 94q83 33 181 33q108 0 185 -33q75 -35 132 -90l-46 -65q-3 -4 -13 -12q-8 -6 -19 -6q-13 0 -29 11q-31 20 -41 25q-23 12 -63 25 q-41 11 -97 11q-73 0 -127 -22q-55 -22 -96 -65q-40 -41 -61 -102q-21 -60 -21 -135q0 -78 22 -137q21 -61 59 -102t91 -62q51 -22 114 -22q50 0 87 8q33 7 62 20q20 8 48 25q25 16 46 26z"/>
<glyph glyph-name="ordfeminine" horiz-adv-x="735" unicode="ª" d="M317 923q51 0 88 19q37 18 72 53v106q-63 -1 -118 -10q-51 -9 -79 -22t-43 -31q-13 -17 -13 -39q0 -43 27 -59q26 -17 66 -17zM604 840h-60q-18 0 -27 6q-9 5 -17 23l-13 48q-18 -16 -47 -37q-22 -16 -47 -27q-30 -12 -53 -16q-28 -6 -63 -6q-40 0 -70 10q-33 11 -56 31 q-23 19 -37 50t-14 71q0 34 19 68q19 33 63 60q45 26 116 44q77 18 179 19v37q0 64 -28 93q-29 30 -86 30q-37 0 -63 -9q-29 -10 -44 -19q-7 -4 -18.5 -10.5t-14.5 -8.5q-15 -9 -31 -9q-13 0 -23 8q-8 7 -15 17l-22 42q51 50 112 72q63 23 134 23q53 0 96 -17q42 -17 71 -47 q29 -31 44 -72q15 -42 15 -93v-381z"/>
<glyph glyph-name="guillemotleft" horiz-adv-x="858" unicode="«" d="M396 518v23l249 389l58 -28q23 -11 28 -31q1 -3 1 -9q0 -16 -11 -35l-158 -261q-12 -21 -28 -37q14 -13 28 -36l158 -261q11 -19 11 -34q0 -6 -1 -9q-5 -21 -28 -32l-58 -28zM100 518v23l249 389l58 -28q23 -11 28 -31q1 -3 1 -9q0 -16 -11 -35l-158 -261 q-12 -21 -28 -37q14 -13 28 -36l158 -261q11 -19 11 -34q0 -6 -1 -9q-5 -21 -28 -32l-58 -28z"/>
<glyph glyph-name="logicalnot" d="M148 739h860v-424h-151v289h-709v135z" unicode="¬"/>
<glyph glyph-name="registered" horiz-adv-x="1663" unicode="®" d="M688 740h115q110 0 156 41q45 41 45 116q0 37 -9 65q-10 28 -31 46q-22 18 -57 27q-36 9 -88 9h-131v-304zM688 626v-354h-156v892h287q173 0 256 -62q82 -63 82 -185q0 -93 -53 -160q-52 -65 -159 -91q18 -11 30 -25q13 -16 23 -35l228 -334h-149q-33 0 -48 25l-202 302 q-8 12 -21 20q-13 7 -39 7h-79zM202 716q0 -90 22 -171q22 -83 63 -153q41 -73 98 -130q58 -59 127 -99q66 -40 150 -65q79 -22 169 -22q89 0 170 22q85 25 152 65q68 39 128 99q59 60 98 130q42 74 64 153q22 81 22 171q0 135 -49 252q-49 116 -135 205q-85 86 -202 138 q-117 50 -248 50q-86 0 -169 -23q-78 -22 -150 -64q-68 -41 -127 -101q-55 -55 -98 -130q-40 -72 -63 -155q-22 -81 -22 -172zM101 716q0 99 26 195q25 90 74 175q48 81 115 148q66 66 147 114q83 49 174 74q95 26 194 26t195 -26q91 -25 174 -74q80 -47 148 -114 q67 -67 115 -148q49 -86 73 -175q26 -96 26 -195q0 -98 -26 -193q-24 -90 -73 -175q-49 -82 -115 -147q-67 -67 -148 -115q-83 -49 -174 -74q-96 -26 -195 -26t-194 26q-91 25 -174 74q-82 49 -147 115q-66 65 -115 147q-49 83 -74 174q-26 95 -26 194z"/>
<glyph glyph-name="macron" horiz-adv-x="800" unicode="¯" d="M113 1348h574v-117h-574v117z"/>
<glyph glyph-name="degree" horiz-adv-x="829" unicode="°" d="M215 1127q0 -42 15 -78q15 -37 42 -64t64 -42q35 -16 78 -16t79 16q36 15 63 42t42 64q15 36 15 78q0 41 -15 79q-14 36 -42 65q-26 26 -63 43q-38 15 -79 15q-42 0 -78 -15q-37 -17 -64 -43q-28 -29 -42 -65q-15 -38 -15 -79zM89 1128q0 69 25 126q26 60 69 103 q41 41 103 68q57 25 128 25q70 0 129 -25q62 -27 103 -68q44 -45 70 -103q25 -57 25 -126q0 -67 -25 -124t-70 -102q-43 -43 -103 -69q-61 -26 -129 -26t-128 26t-103 69q-43 44 -69 102q-25 57 -25 124z"/>
<glyph glyph-name="plusminus" d="M101 215h958v-135h-958v135zM652 1202v-376h407v-136h-407v-368h-146v368h-405v136h405v376h146z" unicode="±"/>
<glyph glyph-name="twosuperior" horiz-adv-x="668" unicode="²" d="M339 1637q52 0 95 -15q42 -15 72 -42t47 -65q16 -38 16 -86q0 -39 -12 -74q-14 -36 -34 -66q-21 -31 -48 -60q-36 -38 -57 -59l-163 -166q15 5 47 11q21 4 45 4h195q19 0 32 -11q11 -11 11 -31v-77h-511v43q0 13 6 27q4 14 17 26l221 219q50 51 85 103q34 52 34 107 q0 51 -30 79q-30 27 -74 27q-47 0 -75 -24t-42 -66q-11 -18 -23 -25q-13 -8 -39 -3l-71 12q15 107 84 159q70 53 172 53z"/>
<glyph glyph-name="threesuperior" horiz-adv-x="668" unicode="³" d="M341 1637q50 0 92 -14q42 -16 71 -40q28 -25 45 -60q16 -33 16 -74q0 -128 -119 -173q67 -20 101 -58t34 -101q0 -55 -21 -97t-55 -70q-36 -30 -80 -43q-46 -15 -94 -15q-59 0 -99 13q-43 12 -72 37q-31 23 -52 60q-21 34 -37 83l55 24q23 9 42 5t27 -22q2 -4 6.5 -12.5 t6.5 -12.5q7 -15 23 -31q12 -13 37 -25q24 -11 56 -11t55 10q24 11 39 26q16 15 24 35q8 21 8 41q0 28 -8 52q-10 22 -28 35q-19 13 -52 21q-31 7 -80 7v87q88 2 123 31q35 30 35 82q0 50 -29 76t-77 26q-47 0 -76 -23q-29 -25 -41 -64q-11 -20 -21 -26q-11 -8 -37 -3 l-67 12q8 55 29 93q23 40 55 66q33 27 74 40q40 13 91 13z"/>
<glyph glyph-name="acute" horiz-adv-x="800" unicode="´" d="M691 1449l-233 -258q-14 -15 -27 -21q-13 -7 -35 -7h-106l148 242q14 23 31 34q16 10 48 10h174z"/>
<glyph glyph-name="paragraph" horiz-adv-x="1401" unicode="¶" d="M1330 1433v-153h-219v-1481h-157v1481h-277v-1481h-157v861q-106 0 -187 31q-82 30 -141 83q-58 52 -90 123q-32 72 -32 152q0 85 32 157q31 70 90 121q58 49 141 78q81 28 187 28h810z"/>
<glyph glyph-name="periodcentered" horiz-adv-x="520" unicode="·" d="M111 593q0 31 12 59q10 28 32 48q20 20 47 32q26 12 56 12t59 -12q28 -12 48 -32t32 -48t12 -59q0 -30 -12 -57t-32 -47q-20 -22 -48 -32q-28 -12 -59 -12q-30 0 -56 12q-27 11 -47 32q-21 20 -32 47q-12 27 -12 57z"/>
<glyph glyph-name="cedilla" horiz-adv-x="800" unicode="¸" d="M282 -253q7 0 14 -4l20 -8q4 -2 27 -8q15 -3 36 -3q41 0 64 17q21 17 21 43q0 38 -42 53q-38 15 -119 26l54 162h101l-29 -100q93 -19 135 -54q41 -35 41 -89q0 -33 -16 -58q-18 -27 -44 -44q-27 -17 -69 -28q-41 -9 -88 -9q-38 0 -78 8q-33 8 -68 23l17 55q6 18 23 18z "/>
<glyph glyph-name="onesuperior" horiz-adv-x="668" unicode="¹" d="M158 985h147v440l4 43l-107 -88q-7 -6 -17 -8q-9 -2 -17 0q-10 2 -14 5q-8 5 -10 8l-39 56l222 190h108v-646h130v-85h-407v85z"/>
<glyph glyph-name="ordmasculine" horiz-adv-x="804" unicode="º" d="M404 934q84 0 126 53q41 53 41 152t-41 152q-42 52 -126 52q-89 0 -129 -52q-41 -53 -41 -152t41 -152t129 -53zM404 1449q70 0 127 -21q57 -23 96 -62t62 -97q22 -57 22 -129q0 -73 -22 -130q-23 -58 -62 -98q-41 -41 -96 -62q-56 -22 -127 -22q-72 0 -128 22 q-55 20 -97 62q-41 41 -63 98t-22 130q0 72 22 129q22 56 63 97q39 39 97 62q57 21 128 21z"/>
<glyph glyph-name="guillemotright" horiz-adv-x="859" unicode="»" d="M759 541v-23l-249 -389l-58 28q-22 10 -27 32q-5 20 9 43l158 261q11 17 14 21q10 11 14 15q-16 16 -28 37l-158 261q-14 23 -9 44t27 31l58 28zM463 541v-23l-249 -389l-58 28q-22 10 -27 32q-1 3 -1 10q0 17 10 33l158 261q11 17 14 21q9 11 14 15q-16 16 -28 37 l-158 261q-10 16 -10 33q0 7 1 11q5 21 27 31l58 28z"/>
<glyph glyph-name="onequarter" horiz-adv-x="1500" unicode="¼" d="M1188 314v191q0 131 6 205q-10 -22 -43 -72q-5 -7 -14.5 -22t-14.5 -22q-3 -5 -9 -13.5t-10 -14.5t-7 -11l-164 -241h256zM1453 199h-122v-198h-143v198h-394v99l400 568h137v-552h122v-115zM324 1433h140v-859h-130v568q0 80 5 177q-18 -18 -48 -43q-42 -35 -158 -115 l-66 94zM1266 1433l-885 -1433h-141l886 1433h140z"/>
<glyph glyph-name="onehalf" horiz-adv-x="1550" unicode="½" d="M1485 1h-592v102l231 225q93 90 127 133q41 47 57 84.5t16 89.5q0 65 -38 99.5t-102 34.5q-52 0 -100.5 -19t-114.5 -67l-65 86q128 109 278 109q128 0 200.5 -63.5t72.5 -173.5q0 -79 -43 -152q-41 -71 -188 -210l-171 -161h432v-117zM317 1433h140v-859h-130v568 q0 90 6 177q-13 -12 -48 -43q-57 -44 -159 -115l-66 94zM1221 1433l-885 -1433h-140l885 1433h140z"/>
<glyph glyph-name="threequarters" horiz-adv-x="1600" unicode="¾" d="M1291 311v189q0 130 6 203q-10 -24 -43 -71q-3 -5 -29 -44q-18 -28 -25 -39l-163 -238h254zM1553 197h-121v-196h-141v196h-390v98l396 562h135v-546h121v-114zM1380 1419l-877 -1419h-139l877 1419h139zM632 1218q0 -76 -38.5 -126.5t-106.5 -73.5q170 -45 170 -203 q0 -125 -89.5 -194t-251.5 -69q-147 0 -260 55v119q142 -66 262 -66q205 0 205 157q0 141 -225 141h-113v104h115q98 0 147 37t49 105q0 59 -38.5 92.5t-103.5 33.5q-108 0 -227 -76l-67 87q134 96 288 96q133 0 208.5 -57.5t75.5 -161.5z"/>
<glyph glyph-name="questiondown" horiz-adv-x="880" unicode="¿" d="M362 903q0 28 10 49q9 23 26 40q16 16 39 27q21 10 49 10t49 -10q24 -11 40 -27t27 -40q10 -21 10 -49t-10 -49q-11 -24 -27 -40q-17 -17 -40 -26q-21 -10 -49 -10t-49 10q-22 9 -39 26t-26 40q-10 21 -10 49zM761 -137l47 -75q-39 -35 -68 -55q-40 -27 -82 -46 q-46 -21 -96 -32q-55 -11 -112 -11q-80 0 -146 22t-116 63q-47 38 -77 100q-28 57 -28 134q0 75 23 129t57 91q36 39 75 65l76 51q39 26 62 49q24 23 29 57l18 154h121l12 -167q1 -5 1 -15q0 -39 -18 -64q-22 -35 -55 -59q-38 -28 -75 -50q-44 -26 -76 -54q-35 -30 -60 -71 q-24 -40 -24 -101q0 -43 17 -79q15 -32 47 -59q27 -23 68 -37q38 -13 84 -13q61 0 105 15q41 14 74 33q28 17 49 33q18 15 30 15q26 0 38 -23z"/>
<glyph glyph-name="Agrave" horiz-adv-x="1354" unicode="À" d="M310 1852h190q32 0 50 -5t34 -27l228 -274h-128q-22 0 -34 3q-12 1 -28 16zM409 532h535l-225 583q-11 25 -21 60q-20 67 -22 73q-17 -63 -20 -73q-9 -29 -22 -61zM1348 0h-150q-26 0 -42 13t-24 33l-134 346h-643l-134 -346q-6 -18 -23 -32t-42 -14h-150l573 1433h196z "/>
<glyph glyph-name="Aacute" horiz-adv-x="1354" unicode="Á" d="M1055 1852l-326 -286q-16 -14 -29 -17q-14 -3 -34 -3h-128l231 274q16 22 35 27q18 5 50 5h201zM409 532h535l-225 583q-11 25 -21 60q-20 67 -22 73q-17 -63 -20 -73q-9 -29 -22 -61zM1348 0h-150q-26 0 -42 13t-24 33l-134 346h-643l-134 -346q-6 -18 -23 -32t-42 -14 h-150l573 1433h196z"/>
<glyph glyph-name="Acircumflex" horiz-adv-x="1354" unicode="Â" d="M997 1546h-130q-10 0 -28 5t-34 24l-117 141q-4 5 -12 17l-12 -17l-117 -141q-17 -19 -33 -24q-18 -5 -29 -5h-125l239 271h160zM409 532h535l-225 583q-11 25 -21 60q-20 67 -22 73q-17 -63 -20 -73q-9 -29 -22 -61zM1348 0h-150q-26 0 -42 13t-24 33l-134 346h-643 l-134 -346q-6 -18 -23 -32t-42 -14h-150l573 1433h196z"/>
<glyph glyph-name="Atilde" horiz-adv-x="1354" unicode="Ã" d="M802 1663q23 0 41 9q17 8 29 23q12 13 18 32q6 18 6 36h109q0 -43 -12 -82q-11 -39 -35 -70t-58 -49t-78 -18t-80 17t-66 36q-7 4 -27.5 17t-30.5 19q-26 16 -55 16q-23 0 -40 -9q-18 -10 -28 -23q-12 -15 -18 -33t-6 -36h-111q0 44 13 83q11 38 35 71q22 30 57 48t78 18 q46 0 81 -16q36 -16 66 -36t57 -36q28 -17 55 -17zM409 532h535l-225 583q-11 25 -21 60q-20 67 -22 73q-17 -63 -20 -73q-9 -29 -22 -61zM1348 0h-150q-26 0 -42 13t-24 33l-134 346h-643l-134 -346q-6 -18 -23 -32t-42 -14h-150l573 1433h196z"/>
<glyph glyph-name="Adieresis" horiz-adv-x="1354" unicode="Ä" d="M995 1666q0 -22 -9 -41q-9 -20 -24 -35t-35 -23q-19 -9 -42 -9t-43 9q-20 8 -35 23q-15 16 -23 35q-9 19 -9 41q0 23 9 44q8 20 23 35t35 24q19 9 43 9q23 0 42 -9q20 -9 35 -24t24 -35q9 -21 9 -44zM577 1666q0 -22 -9 -41q-9 -20 -24 -35q-17 -16 -36 -23 q-21 -9 -43 -9q-20 0 -40 9q-19 8 -35 23q-15 15 -24 35q-9 19 -9 41q0 23 9 44q9 20 24 35t35 24q19 9 40 9q22 0 43 -9q20 -9 36 -24q15 -15 24 -35q9 -21 9 -44zM409 532h535l-225 583q-11 25 -21 60q-20 67 -22 73q-17 -63 -20 -73q-9 -29 -22 -61zM1348 0h-150 q-26 0 -42 13t-24 33l-134 346h-643l-134 -346q-6 -18 -23 -32t-42 -14h-150l573 1433h196z"/>
<glyph glyph-name="Aring" horiz-adv-x="1354" unicode="Å" d="M576 1697q0 -43 27 -72q27 -28 75 -28q45 0 73 28q27 29 27 72q0 45 -27 73q-28 28 -73 28q-48 0 -75 -28t-27 -73zM487 1697q0 40 16 72q15 33 41 56t59 36t72 13q41 0 74 -13q36 -14 61 -36t42 -56q15 -33 15 -72t-15 -71q-17 -33 -42 -55t-61 -36q-33 -13 -74 -13 q-39 0 -72 13t-59 36t-41 55q-16 31 -16 71zM409 532h535l-225 583q-11 25 -21 60q-20 67 -22 73q-17 -63 -20 -73q-9 -29 -22 -61zM1348 0h-150q-26 0 -42 13t-24 33l-134 346h-643l-134 -346q-6 -18 -23 -32t-42 -14h-150l573 1433h196z"/>
<glyph glyph-name="AE" horiz-adv-x="1861" unicode="Æ" d="M467 532h466l-94 755q-16 -47 -27 -76q-5 -13 -28 -67zM750 1433h1022v-158h-749l59 -476h559v-152h-540l61 -489h611l-1 -158h-772l-49 392h-557l-179 -347q-11 -21 -29 -32q-19 -13 -45 -13h-147z"/>
<glyph glyph-name="Ccedilla" horiz-adv-x="1336" unicode="Ç" d="M662 -253q7 0 14 -4l20 -8q4 -2 27 -8q15 -3 36 -3q41 0 64 17q21 17 21 43q0 38 -42 53q-38 15 -119 26l41 123q-144 9 -259 66t-198 153q-84 98 -127 226q-45 131 -45 285q0 162 51 297q51 134 144 232q90 96 221 151q130 53 285 53q154 0 270 -49q119 -50 206 -133 l-64 -89q-6 -10 -15 -16q-10 -7 -26 -7q-18 0 -44 20q-21 16 -68 43q-44 25 -105 44t-155 19q-110 0 -203 -38q-93 -40 -158 -112q-66 -72 -104 -178q-37 -104 -37 -237q0 -134 39 -239q38 -105 105 -177q66 -74 157 -111q91 -38 195 -38q60 0 116 8t95 23q47 18 81 41 q36 23 74 58q17 15 34 15q16 0 28 -13l77 -83q-82 -94 -195 -150q-116 -57 -272 -64l-18 -61q93 -19 135 -54q41 -35 41 -89q0 -33 -16 -58q-18 -27 -44 -44q-27 -17 -69 -28q-40 -9 -88 -9q-38 0 -78 8q-33 8 -68 23l17 55q6 18 23 18z"/>
<glyph glyph-name="Egrave" horiz-adv-x="1155" unicode="È" d="M270 1852h190q32 0 50 -5t34 -27l228 -274h-128q-22 0 -34 3q-12 1 -28 16zM1066 1433v-158h-689v-476h558v-152h-558v-489h690l-1 -158h-883v1433h883z"/>
<glyph glyph-name="Eacute" horiz-adv-x="1155" unicode="É" d="M1015 1852l-326 -286q-16 -14 -29 -17q-14 -3 -34 -3h-128l231 274q16 22 35 27q18 5 50 5h201zM1066 1433v-158h-689v-476h558v-152h-558v-489h690l-1 -158h-883v1433h883z"/>
<glyph glyph-name="Ecircumflex" horiz-adv-x="1155" unicode="Ê" d="M958 1546h-130q-10 0 -28 5t-34 24l-117 141q-4 5 -12 17l-12 -17l-117 -141q-16 -19 -33 -24q-18 -5 -29 -5h-125l239 271h160zM1066 1433v-158h-689v-476h558v-152h-558v-489h690l-1 -158h-883v1433h883z"/>
<glyph glyph-name="Edieresis" horiz-adv-x="1155" unicode="Ë" d="M956 1666q0 -22 -9 -41q-9 -20 -24 -35t-35 -23q-20 -9 -42 -9q-24 0 -43 9q-19 8 -35 23q-16 16 -23 35q-9 19 -9 41q0 23 9 44q7 20 23 35q15 15 35 24q19 9 43 9q22 0 42 -9t35 -24t24 -35q9 -21 9 -44zM538 1666q0 -22 -9 -41q-9 -20 -24 -35q-17 -16 -36 -23 q-21 -9 -43 -9q-20 0 -40 9q-20 8 -35 23t-24 35q-9 19 -9 41q0 23 9 44q9 20 24 35t35 24q19 9 40 9q22 0 43 -9q19 -9 36 -24q15 -15 24 -35q9 -21 9 -44zM1066 1433v-158h-689v-476h558v-152h-558v-489h690l-1 -158h-883v1433h883z"/>
<glyph glyph-name="Igrave" horiz-adv-x="560" unicode="Ì" d="M-84 1852h190q32 0 50 -5t34 -27l228 -274h-128q-22 0 -34 3q-12 1 -28 16zM377 0h-194v1433h194v-1433z"/>
<glyph glyph-name="Iacute" horiz-adv-x="560" unicode="Í" d="M661 1852l-326 -286q-16 -14 -29 -17q-14 -3 -34 -3h-128l231 274q16 22 35 27q18 5 50 5h201zM377 0h-194v1433h194v-1433z"/>
<glyph glyph-name="Icircumflex" horiz-adv-x="560" unicode="Î" d="M604 1546h-130q-10 0 -28 5t-34 24l-117 141q-4 5 -12 17l-12 -17l-117 -141q-16 -19 -33 -24q-18 -5 -29 -5h-125l239 271h160zM377 0h-194v1433h194v-1433z"/>
<glyph glyph-name="Idieresis" horiz-adv-x="560" unicode="Ï" d="M602 1666q0 -22 -9 -41q-9 -20 -24 -35t-35 -23q-20 -9 -42 -9q-24 0 -43 9q-19 8 -35 23q-16 16 -23 35q-9 19 -9 41q0 23 9 44q7 20 23 35q15 15 35 24q19 9 43 9q22 0 42 -9t35 -24t24 -35q9 -21 9 -44zM184 1666q0 -22 -9 -41q-9 -20 -24 -35q-17 -16 -36 -23 q-21 -9 -43 -9q-21 0 -40 9q-20 8 -35 23t-24 35q-9 19 -9 41q0 23 9 44q9 20 24 35t35 24t40 9q22 0 43 -9q19 -9 36 -24q15 -15 24 -35q9 -21 9 -44zM377 0h-194v1433h194v-1433z"/>
<glyph glyph-name="Eth" horiz-adv-x="1537" unicode="Ð" d="M1242 716q0 132 -36 236t-102 176q-67 73 -160 110q-96 38 -209 38h-341v-496h290v-114h-290v-509h341q113 0 209 38q93 37 160 110q65 70 102 175q36 104 36 236zM3 780h196v653h536q157 0 288 -51q131 -53 223 -146q93 -94 144 -227q51 -132 51 -293t-51 -293 q-51 -131 -144 -226q-93 -94 -223 -145q-129 -52 -288 -52h-536v666h-196v114z"/>
<glyph glyph-name="Ntilde" horiz-adv-x="1527" unicode="Ñ" d="M904 1662q23 0 41 9q17 8 29 23q12 13 18 32q6 18 6 36h109q0 -43 -12 -82q-11 -39 -35 -70t-58 -49t-78 -18t-80 17q-36 16 -66 36q-7 4 -27.5 17t-30.5 19q-26 16 -55 16q-23 0 -40 -9q-18 -10 -28 -23q-12 -15 -18 -33t-6 -36h-111q0 44 13 83q11 38 35 71 q22 30 57 48t78 18q46 0 81 -16q36 -17 66 -36t57 -36q28 -17 55 -17zM183 1433h100q16 0 22 -1t16 -5q6 -4 14 -10q10 -10 15 -17l829 -1079l-3 51q-2 32 -2 46v1015h170v-1433h-97q-22 0 -38 8q-16 7 -31 27l-829 1079q1 -17 3 -49q1 -16 1 -44v-1021h-170v1433z"/>
<glyph glyph-name="Ograve" horiz-adv-x="1601" unicode="Ò" d="M435 1852h190q32 0 50 -5t34 -27l228 -274h-128q-22 0 -34 3q-12 1 -28 16zM1308 716q0 132 -36 237q-36 104 -102 178q-66 72 -160 111t-210 39q-114 0 -209 -39q-94 -39 -160 -111q-67 -73 -103 -178t-36 -237t36 -236q36 -106 103 -177q66 -74 160 -111 q95 -39 209 -39q116 0 210 39q94 37 160 111q66 72 102 177q36 104 36 236zM1507 716q0 -162 -51 -295q-51 -134 -144 -232q-93 -97 -223 -151q-132 -53 -289 -53q-156 0 -288 53q-130 54 -223 151q-93 98 -144 232t-51 295t51 296q52 135 144 232q93 97 223 151t288 54 t289 -54q130 -54 223 -151q92 -97 144 -232q51 -135 51 -296z"/>
<glyph glyph-name="Oacute" horiz-adv-x="1601" unicode="Ó" d="M1180 1852l-326 -286q-16 -14 -29 -17t-34 -3h-128l231 274q16 22 35 27q18 5 50 5h201zM1308 716q0 132 -36 237q-36 104 -102 178q-66 72 -160 111t-210 39q-114 0 -209 -39q-94 -39 -160 -111q-67 -73 -103 -178t-36 -237t36 -236q36 -106 103 -177q66 -74 160 -111 q95 -39 209 -39q116 0 210 39q94 37 160 111q66 72 102 177q36 104 36 236zM1507 716q0 -162 -51 -295q-51 -134 -144 -232q-93 -97 -223 -151q-132 -53 -289 -53q-156 0 -288 53q-130 54 -223 151q-93 98 -144 232t-51 295t51 296q52 135 144 232q93 97 223 151t288 54 t289 -54q130 -54 223 -151q92 -97 144 -232q51 -135 51 -296z"/>
<glyph glyph-name="Ocircumflex" horiz-adv-x="1601" unicode="Ô" d="M1123 1546h-130q-10 0 -28 5t-34 24l-117 141q-4 5 -12 17l-12 -17l-117 -141q-17 -19 -33 -24q-18 -5 -29 -5h-125l239 271h160zM1308 716q0 132 -36 237q-36 104 -102 178q-66 72 -160 111t-210 39q-114 0 -209 -39q-94 -39 -160 -111q-67 -73 -103 -178t-36 -237 t36 -236q36 -106 103 -177q66 -74 160 -111q95 -39 209 -39q116 0 210 39q94 37 160 111q66 72 102 177q36 104 36 236zM1507 716q0 -162 -51 -295q-51 -134 -144 -232q-93 -97 -223 -151q-132 -53 -289 -53q-156 0 -288 53q-130 54 -223 151q-93 98 -144 232t-51 295 t51 296q52 135 144 232q93 97 223 151t288 54t289 -54q130 -54 223 -151q92 -97 144 -232q51 -135 51 -296z"/>
<glyph glyph-name="Otilde" horiz-adv-x="1601" unicode="Õ" d="M928 1663q23 0 41 9q17 8 29 23q12 13 18 32q6 18 6 36h109q0 -43 -12 -82q-11 -39 -35 -70t-58 -49t-78 -18t-80 17t-66 36q-7 4 -27.5 17t-30.5 19q-26 16 -55 16q-23 0 -40 -9q-18 -10 -28 -23q-12 -15 -18 -33t-6 -36h-111q0 44 13 83q11 38 35 71q22 30 57 48t78 18 q46 0 81 -16q36 -16 66 -36t57 -36q28 -17 55 -17zM1308 716q0 132 -36 237q-36 104 -102 178q-66 72 -160 111t-210 39q-114 0 -209 -39q-94 -39 -160 -111q-67 -73 -103 -178t-36 -237t36 -236q36 -106 103 -177q66 -74 160 -111q95 -39 209 -39q116 0 210 39 q94 37 160 111q66 72 102 177q36 104 36 236zM1507 716q0 -162 -51 -295q-51 -134 -144 -232q-93 -97 -223 -151q-132 -53 -289 -53q-156 0 -288 53q-130 54 -223 151q-93 98 -144 232t-51 295t51 296q52 135 144 232q93 97 223 151t288 54t289 -54q130 -54 223 -151 q92 -97 144 -232q51 -135 51 -296z"/>
<glyph glyph-name="Odieresis" horiz-adv-x="1601" unicode="Ö" d="M1121 1666q0 -22 -9 -41q-9 -20 -24 -35t-35 -23q-19 -9 -42 -9t-43 9q-20 8 -35 23q-15 16 -23 35q-9 19 -9 41q0 23 9 44q8 20 23 35t35 24t43 9t42 -9q20 -9 35 -24t24 -35q9 -21 9 -44zM703 1666q0 -22 -9 -41q-9 -20 -24 -35q-17 -16 -36 -23q-21 -9 -43 -9 q-21 0 -40 9q-19 8 -35 23q-15 15 -24 35q-9 19 -9 41q0 23 9 44q9 20 24 35t35 24t40 9q22 0 43 -9q20 -9 36 -24q15 -15 24 -35q9 -21 9 -44zM1308 716q0 132 -36 237q-36 104 -102 178q-66 72 -160 111t-210 39q-114 0 -209 -39q-94 -39 -160 -111q-67 -73 -103 -178 t-36 -237t36 -236q36 -106 103 -177q66 -74 160 -111q95 -39 209 -39q116 0 210 39q94 37 160 111q66 72 102 177q36 104 36 236zM1507 716q0 -162 -51 -295q-51 -134 -144 -232q-93 -97 -223 -151q-132 -53 -289 -53q-156 0 -288 53q-130 54 -223 151q-93 98 -144 232 t-51 295t51 296q52 135 144 232q93 97 223 151t288 54t289 -54q130 -54 223 -151q92 -97 144 -232q51 -135 51 -296z"/>
<glyph glyph-name="multiply" d="M1020 1014l-343 -343l354 -354l-95 -96l-355 354l-356 -356l-95 96l356 356l-345 345l95 96l345 -346l343 344z" unicode="×"/>
<glyph glyph-name="Oslash" horiz-adv-x="1601" unicode="Ø" d="M1308 716q0 125 -32 227q-33 100 -93 172l-655 -892q115 -70 272 -70q116 0 210 39q94 37 160 111q66 72 102 177q36 104 36 236zM292 716q0 -134 38 -240q37 -106 106 -179l659 899q-58 41 -134 64q-74 21 -161 21q-114 0 -209 -39q-94 -39 -160 -111q-67 -73 -103 -178 t-36 -237zM1507 716q0 -162 -51 -295q-51 -134 -144 -232q-93 -97 -223 -151q-132 -53 -289 -53q-108 0 -202 24q-94 25 -173 73l-100 -136q-20 -29 -50 -43q-30 -12 -59 -12h-78l191 260q-111 96 -173 242q-62 145 -62 323q0 161 51 296q52 135 144 232q93 97 223 151 t288 54q113 0 215 -29q99 -28 183 -83l82 111q20 27 36 39q17 11 48 11h100l-172 -235q104 -97 159 -237q56 -141 56 -310z"/>
<glyph glyph-name="Ugrave" horiz-adv-x="1471" unicode="Ù" d="M369 1852h190q32 0 50 -5t34 -27l228 -274h-128q-22 0 -34 3q-12 1 -28 16zM736 154q88 0 159 30q69 29 119 84q49 55 74 129t25 165v871h193v-871q0 -124 -39 -230q-41 -108 -113 -183q-74 -79 -180 -122q-108 -44 -238 -44t-238 44q-106 43 -180 122q-74 77 -113 183 q-40 105 -40 230v871h193v-870q0 -89 26 -165q26 -77 74 -129q48 -54 119 -84q69 -31 159 -31z"/>
<glyph glyph-name="Uacute" horiz-adv-x="1471" unicode="Ú" d="M1114 1852l-326 -286q-16 -14 -29 -17q-14 -3 -34 -3h-128l231 274q16 22 35 27q18 5 50 5h201zM736 154q88 0 159 30q69 29 119 84q49 55 74 129t25 165v871h193v-871q0 -124 -39 -230q-41 -108 -113 -183q-74 -79 -180 -122q-108 -44 -238 -44t-238 44 q-106 43 -180 122q-74 77 -113 183q-40 105 -40 230v871h193v-870q0 -89 26 -165q26 -77 74 -129q48 -54 119 -84q69 -31 159 -31z"/>
<glyph glyph-name="Ucircumflex" horiz-adv-x="1471" unicode="Û" d="M1057 1546h-130q-10 0 -28 5t-34 24l-117 141q-4 5 -12 17l-12 -17l-117 -141q-17 -19 -33 -24q-18 -5 -29 -5h-125l239 271h160zM736 154q88 0 159 30q69 29 119 84q49 55 74 129t25 165v871h193v-871q0 -124 -39 -230q-41 -108 -113 -183q-74 -79 -180 -122 q-108 -44 -238 -44t-238 44q-106 43 -180 122q-74 77 -113 183q-40 105 -40 230v871h193v-870q0 -89 26 -165q26 -77 74 -129q48 -54 119 -84q69 -31 159 -31z"/>
<glyph glyph-name="Udieresis" horiz-adv-x="1471" unicode="Ü" d="M1055 1666q0 -22 -9 -41q-9 -20 -24 -35t-35 -23q-19 -9 -42 -9t-43 9q-20 8 -35 23q-15 16 -23 35q-9 19 -9 41q0 23 9 44q8 20 23 35t35 24t43 9t42 -9q20 -9 35 -24t24 -35q9 -21 9 -44zM637 1666q0 -22 -9 -41q-9 -20 -24 -35q-17 -16 -36 -23q-21 -9 -43 -9 q-21 0 -40 9q-19 8 -35 23q-15 15 -24 35q-9 19 -9 41q0 23 9 44q9 20 24 35t35 24t40 9q22 0 43 -9q20 -9 36 -24q15 -15 24 -35q9 -21 9 -44zM736 154q88 0 159 30q69 29 119 84q49 55 74 129t25 165v871h193v-871q0 -124 -39 -230q-41 -108 -113 -183q-74 -79 -180 -122 q-108 -44 -238 -44t-238 44q-106 43 -180 122q-74 77 -113 183q-40 105 -40 230v871h193v-870q0 -89 26 -165q26 -77 74 -129q48 -54 119 -84q69 -31 159 -31z"/>
<glyph glyph-name="Yacute" horiz-adv-x="1248" unicode="Ý" d="M1004 1852l-326 -286q-16 -14 -29 -17q-14 -3 -34 -3h-128l231 274q16 22 35 27q18 5 50 5h201zM721 571v-571h-194v571l-525 862h170q26 0 41 -12q16 -14 26 -33l328 -557q12 -23 33 -65q20 -46 25 -61q5 15 25 61q12 27 32 65l327 557q10 19 25 31q17 14 41 14h171z "/>
<glyph glyph-name="Thorn" horiz-adv-x="1197" unicode="Þ" d="M376 426h230q84 0 147 22q66 23 107 62q42 38 65 94q22 54 22 121q0 137 -84 214q-86 77 -257 77h-230v-590zM376 272v-272h-193v1433h193v-264h230q138 0 237 -31q100 -31 166 -90q67 -59 99 -140q32 -84 32 -183t-35 -183q-35 -83 -102 -143t-167 -93q-99 -34 -230 -34 h-230z"/>
<glyph glyph-name="germandbls" d="M628 1454q103 0 178 -30t124 -76t73 -102q23 -57 23 -106q0 -60 -21 -103q-22 -42 -54 -76q-30 -32 -69 -58q-53 -36 -70 -49q-34 -26 -53 -49q-22 -25 -22 -58q0 -39 27 -65q26 -26 66 -48q54 -30 87 -46q42 -22 86 -59q39 -33 67 -86q26 -52 26 -129q0 -79 -28 -139 q-28 -61 -78 -103q-47 -41 -118 -65q-69 -23 -146 -23q-95 0 -176 35q-82 35 -140 88l42 68q6 11 19 20q10 7 29 7q18 0 38 -14q28 -19 47 -31q30 -18 65 -31q39 -14 91 -14q42 0 78 14q35 14 60 36q23 20 38 55q13 30 13 69q0 57 -28 91q-31 37 -70 61q-40 25 -91 46 q-49 21 -92 50q-40 27 -70 71q-28 40 -28 107q0 52 23 93q24 42 56 71q32 31 73 58q37 25 73 57q34 31 56 66q22 34 22 83q0 32 -12 65q-15 35 -41 58q-30 27 -72 43q-44 16 -109 16q-68 0 -123 -21q-54 -20 -95 -63q-40 -41 -61 -105q-22 -62 -22 -147v-986h-178v992 q0 102 35 189q34 85 98 146t154 94t200 33z" unicode="ß"/>
<glyph glyph-name="agrave" horiz-adv-x="994" unicode="à" d="M690 246v278q-120 -4 -209 -20q-83 -14 -141 -40q-62 -28 -79 -59q-2 -3 -7 -11t-6 -10.5t-4 -10.5t-3.5 -14.5t-2 -18.5t-2 -27t-0.5 -35q0 -59 13 -86q14 -29 36 -47q23 -20 53 -27q30 -9 65 -9q49 0 86 10q40 9 74 27q31 15 66 43q29 24 61 57zM511 1031q86 0 151 -28 q66 -29 111 -78q45 -50 68 -121q23 -72 23 -156v-648h-79q-27 0 -40 9q-15 10 -22 33l-20 95q-37 -33 -78 -64q-38 -28 -80 -48q-42 -19 -89 -30q-50 -11 -106 -11q-57 0 -111 17q-53 17 -90 49q-38 32 -61 84q-23 51 -23 136q0 75 7 105t26 62q32 54 107 98q70 41 193 71 q116 26 292 31v11q0 118 -51 179q-51 60 -149 60q-68 0 -110 -16q-42 -15 -77 -37q-42 -27 -56 -37q-25 -17 -47 -17q-18 0 -31 10q-12 8 -22 23l-32 57q83 80 181 121q96 40 215 40zM220 1449h169q33 0 49 -10t30 -34l149 -242h-102q-21 0 -34 7q-13 6 -27 21z"/>
<glyph glyph-name="aacute" horiz-adv-x="994" unicode="á" d="M690 246v278q-120 -4 -209 -20q-83 -14 -141 -40q-62 -28 -79 -59q-2 -3 -7 -11t-6 -10.5t-4 -10.5t-3.5 -14.5t-2 -18.5t-2 -27t-0.5 -35q0 -59 13 -86q14 -29 36 -47q23 -20 53 -27q30 -9 65 -9q49 0 86 10q40 9 74 27q31 15 66 43q29 24 61 57zM511 1031q86 0 151 -28 q66 -29 111 -78q45 -50 68 -121q23 -72 23 -156v-648h-79q-27 0 -40 9q-15 10 -22 33l-20 95q-37 -33 -78 -64q-38 -28 -80 -48q-42 -19 -89 -30q-50 -11 -106 -11q-57 0 -111 17q-53 17 -90 49q-38 32 -61 84q-23 51 -23 136q0 75 7 105t26 62q32 54 107 98q70 41 193 71 q116 26 292 31v11q0 118 -51 179q-51 60 -149 60q-68 0 -110 -16q-42 -15 -77 -37q-42 -27 -56 -37q-25 -17 -47 -17q-18 0 -31 10q-12 8 -22 23l-32 57q83 80 181 121q96 40 215 40zM780 1449l-233 -258q-13 -15 -27 -21q-13 -7 -35 -7h-106l148 242q14 23 31 34 q16 10 48 10h174z"/>
<glyph glyph-name="acircumflex" horiz-adv-x="994" unicode="â" d="M690 246v278q-120 -4 -209 -20q-83 -14 -141 -40q-62 -28 -79 -59q-2 -3 -7 -11t-6 -10.5t-4 -10.5t-3.5 -14.5t-2 -18.5t-2 -27t-0.5 -35q0 -59 13 -86q14 -29 36 -47q23 -20 53 -27q30 -9 65 -9q49 0 86 10q40 9 74 27q31 15 66 43q29 24 61 57zM511 1031q86 0 151 -28 q66 -29 111 -78q45 -50 68 -121q23 -72 23 -156v-648h-79q-27 0 -40 9q-15 10 -22 33l-20 95q-37 -33 -78 -64q-38 -28 -80 -48q-42 -19 -89 -30q-50 -11 -106 -11q-57 0 -111 17q-53 17 -90 49q-38 32 -61 84q-23 51 -23 136q0 75 7 105t26 62q32 54 107 98q70 41 193 71 q116 26 292 31v11q0 118 -51 179q-51 60 -149 60q-68 0 -110 -16q-42 -15 -77 -37q-42 -27 -56 -37q-25 -17 -47 -17q-18 0 -31 10q-12 8 -22 23l-32 57q83 80 181 121q96 40 215 40zM795 1169h-119q-13 0 -22 4q-13 5 -23 15l-123 132q-6 6 -8 9q-2 1 -5 5t-4 5 q-8 -11 -16 -19l-124 -132q-20 -19 -45 -19h-123l223 264h166z"/>
<glyph glyph-name="atilde" horiz-adv-x="994" unicode="ã" d="M690 246v278q-120 -4 -209 -20q-83 -14 -141 -40q-62 -28 -79 -59q-2 -3 -7 -11t-6 -10.5t-4 -10.5t-3.5 -14.5t-2 -18.5t-2 -27t-0.5 -35q0 -59 13 -86q14 -29 36 -47q23 -20 53 -27q30 -9 65 -9q49 0 86 10q40 9 74 27q31 15 66 43q29 24 61 57zM511 1031q86 0 151 -28 q66 -29 111 -78q45 -50 68 -121q23 -72 23 -156v-648h-79q-27 0 -40 9q-15 10 -22 33l-20 95q-37 -33 -78 -64q-38 -28 -80 -48q-42 -19 -89 -30q-50 -11 -106 -11q-57 0 -111 17q-53 17 -90 49q-38 32 -61 84q-23 51 -23 136q0 75 7 105t26 62q32 54 107 98q70 41 193 71 q116 26 292 31v11q0 118 -51 179q-51 60 -149 60q-68 0 -110 -16q-42 -15 -77 -37q-42 -27 -56 -37q-25 -17 -47 -17q-18 0 -31 10q-12 8 -22 23l-32 57q83 80 181 121q96 40 215 40zM599 1325q37 0 56 21q18 20 20 65h108q0 -47 -12 -86q-13 -39 -36 -68q-23 -27 -56 -43 q-32 -16 -73 -16q-35 0 -65 15q-24 10 -58 31q-11 6 -29 18t-22 14q-25 14 -47 14q-73 0 -74 -88h-111q0 49 13 88q14 41 37 68t57 44q33 15 72 15q33 0 66 -14q25 -13 57 -32q48 -29 51 -31q23 -15 46 -15z"/>
<glyph glyph-name="adieresis" horiz-adv-x="994" unicode="ä" d="M690 246v278q-120 -4 -209 -20q-83 -14 -141 -40q-62 -28 -79 -59q-2 -3 -7 -11t-6 -10.5t-4 -10.5t-3.5 -14.5t-2 -18.5t-2 -27t-0.5 -35q0 -59 13 -86q14 -29 36 -47q23 -20 53 -27q30 -9 65 -9q49 0 86 10q40 9 74 27q31 15 66 43q29 24 61 57zM511 1031q86 0 151 -28 q66 -29 111 -78q45 -50 68 -121q23 -72 23 -156v-648h-79q-27 0 -40 9q-15 10 -22 33l-20 95q-37 -33 -78 -64q-38 -28 -80 -48q-42 -19 -89 -30q-50 -11 -106 -11q-57 0 -111 17q-53 17 -90 49q-38 32 -61 84q-23 51 -23 136q0 75 7 105t26 62q32 54 107 98q70 41 193 71 q116 26 292 31v11q0 118 -51 179q-51 60 -149 60q-68 0 -110 -16q-42 -15 -77 -37q-42 -27 -56 -37q-25 -17 -47 -17q-18 0 -31 10q-12 8 -22 23l-32 57q83 80 181 121q96 40 215 40zM792 1289q0 -23 -9 -43t-24 -35q-17 -15 -36 -24q-21 -9 -44 -9t-43 9q-21 9 -36 24 t-24 35t-9 43t9 44q9 20 24 37q15 15 36 24q20 9 43 9t44 -9q19 -9 36 -24q15 -17 24 -37q9 -21 9 -44zM411 1289q0 -23 -9 -43q-10 -21 -25 -35q-17 -15 -36 -24q-21 -9 -44 -9t-42 9q-20 9 -35 24q-15 14 -25 35q-9 20 -9 43t9 44t25 37q15 15 35 24q19 9 42 9t44 -9 q19 -9 36 -24q16 -16 25 -37t9 -44z"/>
<glyph glyph-name="aring" horiz-adv-x="994" unicode="å" d="M690 246v278q-120 -4 -209 -20q-83 -14 -141 -40q-62 -28 -79 -59q-2 -3 -7 -11t-6 -10.5t-4 -10.5t-3.5 -14.5t-2 -18.5t-2 -27t-0.5 -35q0 -59 13 -86q14 -29 36 -47q23 -20 53 -27q30 -9 65 -9q49 0 86 10q40 9 74 27q31 15 66 43q29 24 61 57zM511 1031q86 0 151 -28 q66 -29 111 -78q45 -50 68 -121q23 -72 23 -156v-648h-79q-27 0 -40 9q-15 10 -22 33l-20 95q-37 -33 -78 -64q-38 -28 -80 -48q-42 -19 -89 -30q-50 -11 -106 -11q-57 0 -111 17q-53 17 -90 49q-38 32 -61 84q-23 51 -23 136q0 75 7 105t26 62q32 54 107 98q70 41 193 71 q116 26 292 31v11q0 118 -51 179q-51 60 -149 60q-68 0 -110 -16q-42 -15 -77 -37q-42 -27 -56 -37q-25 -17 -47 -17q-18 0 -31 10q-12 8 -22 23l-32 57q83 80 181 121q96 40 215 40zM390 1315q0 -43 27 -72q27 -28 74 -28q45 0 73 28q27 29 27 72q0 45 -27 73 q-28 28 -73 28q-47 0 -74 -28t-27 -73zM290 1315q0 43 16 76q16 34 44 59q27 26 63 39q35 13 76 13q42 0 78 -13q35 -13 64 -39q28 -25 44 -59q16 -33 16 -76q0 -42 -16 -75q-17 -35 -44 -58q-28 -23 -64 -37q-39 -14 -78 -14t-76 14t-63 37q-27 23 -44 58q-16 33 -16 75z "/>
<glyph glyph-name="ae" horiz-adv-x="1610" unicode="æ" d="M1136 898q-60 0 -109 -20q-47 -21 -82 -60q-35 -40 -56 -95q-20 -54 -28 -126h511q0 67 -16 121q-16 55 -46 95q-32 41 -75 63t-99 22zM692 403v83q-117 -4 -209 -22q-89 -18 -141 -46q-55 -29 -78 -64q-25 -35 -25 -78q0 -86 50 -127q49 -40 131 -40q58 0 107 18t86 55 t58 92q21 56 21 129zM1142 1029q81 0 153 -32q71 -31 123 -93q52 -61 82 -148q30 -88 30 -200q0 -41 -8 -55q-8 -15 -33 -15h-630q4 -90 27 -158q22 -67 62 -113q36 -44 91 -67q51 -22 117 -22q68 0 115 15q43 12 77 32q32 19 50 33q20 14 35 14t23 -4q7 -4 14 -13l47 -61 q-34 -41 -76 -69q-42 -29 -93 -49q-46 -18 -103 -28q-50 -10 -105 -10q-118 0 -212 57q-95 55 -151 172q-28 -64 -70 -106t-97 -72q-50 -27 -112 -40q-58 -13 -119 -13q-69 0 -126 18q-56 16 -98 52q-41 33 -64 88q-23 54 -23 125q0 60 33 118q32 56 107 104q72 46 192 76 q118 28 292 33v50q0 118 -51 181t-149 63q-65 0 -110 -17q-46 -19 -77 -39q-32 -20 -56 -38t-47 -18q-18 0 -31 10q-12 8 -22 23l-32 57q83 80 175 121q89 40 203 40q119 0 193 -51q73 -51 106 -142q53 87 141 140q85 51 207 51z"/>
<glyph glyph-name="ccedilla" horiz-adv-x="956" unicode="ç" d="M422 -253q7 0 14 -4q1 -1 5 -2.5t7.5 -3t7.5 -2.5q4 -2 27 -8q15 -3 37 -3q41 0 63 17q21 17 21 43q0 38 -42 53q-38 15 -118 26l41 125q-85 7 -160 47q-75 38 -127 104q-54 66 -84 159t-30 209q0 111 32 209q32 97 92 166t149 108q88 39 203 39q108 0 189 -34 q80 -34 144 -98l-47 -64q-7 -10 -16 -17q-8 -6 -22 -6q-16 0 -33 13q-14 9 -44 27q-24 13 -65 28q-39 12 -95 12q-74 0 -132 -26q-57 -27 -95 -77q-38 -48 -58 -121q-20 -72 -20 -159q0 -93 21 -163q21 -72 60 -120q36 -48 93 -74q55 -26 122 -26q66 0 107 16q42 15 70 34 q32 23 46 35q18 15 36 15q22 0 34 -17l50 -65q-59 -71 -140 -108q-82 -37 -178 -45l-18 -64q93 -19 135 -54q41 -35 41 -89q0 -33 -16 -58q-18 -27 -44 -44q-27 -17 -68 -28q-41 -9 -88 -9q-38 0 -78 8q-36 9 -68 23l16 55q6 18 23 18z"/>
<glyph glyph-name="egrave" horiz-adv-x="1056" unicode="è" d="M560 898q-129 0 -203 -74q-70 -72 -92 -230h554q0 83 -17 137q-18 52 -51 89q-34 37 -82 58q-49 20 -109 20zM556 1029q91 0 169 -30q78 -32 134 -88q57 -61 88 -142q32 -87 32 -216q0 -43 -9 -56q-9 -14 -34 -14h-677q2 -98 26 -167q22 -61 66 -105q35 -36 100 -61 q58 -24 130 -24q68 0 116 16q49 15 83 33q40 21 59 34q23 15 40 15q22 0 34 -17l50 -65q-33 -41 -79 -69q-46 -30 -98 -49q-46 -17 -109 -29q-55 -9 -111 -9q-104 0 -193 36q-88 34 -153 104q-65 68 -101 169q-36 100 -36 232q0 107 33 198q32 93 93 160t149 106 q90 38 198 38zM291 1449h169q33 0 49 -10t30 -34l149 -242h-102q-21 0 -34 7q-14 6 -27 21z"/>
<glyph glyph-name="eacute" horiz-adv-x="1056" unicode="é" d="M560 898q-129 0 -203 -74q-70 -72 -92 -230h554q0 83 -17 137q-18 52 -51 89q-34 37 -82 58q-49 20 -109 20zM556 1029q91 0 169 -30q78 -32 134 -88q57 -61 88 -142q32 -87 32 -216q0 -43 -9 -56q-9 -14 -34 -14h-677q2 -98 26 -167q22 -61 66 -105q35 -36 100 -61 q58 -24 130 -24q68 0 116 16q49 15 83 33q40 21 59 34q23 15 40 15q22 0 34 -17l50 -65q-33 -41 -79 -69q-46 -30 -98 -49q-46 -17 -109 -29q-55 -9 -111 -9q-104 0 -193 36q-88 34 -153 104q-65 68 -101 169q-36 100 -36 232q0 107 33 198q32 93 93 160t149 106 q90 38 198 38zM851 1449l-233 -258q-14 -15 -27 -21q-13 -7 -35 -7h-106l148 242q14 23 31 34q16 10 48 10h174z"/>
<glyph glyph-name="ecircumflex" horiz-adv-x="1056" unicode="ê" d="M560 898q-129 0 -203 -74q-70 -72 -92 -230h554q0 83 -17 137q-18 52 -51 89q-34 37 -82 58q-49 20 -109 20zM556 1029q91 0 169 -30q78 -32 134 -88q57 -61 88 -142q32 -87 32 -216q0 -43 -9 -56q-9 -14 -34 -14h-677q2 -98 26 -167q22 -61 66 -105q35 -36 100 -61 q58 -24 130 -24q68 0 116 16q49 15 83 33q40 21 59 34q23 15 40 15q22 0 34 -17l50 -65q-33 -41 -79 -69q-46 -30 -98 -49q-46 -17 -109 -29q-55 -9 -111 -9q-104 0 -193 36q-88 34 -153 104q-65 68 -101 169q-36 100 -36 232q0 107 33 198q32 93 93 160t149 106 q90 38 198 38zM866 1169h-119q-13 0 -22 4q-13 5 -23 15l-123 132q-6 6 -8 9q-2 1 -5 5t-4 5q-8 -11 -16 -19l-124 -132q-20 -19 -45 -19h-123l223 264h166z"/>
<glyph glyph-name="edieresis" horiz-adv-x="1056" unicode="ë" d="M560 898q-129 0 -203 -74q-70 -72 -92 -230h554q0 83 -17 137q-18 52 -51 89q-34 37 -82 58q-49 20 -109 20zM556 1029q91 0 169 -30q78 -32 134 -88q57 -61 88 -142q32 -87 32 -216q0 -43 -9 -56q-9 -14 -34 -14h-677q2 -98 26 -167q22 -61 66 -105q35 -36 100 -61 q58 -24 130 -24q68 0 116 16q49 15 83 33q40 21 59 34q23 15 40 15q22 0 34 -17l50 -65q-33 -41 -79 -69q-46 -30 -98 -49q-46 -17 -109 -29q-55 -9 -111 -9q-104 0 -193 36q-88 34 -153 104q-65 68 -101 169q-36 100 -36 232q0 107 33 198q32 93 93 160t149 106 q90 38 198 38zM863 1289q0 -23 -9 -43t-24 -35q-16 -15 -36 -24q-21 -9 -44 -9t-43 9q-21 9 -36 24t-24 35t-9 43t9 44q9 20 24 37q15 15 36 24q20 9 43 9t44 -9q20 -9 36 -24q15 -17 24 -37q9 -21 9 -44zM482 1289q0 -23 -9 -43q-10 -21 -25 -35q-16 -15 -36 -24 q-21 -9 -44 -9q-22 0 -42 9t-35 24q-15 14 -25 35q-9 20 -9 43t9 44t25 37q15 15 35 24t42 9q23 0 44 -9q20 -9 36 -24q16 -16 25 -37t9 -44z"/>
<glyph glyph-name="igrave" horiz-adv-x="480" unicode="ì" d="M-24 1449h169q33 0 49 -10t30 -34l149 -242h-102q-21 0 -34 7q-13 6 -27 21zM329 1013v-1013h-179v1013h179z"/>
<glyph glyph-name="iacute" horiz-adv-x="480" unicode="í" d="M536 1449l-233 -258q-13 -15 -27 -21q-13 -7 -35 -7h-106l148 242q14 23 31 34q16 10 48 10h174zM330 1013v-1013h-179v1013h179z"/>
<glyph glyph-name="icircumflex" horiz-adv-x="480" unicode="î" d="M551 1169h-119q-13 0 -22 4q-13 5 -23 15l-123 132q-6 6 -8 9q-2 1 -5 5t-4 5q-8 -11 -16 -19l-124 -132q-20 -19 -45 -19h-123l223 264h166zM329 1013v-1013h-179v1013h179z"/>
<glyph glyph-name="idieresis" horiz-adv-x="480" unicode="ï" d="M514 1289q0 -23 -9 -43t-24 -35q-17 -15 -37 -24q-21 -9 -44 -9q-24 0 -43 9q-21 9 -36 24t-24 35t-9 43t9 44q9 20 24 37q15 15 36 24q20 9 43 9t44 -9q20 -9 37 -24q15 -17 24 -37q9 -21 9 -44zM202 1289q0 -23 -9 -43q-10 -21 -25 -35q-16 -15 -36 -24q-21 -9 -44 -9 q-24 0 -43 9q-20 9 -35 24q-15 14 -25 35q-9 20 -9 43t9 44t25 37q15 15 35 24t43 9t44 -9q20 -9 36 -24q16 -16 25 -37t9 -44zM329 1013v-1013h-179v1013h179z"/>
<glyph glyph-name="eth" horiz-adv-x="1132" unicode="ð" d="M551 125q71 0 129 27q58 28 98 82t63 137q23 85 26 193q-17 44 -42 84t-63 72q-36 30 -86 50q-50 18 -112 18q-76 0 -132 -25q-59 -26 -95 -68q-37 -43 -57 -103q-20 -62 -20 -128q0 -80 23 -144q22 -63 63 -107q39 -42 93 -65t112 -23zM456 1009l-33 56q-12 19 -8 35 q5 18 22 28l103 72q-53 23 -95 37q-51 17 -108 30q-24 8 -37 28q-14 22 -1 57l20 62q98 -17 187 -46q90 -30 171 -78l166 122l35 -57q11 -18 7 -33q-5 -18 -21 -28l-97 -67q61 -51 110 -111q48 -60 84 -139q36 -82 55 -170q19 -91 19 -203q0 -145 -31 -257 q-32 -117 -92 -194q-62 -79 -153 -123q-90 -43 -212 -43q-98 0 -182 33q-84 32 -148 95q-63 61 -99 150t-36 201q0 95 31 178q33 85 89 146q58 62 141 100q81 37 186 37q103 0 190 -43q88 -43 152 -130q-19 136 -78 231t-153 159z"/>
<glyph glyph-name="ntilde" horiz-adv-x="1116" unicode="ñ" d="M674 1325q36 0 56 21q18 20 20 65h108q0 -47 -12 -86q-13 -39 -36 -68q-23 -27 -56 -43q-32 -16 -73 -16q-35 0 -65 15q-24 10 -58 31q-11 6 -29 18t-22 14q-25 14 -47 14q-73 0 -74 -88h-111q0 49 13 88q14 41 37 68t57 44q33 15 72 15q33 0 66 -14q26 -13 57 -32 q48 -29 51 -31q23 -15 46 -15zM141 0v1013h107q38 0 47 -37l14 -110q66 73 148 118q83 45 189 45q82 0 147 -27q62 -28 106 -78q41 -50 64 -122q22 -69 22 -157v-651h-179v651q0 115 -52 179q-52 63 -160 63q-80 0 -148 -38q-67 -37 -126 -103v-746h-179z"/>
<glyph glyph-name="ograve" horiz-adv-x="1134" unicode="ò" d="M300 1449h169q33 0 49 -10t30 -34l149 -242h-102q-21 0 -34 7q-13 6 -27 21zM568 125q150 0 224 101t74 280q0 181 -74 282t-224 101q-75 0 -132 -26q-56 -25 -94 -75t-56 -120q-19 -70 -19 -162q0 -180 75 -280q74 -101 226 -101zM568 1029q113 0 200 -37 q89 -38 152 -105q62 -66 97 -164q33 -97 33 -216q0 -120 -33 -216q-35 -98 -97 -164q-63 -68 -152 -104q-87 -37 -200 -37q-114 0 -201 37q-89 36 -153 104q-63 67 -96 164q-34 95 -34 216q0 120 34 216q33 97 96 164t153 105q87 37 201 37z"/>
<glyph glyph-name="oacute" horiz-adv-x="1134" unicode="ó" d="M860 1449l-233 -258q-13 -15 -27 -21q-13 -7 -35 -7h-106l148 242q14 23 31 34q16 10 48 10h174zM568 125q150 0 224 101t74 280q0 181 -74 282t-224 101q-75 0 -132 -26q-56 -25 -94 -75t-56 -120q-19 -70 -19 -162q0 -180 75 -280q74 -101 226 -101zM568 1029 q113 0 200 -37q89 -38 152 -105q62 -66 97 -164q33 -97 33 -216q0 -120 -33 -216q-35 -98 -97 -164q-63 -68 -152 -104q-87 -37 -200 -37q-114 0 -201 37q-89 36 -153 104q-63 67 -96 164q-34 95 -34 216q0 120 34 216q33 97 96 164t153 105q87 37 201 37z"/>
<glyph glyph-name="ocircumflex" horiz-adv-x="1134" unicode="ô" d="M875 1169h-119q-13 0 -22 4q-13 5 -23 15l-123 132q-6 6 -8 9q-2 1 -5 5t-4 5q-8 -11 -16 -19l-124 -132q-20 -19 -45 -19h-123l223 264h166zM568 125q150 0 224 101t74 280q0 181 -74 282t-224 101q-75 0 -132 -26q-56 -25 -94 -75t-56 -120q-19 -70 -19 -162 q0 -180 75 -280q74 -101 226 -101zM568 1029q113 0 200 -37q89 -38 152 -105q62 -66 97 -164q33 -97 33 -216q0 -120 -33 -216q-35 -98 -97 -164q-63 -68 -152 -104q-87 -37 -200 -37q-114 0 -201 37q-89 36 -153 104q-63 67 -96 164q-34 95 -34 216q0 120 34 216 q33 97 96 164t153 105q87 37 201 37z"/>
<glyph glyph-name="otilde" horiz-adv-x="1134" unicode="õ" d="M679 1325q37 0 56 21q18 20 20 65h108q0 -47 -12 -86q-13 -39 -36 -68q-23 -27 -56 -43q-32 -16 -73 -16q-35 0 -65 15q-24 10 -58 31q-11 6 -29.5 18t-21.5 14q-25 14 -47 14q-73 0 -74 -88h-111q0 49 13 88q14 41 37 68t57 44q33 15 72 15q33 0 66 -14q25 -13 57 -32 q48 -29 51 -31q23 -15 46 -15zM568 125q150 0 224 101t74 280q0 181 -74 282t-224 101q-75 0 -132 -26q-56 -25 -94 -75t-56 -120q-19 -70 -19 -162q0 -180 75 -280q74 -101 226 -101zM568 1029q113 0 200 -37q89 -38 152 -105q62 -66 97 -164q33 -97 33 -216 q0 -120 -33 -216q-35 -98 -97 -164q-63 -68 -152 -104q-87 -37 -200 -37q-114 0 -201 37q-89 36 -153 104q-63 67 -96 164q-34 95 -34 216q0 120 34 216q33 97 96 164t153 105q87 37 201 37z"/>
<glyph glyph-name="odieresis" horiz-adv-x="1134" unicode="ö" d="M872 1289q0 -23 -9 -43t-24 -35q-17 -15 -36 -24q-21 -9 -44 -9t-43 9q-21 9 -36 24t-24 35t-9 43t9 44q9 20 24 37q15 15 36 24q20 9 43 9t44 -9q19 -9 36 -24q15 -17 24 -37q9 -21 9 -44zM491 1289q0 -23 -9 -43q-10 -21 -25 -35q-17 -15 -36 -24q-21 -9 -44 -9t-42 9 q-20 9 -35 24q-15 14 -25 35q-9 20 -9 43t9 44t25 37q15 15 35 24q19 9 42 9t44 -9q19 -9 36 -24q16 -16 25 -37t9 -44zM568 125q150 0 224 101t74 280q0 181 -74 282t-224 101q-75 0 -132 -26q-56 -25 -94 -75t-56 -120q-19 -70 -19 -162q0 -180 75 -280q74 -101 226 -101z M568 1029q113 0 200 -37q89 -38 152 -105q62 -66 97 -164q33 -97 33 -216q0 -120 -33 -216q-35 -98 -97 -164q-63 -68 -152 -104q-87 -37 -200 -37q-114 0 -201 37q-89 36 -153 104q-63 67 -96 164q-34 95 -34 216q0 120 34 216q33 97 96 164t153 105q87 37 201 37z"/>
<glyph glyph-name="divide" d="M454 314q0 28 10 49q9 23 26 40q16 16 40 27q21 10 49 10t49 -10q22 -10 39 -27q16 -16 27 -40q10 -21 10 -49t-10 -49q-11 -24 -27 -40q-17 -17 -39 -26q-21 -10 -49 -10t-49 10q-23 9 -40 26t-26 40q-10 21 -10 49zM454 1026q0 28 10 49q9 23 26 40q16 16 40 27 q21 10 49 10t49 -10q22 -10 39 -27q16 -16 27 -40q10 -21 10 -49t-10 -49q-11 -24 -27 -40q-17 -17 -39 -26q-21 -10 -49 -10t-49 10q-23 9 -40 26t-26 40q-10 21 -10 49zM100 739h959v-135h-959v135z" unicode="÷"/>
<glyph glyph-name="oslash" horiz-adv-x="1133" unicode="ø" d="M568 120q74 0 133 27q55 25 97 76q40 50 59 122q20 72 20 161q0 152 -52 247l-433 -585q70 -48 176 -48zM257 506q0 -159 59 -257l436 590q-74 56 -184 56q-76 0 -134 -27q-57 -26 -97 -77q-40 -49 -60 -122q-20 -75 -20 -163zM1079 1097l-157 -212q62 -70 95 -164 q33 -96 33 -214q0 -120 -33 -216q-35 -98 -97 -164q-63 -68 -152 -104q-87 -37 -200 -37q-75 0 -141 17q-63 16 -120 49l-55 -74q-19 -30 -50 -42q-32 -12 -60 -12h-67l145 196q-67 70 -101 166q-35 99 -35 221q0 120 34 216q33 97 96 164t153 105q87 37 201 37 q81 0 147 -19q69 -20 123 -55l68 92q18 28 35 39t49 11h89z"/>
<glyph glyph-name="ugrave" horiz-adv-x="1115" unicode="ù" d="M309 1013v-646q0 -114 53 -178q52 -63 160 -63q79 0 147 37q69 37 127 103v747h178v-1011l-148 -2q1 12 -6 37l-14 109q-66 -74 -148 -117q-82 -45 -188 -45q-84 0 -146 28q-62 26 -107 77q-42 48 -64 121q-22 69 -22 157v646h178zM289 1449h169q33 0 49 -10t30 -34 l149 -242h-102q-21 0 -34 7q-14 6 -27 21z"/>
<glyph glyph-name="uacute" horiz-adv-x="1115" unicode="ú" d="M309 1013v-646q0 -114 53 -178q52 -63 160 -63q79 0 147 37q69 37 127 103v747h178v-1011l-148 -2q1 12 -6 37l-14 109q-66 -74 -148 -117q-82 -45 -188 -45q-84 0 -146 28q-62 26 -107 77q-42 48 -64 121q-22 69 -22 157v646h178zM849 1449l-233 -258q-14 -15 -27 -21 q-13 -7 -35 -7h-106l148 242q14 23 31 34q16 10 48 10h174z"/>
<glyph glyph-name="ucircumflex" horiz-adv-x="1115" unicode="û" d="M309 1013v-646q0 -114 53 -178q52 -63 160 -63q79 0 147 37q69 37 127 103v747h178v-1011l-148 -2q1 12 -6 37l-14 109q-66 -74 -148 -117q-82 -45 -188 -45q-84 0 -146 28q-62 26 -107 77q-42 48 -64 121q-22 69 -22 157v646h178zM864 1169h-119q-13 0 -22 4 q-13 5 -23 15l-123 132q-6 6 -8 9q-1 1 -4 5t-5 5q-7 -11 -16 -19l-124 -132q-20 -19 -45 -19h-123l223 264h166z"/>
<glyph glyph-name="udieresis" horiz-adv-x="1115" unicode="ü" d="M309 1013v-646q0 -114 53 -178q52 -63 160 -63q79 0 147 37q69 37 127 103v747h178v-1011l-148 -2q1 12 -6 37l-14 109q-66 -74 -148 -117q-82 -45 -188 -45q-84 0 -146 28q-62 26 -107 77q-42 48 -64 121q-22 69 -22 157v646h178zM861 1289q0 -23 -9 -43t-24 -35 q-16 -15 -36 -24q-21 -9 -44 -9q-24 0 -43 9q-21 9 -36 24t-24 35t-9 43t9 44q9 20 24 37q15 15 36 24q20 9 43 9t44 -9q20 -9 36 -24q15 -17 24 -37q9 -21 9 -44zM480 1289q0 -23 -9 -43q-10 -21 -25 -35q-16 -15 -36 -24q-21 -9 -44 -9q-22 0 -42 9t-35 24q-15 14 -25 35 q-9 20 -9 43t9 44t25 37q15 15 35 24t42 9q23 0 44 -9q20 -9 36 -24q16 -16 25 -37t9 -44z"/>
<glyph glyph-name="yacute" horiz-adv-x="1031" unicode="ý" d="M833 1449l-233 -258q-14 -15 -27 -21q-13 -7 -35 -7h-106l148 242q14 23 31 34q16 10 48 10h174zM1015 1013l-565 -1312q-10 -21 -22 -32q-14 -12 -42 -12h-132l185 402l-418 954h154q23 0 37 -11q13 -12 18 -26l271 -638q10 -30 15 -44q8 -22 12 -45q14 45 30 90 l263 637q6 16 21 27q13 10 32 10h141z"/>
<glyph glyph-name="thorn" horiz-adv-x="1121" unicode="þ" d="M593 887q-88 0 -152 -40q-66 -41 -121 -113v-490q48 -66 107 -93q58 -27 130 -27q141 0 218 101q76 100 76 288q0 97 -17 170q-18 71 -51 117q-33 45 -81 66t-109 21zM141 -343v1816h179v-607q66 76 145 119q82 44 186 44q89 0 159 -33q71 -33 121 -98q50 -67 77 -162 q27 -97 27 -223q0 -112 -30 -208q-29 -95 -86 -167q-57 -70 -138 -111t-184 -41q-96 0 -160 35q-67 35 -117 97v-461h-179z"/>
<glyph glyph-name="ydieresis" horiz-adv-x="1031" unicode="ÿ" d="M845 1289q0 -23 -9 -43t-24 -35q-16 -15 -36 -24q-21 -9 -44 -9q-24 0 -43 9q-21 9 -36 24t-24 35t-9 43t9 44q9 20 24 37q15 15 36 24q19 9 43 9q23 0 44 -9q20 -9 36 -24q15 -17 24 -37q9 -21 9 -44zM464 1289q0 -23 -9 -43q-10 -21 -25 -35q-16 -15 -36 -24 q-21 -9 -44 -9q-22 0 -42 9t-35 24q-15 14 -25 35q-9 20 -9 43t9 44t25 37q15 15 35 24t42 9q23 0 44 -9q20 -9 36 -24q16 -16 25 -37t9 -44zM1015 1013l-565 -1312q-10 -21 -22 -32q-14 -12 -42 -12h-132l185 402l-418 954h154q23 0 37 -11q13 -12 18 -26l271 -638 q10 -30 15 -44q8 -22 12 -45q14 45 30 90l263 637q6 16 21 27q13 10 32 10h141z"/>
<glyph glyph-name="OE" horiz-adv-x="2181" unicode="Œ" d="M1209 716q0 130 -32 238q-31 104 -91 179q-60 73 -144 114q-86 39 -189 39q-105 0 -189 -39q-85 -40 -145 -114q-61 -74 -92 -179q-33 -107 -33 -238q0 -132 33 -237q31 -104 92 -179t145 -113q84 -39 189 -39q103 0 189 39q83 39 144 113q61 76 91 179q32 107 32 237z M2091 1433v-158h-688v-476h558v-152h-558v-489h689l-1 -166h-860v247q-84 -120 -211 -187q-128 -66 -288 -66q-141 0 -259 53q-118 54 -201 151q-83 95 -130 231q-46 132 -46 295q0 162 46 296q47 136 130 232q83 97 201 151q117 54 259 54q161 0 288 -67t211 -189v240h860z "/>
<glyph glyph-name="oe" horiz-adv-x="1746" unicode="œ" d="M1274 898q-60 0 -109 -20q-47 -21 -82 -60q-36 -41 -55 -95q-20 -54 -28 -126h507q0 65 -15 121q-16 55 -46 95q-30 41 -73 63t-99 22zM546 125q139 0 207 101t68 280q0 88 -17 162q-16 70 -51 120t-86 75q-54 26 -121 26q-69 0 -123 -26q-51 -25 -86 -75 q-36 -52 -52 -120q-17 -74 -17 -162q0 -180 69 -280q68 -101 209 -101zM1281 1029q80 0 152 -32q69 -31 122 -93q51 -62 81 -148q29 -90 29 -200q0 -41 -8 -55q-7 -15 -33 -15h-626q4 -90 27 -158q23 -69 61 -113q36 -44 91 -67q51 -22 117 -22q62 0 106 16q46 16 76 33 q39 22 55 34q23 15 40 15q21 0 33 -17l51 -65q-33 -40 -76 -70q-43 -28 -93 -48q-43 -17 -103 -29q-53 -9 -105 -9q-118 0 -214 57q-95 58 -151 177q-53 -111 -150 -173q-97 -61 -234 -61q-99 0 -182 36q-81 37 -140 105q-60 69 -91 164q-32 98 -32 216q0 117 32 216 q31 96 92 164q58 67 143 105q81 37 185 37q132 0 226 -60q96 -62 148 -171q25 52 61 95q35 42 83 73t103 47t124 16z"/>
<glyph glyph-name="Ydieresis" horiz-adv-x="1248" unicode="Ÿ" d="M945 1666q0 -22 -9 -41q-9 -20 -24 -35q-16 -15 -35 -23q-19 -9 -42 -9t-43 9q-19 8 -35 23q-15 16 -23 35q-9 19 -9 41q0 23 9 44q8 20 23 35t35 24t43 9t42 -9q20 -9 35 -24t24 -35q9 -21 9 -44zM527 1666q0 -22 -9 -41q-9 -20 -24 -35q-17 -16 -36 -23q-21 -9 -43 -9 q-21 0 -40 9q-19 8 -35 23q-15 15 -24 35q-9 19 -9 41q0 23 9 44q9 20 24 35t35 24q19 9 40 9q22 0 43 -9q20 -9 36 -24q15 -15 24 -35q9 -21 9 -44zM721 571v-571h-194v571l-525 862h170q26 0 41 -12q16 -14 26 -33l328 -557q12 -23 33 -65q20 -46 25 -61q5 15 25 61 q12 27 32 65l327 557q10 19 25 31q17 14 41 14h171z"/>
<glyph glyph-name="circumflex" horiz-adv-x="800" unicode="ˆ" d="M706 1169h-119q-13 0 -22 4q-13 5 -23 15l-123 132q-6 6 -8 9q-2 1 -5 5t-4 5q-8 -11 -16 -19l-124 -132q-20 -19 -45 -19h-123l223 264h166z"/>
<glyph glyph-name="tilde" horiz-adv-x="800" unicode="˜" d="M510 1325q36 0 56 21q18 20 20 65h108q0 -47 -12 -86q-13 -39 -36 -68q-23 -27 -56 -43q-32 -16 -73 -16q-35 0 -65 15q-24 10 -58 31q-11 6 -29.5 18t-21.5 14q-25 14 -47 14q-73 0 -74 -88h-111q0 49 13 88q14 41 37 68t57 44q33 15 72 15q33 0 66 -14q26 -13 57 -32 q48 -29 51 -31q23 -15 46 -15z"/>
<glyph glyph-name="uni2000" horiz-adv-x="1000" unicode=" "/>
<glyph glyph-name="uni2001" horiz-adv-x="1500" unicode=" "/>
<glyph glyph-name="enspace" horiz-adv-x="1000" unicode=" "/>
<glyph glyph-name="uni2003" horiz-adv-x="1500" unicode=" "/>
<glyph glyph-name="uni2004" horiz-adv-x="666" unicode=" "/>
<glyph glyph-name="uni2005" horiz-adv-x="500" unicode=" "/>
<glyph glyph-name="uni2006" horiz-adv-x="333" unicode=" "/>
<glyph glyph-name="uni2007" unicode=" "/>
<glyph glyph-name="uni2008" horiz-adv-x="425" unicode=" "/>
<glyph glyph-name="uni2009" horiz-adv-x="250" unicode=" "/>
<glyph glyph-name="uni200A" horiz-adv-x="125" unicode=" "/>
<glyph glyph-name="zerowidthspace" horiz-adv-x="0" unicode="​"/>
<glyph glyph-name="uni200C" horiz-adv-x="0" unicode="‌" d="M-23 1610h46v-2000h-46v2000z"/>
<glyph glyph-name="uni200D" horiz-adv-x="0" unicode="‍" d="M-61 1692l-130 131l63 64l130 -131l131 131l65 -64l-131 -131l131 -131l-65 -63l-110 109v-1997h-46v1993l-105 -105l-63 63z"/>
<glyph glyph-name="uni200E" horiz-adv-x="0" unicode="‎" d="M354 1667h-331v-2057h-46v2103h376l-109 109l58 58l190 -190l-190 -190l-58 57z"/>
<glyph glyph-name="uni200F" horiz-adv-x="0" unicode="‏" d="M-354 1713h377v-2103h-46v2057h-331l110 -110l-58 -57l-190 190l190 190l58 -58z"/>
<glyph glyph-name="figuredash" horiz-adv-x="1080" unicode="‒" d="M156 655h768v-130h-768v130z"/>
<glyph glyph-name="endash" d="M180 655h800v-130h-800v130z" unicode="–"/>
<glyph glyph-name="emdash" horiz-adv-x="1587" unicode="—" d="M128 655h1330v-130h-1330v130z"/>
<glyph glyph-name="quoteleft" horiz-adv-x="428" unicode="‘" d="M280 993l-110 -43q-42 70 -57 150q-8 39 -8 86q0 40 5 69q12 77 50 148q37 70 101 126l54 -34q14 -9 14 -22q0 -15 -10 -25q-26 -33 -44 -78q-20 -47 -24 -98q-2 -24 -2 -37q0 -38 7 -72q11 -58 41 -108q13 -20 8 -37q-7 -18 -25 -25z"/>
<glyph glyph-name="quoteright" horiz-adv-x="427" unicode="’" d="M154 1485l110 44q42 -71 57 -150q8 -39 8 -87q0 -40 -5 -69q-12 -77 -50 -148q-37 -70 -101 -126l-54 35q-13 7 -13 21q0 15 9 26q25 31 45 78q18 45 24 98q2 24 2 37q0 37 -7 71q-11 55 -42 108q-13 21 -7 38q4 17 24 24z"/>
<glyph glyph-name="quotesinglbase" horiz-adv-x="431" unicode="‚" d="M142 218l110 44q42 -70 57 -150q8 -39 8 -87q0 -40 -5 -69q-12 -77 -50 -148q-37 -70 -101 -126l-54 35q-13 7 -13 20q0 16 9 27q25 31 45 77q18 47 24 98q2 24 2 37q0 38 -7 72q-11 56 -42 108q-13 21 -7 38q4 16 24 24z"/>
<glyph glyph-name="quotedblleft" horiz-adv-x="731" unicode="“" d="M584 993l-110 -43q-42 70 -57 150q-8 39 -8 86q0 40 5 69q12 77 50 148q37 70 101 126l54 -34q14 -9 14 -22q0 -15 -10 -25q-26 -33 -44 -78q-20 -47 -24 -98q-2 -24 -2 -37q0 -38 7 -72q11 -58 41 -108q13 -20 8 -37q-7 -18 -25 -25zM280 993l-110 -43q-42 70 -57 150 q-8 39 -8 86q0 40 5 69q12 77 50 148q37 70 101 126l54 -34q14 -9 14 -22q0 -15 -10 -25q-26 -33 -44 -78q-20 -47 -24 -98q-2 -24 -2 -37q0 -38 7 -72q11 -58 41 -108q13 -20 8 -37q-7 -18 -25 -25z"/>
<glyph glyph-name="quotedblright" horiz-adv-x="731" unicode="”" d="M458 1485l110 44q42 -71 57 -150q8 -39 8 -87q0 -40 -5 -69q-12 -77 -50 -148q-37 -70 -101 -126l-54 35q-15 9 -13 24q2 14 9 23q25 31 45 78q18 45 24 98q2 24 2 37q0 37 -7 71q-11 55 -42 108q-13 21 -7 38q4 17 24 24zM154 1485l110 44q42 -71 57 -150q8 -39 8 -87 q0 -40 -5 -69q-12 -77 -50 -148q-37 -70 -101 -126l-54 35q-13 7 -13 21q0 15 9 26q25 31 45 78q18 45 24 98q2 24 2 37q0 37 -7 71q-11 55 -42 108q-13 21 -7 38q4 17 24 24z"/>
<glyph glyph-name="quotedblbase" horiz-adv-x="735" unicode="„" d="M446 218l110 44q42 -70 57 -150q8 -39 8 -87q0 -40 -5 -69q-12 -77 -50 -148q-37 -70 -101 -126l-54 35q-15 9 -13 23q2 15 9 24q25 31 45 77q18 47 24 98q2 24 2 37q0 38 -7 72q-11 56 -42 108q-13 21 -7 38q4 16 24 24zM142 218l110 44q42 -70 57 -150q8 -39 8 -87 q0 -40 -5 -69q-12 -77 -50 -148q-37 -70 -101 -126l-54 35q-13 7 -13 20q0 16 9 27q25 31 45 77q18 47 24 98q2 24 2 37q0 38 -7 72q-11 56 -42 108q-13 21 -7 38q4 16 24 24z"/>
<glyph glyph-name="bullet" d="M209 595q0 77 30 145q28 67 79 119q50 50 118 80q69 29 143 29q76 0 145 -29q66 -29 118 -80q50 -52 80 -119q29 -69 29 -145q0 -75 -29 -144q-30 -68 -80 -118q-53 -52 -118 -79q-68 -30 -145 -30q-75 0 -143 30q-68 29 -118 79q-51 51 -79 118q-30 67 -30 144z" unicode="•"/>
<glyph glyph-name="ellipsis" horiz-adv-x="1500" unicode="…" d="M625 110q0 28 10 49q9 23 26 40t39 27q21 10 49 10t49 -10q24 -11 40 -27t27 -40q10 -21 10 -49t-10 -49q-11 -24 -27 -40t-40 -27q-22 -9 -49 -9t-49 9q-22 10 -39 27t-26 40q-10 21 -10 49zM1140 110q0 28 10 49q9 23 26 40q16 17 39 27q21 10 49 10t49 -10 q24 -11 40 -27t27 -40q10 -21 10 -49t-10 -49q-11 -24 -27 -40t-40 -27q-23 -9 -49 -9t-49 9q-23 10 -39 27q-17 17 -26 40q-10 21 -10 49zM111 110q0 28 10 49q9 23 26 40t39 27q21 10 49 10t49 -10q24 -11 40 -27t27 -40q10 -21 10 -49t-10 -49q-11 -24 -27 -40t-40 -27 q-22 -9 -49 -9t-49 9q-22 10 -39 27t-26 40q-10 21 -10 49z"/>
<glyph glyph-name="uni202F" horiz-adv-x="500" unicode=" "/>
<glyph glyph-name="guilsinglleft" horiz-adv-x="562" unicode="‹" d="M100 518v23l249 389l58 -28q23 -11 28 -31q1 -3 1 -9q0 -16 -11 -35l-158 -261q-12 -21 -28 -37q14 -13 28 -36l158 -261q11 -19 11 -34q0 -6 -1 -9q-5 -21 -28 -32l-58 -28z"/>
<glyph glyph-name="guilsinglright" horiz-adv-x="563" unicode="›" d="M463 541v-23l-249 -389l-58 28q-22 10 -27 32q-1 3 -1 10q0 17 10 33l158 261q11 17 14 21q9 11 14 15q-16 16 -28 37l-158 261q-10 16 -10 33q0 7 1 11q5 21 27 31l58 28z"/>
<glyph glyph-name="uni205F" horiz-adv-x="400" unicode=" "/>
<glyph glyph-name="Euro" d="M23 899h147q19 124 68 228q46 100 118 173q72 72 162 109q93 38 199 38q69 0 124 -13q58 -14 106 -37q48 -24 89 -59t76 -79l-62 -68q-8 -9 -15 -15q-8 -7 -23 -7q-17 0 -35 19q-22 22 -50 42q-32 23 -79 42t-123 19q-146 0 -242 -100q-98 -101 -129 -292h547v-55 q0 -19 -13 -32q-14 -15 -39 -15h-507q-1 -13 -1 -40q-1 -13 -1 -41v-31q0 -20 1 -30h467v-56q0 -17 -14 -31q-15 -15 -38 -15h-406q29 -206 124 -309q94 -103 241 -103q53 0 95 11q45 12 71 26q32 17 52 35q21 18 37 34q20 20 29 27q11 10 24 10q9 0 15 -3t14 -11l75 -70 q-70 -100 -175 -158q-104 -57 -246 -57q-117 0 -209 40q-93 39 -161 113q-69 73 -112 179q-42 101 -59 236h-142v102h134q-1 10 -1 30v31q0 27 1 41q0 27 1 40h-135v102z" unicode="€"/>
<glyph glyph-name="trademark" horiz-adv-x="1501" unicode="™" d="M574 1433v-105h-180v-487h-125v487h-181v105h486zM819 1412l169 -303q8 -18 11 -26l9 -27q7 23 21 53l169 303q9 12 18 17q7 4 24 4h105v-592h-109v365l8 74l-183 -335q-12 -28 -43 -28h-18q-31 0 -44 28l-184 334l9 -73v-365h-111v592h106q18 0 25 -4q9 -5 18 -17z"/>
<glyph glyph-name="blacksmallsquare" horiz-adv-x="809" unicode="▪" d="M137 943h536v-536h-536v536z"/>
<glyph glyph-name="emdash.case" d="M128 746h1330v-130h-1330v130z" horiz-adv-x="1586"/>
<glyph glyph-name="endash.case" d="M180 746h800v-130h-800v130z"/>
<glyph glyph-name="figuredash.case" d="M156 655h768v-130h-768v130z" horiz-adv-x="1080"/>
<glyph glyph-name="uni2015.case" d="M141 1036h1330v-130h-1330v130z" horiz-adv-x="1612"/>
<glyph glyph-name="hyphen.case" d="M125 766h494v-151h-494v151z" horiz-adv-x="743"/>
<glyph glyph-name="newGlyph.001" horiz-adv-x="600"/>
</font>
</defs>
</svg>
