<?xml version="1.0" encoding="UTF-8" standalone="no"?>
<!DOCTYPE svg  PUBLIC '-//W3C//DTD SVG 1.1//EN'  'http://www.w3.org/Graphics/SVG/1.1/DTD/svg11.dtd'>
<svg xmlns="http://www.w3.org/2000/svg">
<defs>
<font id="Aitu-Black" horiz-adv-x="1160">
<font-face underline-position="44" font-weight="400" descent="-400" panose-1="0 0 5 0 0 0 0 0 0 0" units-per-em="2000" unicode-range="U+000D-FB02" bbox="-534 -390 2126 1917" x-height="1037" underline-thickness="50" font-family="Aitu" ascent="1600" cap-height="1457"/>
<missing-glyph d="M117 80h879v1297h-879v-1297zM40 1457h1043v-1457h-1043v1457zM374 331q0 33 12 62q12 28 34 49t51 33t64 12q33 0 62 -12t51 -33q20 -21 34 -49q12 -28 12 -62q0 -33 -12 -61q-14 -30 -34 -50q-22 -21 -51 -33t-62 -12q-35 0 -64 12t-51 33q-21 20 -34 50q-12 28 -12 61 zM312 1025l-82 127q62 49 140 80q77 31 183 31q76 0 138 -20q59 -20 100 -56q41 -37 62 -87q21 -51 21 -113q0 -56 -13 -95q-14 -43 -32 -69q-19 -27 -43 -50q-29 -26 -46 -39q-20 -16 -39 -35q-17 -17 -23 -38l-27 -90h-212l-22 112q-4 24 -4 33q0 19 6 34q9 27 28 49 q21 23 44 39q22 15 46 36q23 21 36 41q14 23 14 53q0 23 -13 39q-14 15 -49 15q-30 0 -53 -5q-18 -4 -36 -11q-19 -9 -29 -12q-15 -5 -32 -5q-43 0 -63 36z" horiz-adv-x="1123"/>
<glyph glyph-name="fi" horiz-adv-x="1253" unicode="fi" d="M182 0v824h-68q-24 0 -56 25q-22 16 -22 50v136h146v15q0 94 33 178q32 83 100 145q67 61 174 97q105 36 251 36q50 0 93 -4q46 -4 83 -14l-10 -157q-1 -25 -25 -33t-49 -8q-107 0 -172 -16q-70 -17 -107 -47q-39 -31 -55 -79q-16 -45 -16 -108v-5h658v-1035h-310v823 h-338v-823h-310z"/>
<glyph glyph-name="fl" horiz-adv-x="1265" unicode="fl" d="M182 0v824l-68 1q-24 0 -56 25q-22 16 -22 50v135h146v36q0 77 26 155q25 75 80 134q53 58 138 94q85 35 200 35q98 0 185 -6q85 -6 175 -6h174v-1477h-308v1269q-38 1 -98 5q-64 2 -78 2q-95 0 -144 -52q-50 -53 -50 -153v-36h224v-212h-214v-823h-310z"/>
<glyph glyph-name="f_f_i" horiz-adv-x="1917" unicode="ffi" d="M182 0v824h-68q-24 0 -56 25q-22 16 -22 50v136h146v39q0 87 29 162q29 73 82 123q51 50 130 79q77 27 175 27q42 0 70 -4q29 -4 67 -14l-6 -151q-2 -32 -26 -44q-25 -13 -51 -13q-39 0 -73 -8q-31 -7 -53 -28q-22 -19 -33 -53q-11 -36 -11 -85v-30h364v15q0 94 33 178 q32 83 100 145q67 61 174 97q105 36 251 36q50 0 93 -4q46 -4 83 -14l-10 -157q-1 -25 -25 -33t-49 -8q-107 0 -172 -16q-70 -17 -107 -47q-39 -31 -55 -79q-16 -45 -16 -108v-5h658v-1035h-310v823h-338v-823h-310v823h-354v-823h-310z"/>
<glyph glyph-name="f_f_l" horiz-adv-x="1929" unicode="ffl" d="M182 0v824l-68 1q-23 0 -57 25q-21 16 -21 50v135h146v39q0 87 29 162q29 73 82 123q51 50 130 79q77 27 175 27q42 0 70 -4q29 -4 67 -14l-6 -151q-2 -32 -26 -44q-25 -13 -51 -13q-39 0 -73 -8q-31 -7 -53 -28q-22 -19 -33 -53q-11 -36 -11 -85v-30h364v36q0 77 26 155 q25 75 80 134q53 58 138 94q85 35 200 35q81 0 171 -5q72 -5 162 -7h201v-1477h-308v1269q-38 1 -98 5q-64 2 -78 2q-95 0 -144 -52q-50 -53 -50 -153v-36h243v-212h-233v-823h-310v823h-354v-823h-310z"/>
<glyph glyph-name=".notdef" d="M117 80h879v1297h-879v-1297zM40 1457h1043v-1457h-1043v1457zM374 331q0 33 12 62q12 28 34 49t51 33t64 12q33 0 62 -12t51 -33q20 -21 34 -49q12 -28 12 -62q0 -33 -12 -61q-14 -30 -34 -50q-22 -21 -51 -33t-62 -12q-35 0 -64 12t-51 33q-21 20 -34 50q-12 28 -12 61 zM312 1025l-82 127q62 49 140 80q77 31 183 31q76 0 138 -20q59 -20 100 -56q41 -37 62 -87q21 -51 21 -113q0 -56 -13 -95q-14 -43 -32 -69q-19 -27 -43 -50q-29 -26 -46 -39q-20 -16 -39 -35q-17 -17 -23 -38l-27 -90h-212l-22 112q-4 24 -4 33q0 19 6 34q9 27 28 49 q21 23 44 39q22 15 46 36q23 21 36 41q14 23 14 53q0 23 -13 39q-14 15 -49 15q-30 0 -53 -5q-18 -4 -36 -11q-19 -9 -29 -12q-15 -5 -32 -5q-43 0 -63 36z" horiz-adv-x="1123"/>
<glyph glyph-name=".null" horiz-adv-x="0"/>
<glyph glyph-name="nonmarkingreturn" horiz-adv-x="666"/>
<glyph glyph-name="glyph1" horiz-adv-x="0"/>
<glyph glyph-name="glyph1" horiz-adv-x="0"/>
<glyph glyph-name="CR" horiz-adv-x="0" unicode=""/>
<glyph glyph-name="space" horiz-adv-x="462" unicode=" "/>
<glyph glyph-name="exclam" horiz-adv-x="584" unicode="!" d="M114 157q0 34 14 67q14 32 37 54q24 24 55 37q30 13 70 13q39 0 69 -13t56 -37q25 -23 38 -54q13 -30 13 -67t-13 -67q-14 -32 -38 -55q-24 -22 -56 -36q-30 -13 -69 -13q-40 0 -70 13q-33 14 -55 36q-22 21 -37 55q-14 33 -14 67zM438 1457v-572q0 -88 -11 -182 q-9 -82 -29 -185h-210q-20 103 -29 185q-11 94 -11 182v572h290z"/>
<glyph glyph-name="quotedbl" horiz-adv-x="836" unicode='&quot;' d="M753 1457v-286l-28 -158q-9 -53 -32 -82t-76 -29q-44 0 -70 29t-36 82l-28 158v286h270zM353 1457v-286l-28 -158q-9 -53 -32 -82t-76 -29q-44 0 -70 29t-36 82l-28 158v286h270z"/>
<glyph glyph-name="numbersign" d="M468 612l42 236h166l-42 -236h-166zM859 395h198l16 96q4 30 4 41q0 34 -13 53q-19 27 -67 27h-109l42 236h63q66 0 97 22q30 21 39 68l24 126h-194l52 291q4 21 -2 41q-7 20 -19 32q-14 14 -33 21q-21 8 -44 8h-138l-70 -393h-166l70 393h-142q-47 0 -84 -26 q-37 -27 -46 -74l-52 -293h-68q-67 0 -96 -22q-31 -22 -40 -68l-24 -126h199l-42 -236h-177l-16 -96q-4 -30 -4 -41q0 -33 13 -52q19 -28 67 -28h88l-70 -389h50q159 7 176 19q20 15 32 34q13 19 18 49l49 287h165l-48 -272q-4 -25 0 -47q5 -22 18 -39q12 -17 31 -27l3 -2 q0 -3 -259 -5q-200 -2 -350 -3l789 6zM0 0q98 3 165 6h88z" unicode="#"/>
<glyph glyph-name="dollar" d="M389 1068q0 -59 38 -95q36 -36 98 -62l30 302q-49 -8 -77 -20q-32 -13 -51 -33q-20 -20 -29 -42q-9 -24 -9 -50zM813 421q0 57 -36 91q-38 35 -97 57l-32 -330q165 29 165 182zM435 -5q-115 19 -219 66q-106 48 -177 115l96 139q13 17 33 29q20 11 43 11t49 -12 q28 -15 55 -31q24 -15 64 -36q32 -18 80 -31l37 378q-69 19 -143 47q-73 28 -128 73q-58 47 -92 117q-36 70 -36 178q0 78 32 154q31 73 94 135q62 60 151 99q91 38 206 44l11 111q1 27 25 51q22 22 57 22h114l-20 -197q105 -19 186 -64q78 -45 132 -96l-76 -111 q-16 -24 -34 -36t-42 -12q-18 0 -36 7q-24 9 -44 18q-6 3 -23.5 10.5t-27.5 11.5q-31 13 -59 21l-35 -355q48 -13 96 -30q44 -15 93 -38q50 -26 83 -50q40 -30 67 -66q27 -35 44 -87q16 -48 16 -113q0 -94 -32 -178q-31 -81 -94 -148q-59 -62 -152 -104q-91 -41 -206 -50 l-12 -125q-1 -28 -24 -51q-22 -22 -58 -22h-114z" unicode="$"/>
<glyph glyph-name="percent" horiz-adv-x="1672" unicode="%" d="M1366 342q0 47 -8 84q-9 34 -24 53q-16 21 -35 28q-22 8 -45 8t-44 -8q-20 -8 -34 -28q-15 -21 -22 -53q-8 -37 -8 -84q0 -46 8 -80q7 -29 22 -51q13 -19 34 -27t44 -8t45 8q20 8 35 27t24 51q8 34 8 80zM1604 342q0 -79 -29 -146q-28 -67 -77 -114q-49 -49 -111 -74 q-66 -26 -133 -26q-75 0 -139 26q-62 25 -110 74q-48 48 -73 114q-26 67 -26 146q0 82 26 151q25 65 73 115q47 49 110 75q64 26 139 26t141 -26q65 -27 111 -75q47 -48 72 -115q26 -69 26 -151zM126 0l1098 1411q17 19 37 32q23 14 61 14h226l-1098 -1413q-15 -19 -37 -31 q-22 -13 -55 -13h-232zM528 1104q0 48 -8 85q-9 34 -24 53q-16 21 -35 28q-22 8 -45 8t-44 -8q-20 -8 -34 -28q-15 -21 -22 -53q-8 -37 -8 -85q0 -46 8 -80q7 -29 22 -51q13 -19 34 -27t44 -8t45 8q20 8 35 27t24 51q8 34 8 80zM766 1104q0 -79 -29 -146q-29 -66 -77 -113 q-49 -49 -111 -74q-66 -26 -133 -26q-75 0 -139 26q-62 25 -110 74q-48 48 -73 113q-26 67 -26 146q0 82 26 151q25 65 73 115q47 49 110 75q64 26 139 26t141 -26q65 -27 111 -75q47 -48 72 -115q26 -69 26 -151z"/>
<glyph glyph-name="ampersand" horiz-adv-x="1513" unicode="&amp;" d="M737 1118q0 52 -35.5 82.5t-92.5 30.5q-67 0 -104.5 -32t-37.5 -90q0 -88 94 -192q90 50 133 96t43 105zM1503 -4h-373l-114 112q-189 -132 -428 -132q-241 0 -382.5 111t-141.5 300q0 138 60.5 233t204.5 177q-75 86 -108.5 164t-33.5 169q0 151 116 243t308 92 q184 0 294.5 -86t110.5 -229q0 -120 -69 -216.5t-220 -184.5l281 -275q69 114 122 298h315q-77 -284 -240 -486zM579 220q67 0 125 18q55 16 107 49l-335 355q-55 -45 -78 -98q-23 -54 -23 -111q0 -48 15 -87q13 -37 41 -67q26 -27 65 -43q36 -16 83 -16z"/>
<glyph glyph-name="quotesingle" horiz-adv-x="436" unicode="&apos;" d="M353 1457v-286l-28 -158q-9 -53 -32 -82t-76 -29q-44 0 -70 29t-36 82l-28 158v286h270z"/>
<glyph glyph-name="parenleft" horiz-adv-x="562" unicode="(" d="M326 626q0 -98 12 -199q9 -91 34 -197q22 -98 54 -189q32 -93 72 -177q14 -24 15 -43v-9q0 -12 -3 -23q-6 -14 -16 -24q-10 -11 -24 -18l-138 -80q-70 107 -125 228q-51 112 -85 236q-32 115 -49 243q-15 124 -15 252t15 252q17 127 49 244q35 124 85 235q56 124 125 229 l138 -80q14 -8 24 -18t16 -24q3 -10 3 -23v-9q-1 -19 -15 -43q-40 -83 -72 -176q-32 -94 -54 -190q-24 -105 -34 -198q-12 -101 -12 -199z"/>
<glyph glyph-name="parenright" horiz-adv-x="562" unicode=")" d="M236 626q0 94 -11 199q-13 105 -34 198q-20 87 -55 190q-32 93 -72 176q-14 24 -15 43v8q0 15 4 24q4 12 16 24t23 18l138 80q146 -226 210 -465q64 -237 64 -495t-64 -495q-64 -238 -210 -464l-138 80q-11 6 -23 18t-16 24q-4 9 -4 24v8q1 19 15 43q40 84 72 177 q35 100 55 189q22 94 34 197q11 105 11 199z"/>
<glyph glyph-name="asterisk" horiz-adv-x="850" unicode="*" d="M352 815v173q0 20 3 41q1 19 8 37q-27 -27 -63 -47l-146 -85l-72 119l146 85q28 15 38 19q20 7 39 12q-42 8 -77 32l-146 87l72 120l146 -88q5 -3 35 -22q11 -8 29 -26q-12 35 -12 77v175h146v-173q0 -15 -2 -41q-3 -20 -9 -38q18 18 29 26l15 10t19 12l146 86l72 -120 l-146 -85q-26 -14 -39 -19q-19 -8 -39 -12q22 -5 40 -12q6 -3 38 -20l146 -87l-72 -119l-146 87q-13 7 -35 23q-14 9 -30 25q13 -33 13 -77v-175h-146z"/>
<glyph glyph-name="plus" d="M705 1179v-396h370v-222h-370v-398h-252v398h-368v222h368v396h252z" unicode="+"/>
<glyph glyph-name="comma" horiz-adv-x="480" unicode="," d="M67 176q0 32 12 60q12 26 35 48q24 21 53 32q30 12 68 12q45 0 78 -15q32 -16 55 -42q23 -27 33 -61q10 -33 10 -73q0 -52 -16 -106q-18 -61 -47 -114q-29 -52 -79 -112q-45 -54 -108 -100l-54 48q-22 18 -22 44q0 11 7 21q9 14 17 21q4 4 13 13.5t15 15.5q10 10 32 39 q17 24 29 45q14 26 21 53q-33 3 -63 17q-25 12 -47 37q-21 24 -31 53q-11 30 -11 64z"/>
<glyph glyph-name="hyphen" horiz-adv-x="748" unicode="-" d="M104 733h540v-250h-540v250z"/>
<glyph glyph-name="period" horiz-adv-x="478" unicode="." d="M63 157q0 34 14 67q14 32 37 54q24 24 55 37q30 13 70 13q39 0 69 -13t56 -37q25 -23 38 -54q13 -30 13 -67t-13 -67q-14 -32 -38 -55q-24 -22 -56 -36q-30 -13 -69 -13q-40 0 -70 13q-33 14 -55 36q-22 21 -37 55q-14 33 -14 67z"/>
<glyph glyph-name="slash" horiz-adv-x="958" unicode="/" d="M907 1497l-562 -1485q-10 -24 -28 -48q-19 -22 -39 -35q-23 -14 -46 -21q-24 -7 -49 -7h-132l568 1491q19 50 61 78q41 27 95 27h132z"/>
<glyph glyph-name="zero" d="M375 724q0 -265 47 -382q45 -115 162 -115q55 0 97.5 29.5t65.5 86.5q48 118 48 381q0 264 -48 383q-24 57 -66.5 86.5t-96.5 29.5q-55 0 -97.5 -29.5t-64.5 -86.5q-47 -120 -47 -383zM1100 724q0 -380 -125.5 -562t-390.5 -182q-256 0 -384.5 187.5t-128.5 556.5 q0 383 124.5 564.5t388.5 181.5q256 0 386 -189.5t130 -556.5z" unicode="0"/>
<glyph glyph-name="one" horiz-adv-x="908" unicode="1" d="M808 0h-309v846l3 139l5 152q-77 -77 -107 -101l-168 -135l-149 186l471 375h254v-1462z"/>
<glyph glyph-name="two" d="M1101 0h-1016v214l365 369q164 169 212 231q93 121 93 232q0 85 -47 129t-130 44q-150 0 -330 -149l-167 198q103 88 173.5 127t158.5 61q86 20 187 20q136 0 240.5 -49.5t162.5 -139.5q58 -89 58 -205q0 -100 -35 -188t-110 -182q-71 -88 -261 -263l-187 -176v-14h633 v-259z" unicode="2"/>
<glyph glyph-name="three" d="M1042 1124q0 -136 -81.5 -231t-230.5 -131v-6q175 -21 265 -106t90 -228q0 -210 -152 -326t-432 -116q-235 0 -418 78v261q189 -96 385 -96q152 0 224 51.5t72 164.5q0 101 -82.5 144.5t-265.5 43.5h-110v234h112q170 0 246.5 45t76.5 150q0 165 -206 165 q-146 0 -308 -106l-142 211q197 142 472 142q226 0 355.5 -91.5t129.5 -252.5z" unicode="3"/>
<glyph glyph-name="four" d="M655 543v248q0 61 5 179.5t8 137.5h-8q-39 -86 -89 -160l-268 -405h352zM1133 303h-176v-303h-302v303h-624v215l641 944h285v-919h176v-240z" unicode="4"/>
<glyph glyph-name="five" d="M614 934q213 0 338 -119.5t125 -325.5q0 -245 -151 -377t-432 -132q-245 0 -394 79v267q79 -42 184.5 -68.5t198.5 -26.5q283 0 283 232q0 221 -293 221q-112 0 -221 -33l-123 66l55 745h793v-262h-522l-27 -287l35 7q64 14 151 14z" unicode="5"/>
<glyph glyph-name="six" d="M600 223q97 0 149.5 65.5t52.5 187.5q0 107 -49.5 166.5t-146.5 59.5q-92 0 -158 -59.5t-66 -140.5q0 -118 62 -198.5t156 -80.5zM80 611q0 427 180 636.5t542 209.5q124 0 193 -15v-243q-92 19 -174 19q-303 0 -403 -187q-50 -94 -59 -263h13q98 168 313 168 q193 0 302 -121.5t109 -335.5q0 -231 -130.5 -365t-359.5 -134q-160 0 -279 74t-182 216q-65 139 -65 341z" unicode="6"/>
<glyph glyph-name="seven" d="M227 0l549 1200h-721v260h1049v-194l-553 -1266h-324z" unicode="7"/>
<glyph glyph-name="eight" d="M584 1255q-79 0 -127.5 -40.5t-48.5 -108.5q0 -62 39.5 -109t138.5 -96q96 45 136 92.5t40 112.5q0 68 -49.5 108.5t-128.5 40.5zM358 389q0 -86 59.5 -134t164.5 -48q112 0 170.5 48.5t58.5 131.5q0 67 -56.5 125.5t-183.5 124.5q-213 -97 -213 -248zM586 1481 q211 0 339 -96t128 -257q0 -113 -63 -200.5t-199 -155.5q161 -86 234 -181.5t73 -211.5q0 -180 -141 -289.5t-371 -109.5q-241 0 -377.5 102.5t-136.5 288.5q0 127 67.5 223.5t212.5 169.5q-123 77 -179 166.5t-56 199.5q0 157 130 254t339 97z" unicode="8"/>
<glyph glyph-name="nine" d="M569 1231q-97 0 -150.5 -66.5t-53.5 -189.5q0 -108 50 -169t148 -61q93 0 160.5 61t67.5 142q0 120 -63 201.5t-159 81.5zM1098 838q0 -432 -182 -645t-551 -213q-127 0 -197 14v248q84 -21 176 -21q156 0 255.5 46t152.5 143q54 100 61 268h-12q-57 -92 -132.5 -131 t-191.5 -39q-192 0 -301.5 122.5t-109.5 340.5q0 235 133.5 371.5t363.5 136.5q162 0 283.5 -76t186.5 -220q65 -147 65 -345z" unicode="9"/>
<glyph glyph-name="colon" horiz-adv-x="530" unicode=":" d="M89 840q0 34 14 67q14 32 37 54q24 23 55 37q30 13 70 13q39 0 69 -13t56 -37q25 -23 38 -54q13 -30 13 -67t-13 -67q-14 -32 -38 -55q-24 -22 -56 -36q-30 -13 -69 -13q-40 0 -70 13q-33 14 -55 36q-22 21 -37 55q-14 33 -14 67zM89 157q0 34 14 67q14 32 37 54 q24 24 55 37q30 13 70 13q39 0 69 -13t56 -37q25 -23 38 -54q13 -30 13 -67t-13 -67q-14 -32 -38 -55q-24 -22 -56 -36q-30 -13 -69 -13q-40 0 -70 13q-33 14 -55 36q-22 21 -37 55q-14 33 -14 67z"/>
<glyph glyph-name="semicolon" horiz-adv-x="558" unicode=";" d="M100 840q0 34 14 67q14 32 37 54q24 23 55 37q30 13 70 13q39 0 69 -13t56 -37q25 -23 38 -54q13 -30 13 -67t-13 -67q-14 -32 -38 -55q-24 -22 -56 -36q-30 -13 -69 -13q-40 0 -70 13q-33 14 -55 36q-22 21 -37 55q-14 33 -14 67zM108 176q0 32 12 60q12 26 35 48 q24 21 53 32q30 12 68 12q45 0 78 -15q32 -16 55 -42q23 -27 33 -61q10 -33 10 -73q0 -52 -16 -106q-18 -61 -47 -114q-29 -52 -79 -112q-45 -54 -108 -100l-54 48q-22 18 -22 44q0 11 7 21q9 14 17 21q4 4 13 13.5t15 15.5q10 10 32 39q17 24 29 45q14 26 21 53 q-33 3 -63 17q-25 12 -47 37q-21 24 -31 53q-11 30 -11 64z"/>
<glyph glyph-name="less" d="M142 735l810 424v-215q0 -22 -11 -42q-13 -21 -39 -34l-284 -153q-17 -9 -55 -23q-27 -10 -61 -18q29 -7 61 -17q33 -11 55 -22l284 -154q28 -14 39 -32q11 -20 11 -43v-215l-810 423v121z" unicode="&lt;"/>
<glyph glyph-name="equal" d="M125 966h910v-223h-910v223zM125 599h910v-222h-910v222z" unicode="="/>
<glyph glyph-name="greater" d="M1018 614l-810 -423v215q0 24 12 43q10 18 38 32l284 154q22 11 55 22q32 10 61 17q-61 14 -116 41l-284 153q-27 13 -38 34q-12 20 -12 42v215l810 -424v-121z" unicode="&gt;"/>
<glyph glyph-name="question" horiz-adv-x="943" unicode="?" d="M245 157q0 34 14 67q14 32 37 54q24 24 55 37q30 13 70 13q39 0 69 -13t56 -37q25 -23 38 -54q13 -30 13 -67t-13 -67q-14 -32 -38 -55q-24 -22 -56 -36q-30 -13 -69 -13q-40 0 -70 13q-33 14 -55 36q-22 21 -37 55q-14 33 -14 67zM143 1198l-82 126q35 30 81 58 q44 27 93 48q52 21 108 32q60 11 124 11q95 0 170 -25q78 -26 128 -71q53 -47 82 -112q28 -65 28 -146q0 -75 -21 -131t-53 -97q-31 -40 -70 -71q-35 -27 -73 -55q-34 -25 -60 -51t-33 -56l-28 -140h-212l-22 161q-2 10 -2 29q0 32 12 57q18 35 50 66q35 32 70 56 q37 24 73 57q33 28 58 68q23 38 23 89q0 60 -39 96q-41 35 -109 35q-52 0 -88 -11q-35 -10 -61 -24q-9 -5 -24.5 -13.5t-20.5 -11.5q-20 -11 -38 -11q-43 0 -64 37z"/>
<glyph glyph-name="at" horiz-adv-x="1699" unicode="@" d="M791 374q23 0 44 7q20 7 40 24q18 15 35 43q14 26 25 67l70 273q-24 3 -48 3q-49 0 -96 -24q-44 -23 -80 -65t-55 -95q-21 -55 -21 -116q0 -59 23 -88t63 -29zM1195 182q-34 0 -62 7q-31 6 -56 21q-26 13 -48 38q-21 21 -35 57q-59 -65 -125 -94q-63 -28 -140 -28 q-63 0 -114 23q-50 23 -82 62q-34 42 -50 95q-16 54 -16 120q0 55 14 116q15 57 44 114q26 50 73 103q45 48 105 84q62 36 136 56q76 21 170 21q44 0 80 -3q42 -5 67 -10q29 -6 59 -15q49 -19 56 -22l-98 -379q-13 -52 -13 -89q-2 -35 9 -55q9 -22 28 -29q18 -9 44 -9 q36 0 68 26t54 70q24 49 37 106q13 59 13 133q0 126 -37 219t-105 158q-68 64 -165 97t-215 33q-129 0 -237 -48q-107 -48 -186 -131q-77 -83 -121 -195q-44 -114 -44 -239q0 -161 49 -281q47 -120 134 -202t203 -122t254 -40q74 0 146 8q70 10 120 22q47 12 96 31 q36 14 72 34q33 17 56 10q24 -8 34 -35l42 -108q-46 -30 -110 -61q-60 -28 -131 -49q-70 -21 -152 -33q-85 -11 -173 -11q-190 0 -346 58q-157 58 -273 168t-180 264q-65 156 -65 347q0 107 28 206q30 106 80 190q55 92 125 164q73 75 163 130q90 54 195 84t221 30 q99 0 190 -22q95 -23 175 -64q81 -41 152 -103q70 -63 119 -138q49 -78 78 -171q28 -93 28 -200q0 -105 -32 -201q-33 -96 -91 -165q-59 -71 -139 -112q-82 -41 -176 -41z"/>
<glyph glyph-name="A" horiz-adv-x="1422" unicode="A" d="M512 557h398l-134 399q-17 43 -32 90q-23 72 -34 111q-20 -76 -32 -113q-15 -47 -32 -90zM1448 0h-262q-44 0 -71 21q-27 20 -41 52l-86 254h-554l-86 -254q-10 -27 -39 -50t-71 -23h-264l564 1457h346z"/>
<glyph glyph-name="B" horiz-adv-x="1339" unicode="B" d="M479 844h176q53 0 101 8q43 7 77 28q31 19 48 55q16 33 16 88q0 54 -13 87q-13 34 -40 55t-68 30q-42 9 -99 9h-198v-360zM479 618v-363h238q65 0 110 17q41 16 66 44q24 27 33 61q9 35 9 69q0 42 -10 72q-11 32 -36 54q-24 22 -68 34q-42 12 -106 12h-236zM141 0v1457 h536q152 0 257 -28q106 -28 173 -79q66 -50 98 -124q30 -74 30 -163q0 -47 -14 -94q-13 -44 -44 -86q-29 -40 -77 -72q-46 -33 -113 -57q143 -34 213 -113q69 -79 69 -202q0 -93 -36 -173q-37 -81 -105 -139q-71 -60 -172 -93q-101 -34 -233 -34h-582z"/>
<glyph glyph-name="C" horiz-adv-x="1311" unicode="C" d="M1123 377q13 0 24 -4t23 -16l134 -141q-89 -116 -220 -174q-132 -58 -314 -58q-165 0 -297 56q-132 57 -223 157q-91 99 -141 236q-49 135 -49 296q0 162 53 300q52 135 149 235q95 98 230 154q132 55 295 55q79 0 155 -14q75 -16 135 -40q62 -25 116 -62q55 -38 94 -78 l-114 -153q-12 -15 -26 -25q-15 -12 -42 -12q-16 0 -34 8q-13 6 -34 20q-1 1 -39 25q-20 12 -51 25q-36 13 -69 19q-43 8 -93 8q-85 0 -153 -31q-70 -31 -120 -90q-51 -60 -78 -146q-28 -85 -28 -198t31 -199q30 -87 83 -146q52 -60 122 -91q69 -31 150 -31q42 0 84 5 q38 5 71 15q36 11 62 28q28 16 59 44q8 7 26 17q14 6 29 6z"/>
<glyph glyph-name="D" horiz-adv-x="1522" unicode="D" d="M1117 729q0 110 -28 195q-29 88 -80 148q-53 60 -129 93q-78 32 -173 32h-226v-937h226q97 0 173 33q76 31 129 93q51 58 80 147q28 85 28 196zM1463 729q0 -157 -54 -291q-56 -134 -154 -231q-99 -98 -238 -153q-139 -54 -310 -54h-566v1457h566q172 0 310 -55 q140 -56 238 -152q99 -97 154 -230q54 -134 54 -291z"/>
<glyph glyph-name="E" horiz-adv-x="1146" unicode="E" d="M1079 1457v-260h-598v-340h458v-250h-458v-347h598v-260h-938v1457h938z"/>
<glyph glyph-name="F" horiz-adv-x="1133" unicode="F" d="M1079 1457v-260h-598v-369h498v-261h-498v-567h-340v1457h938z"/>
<glyph glyph-name="G" horiz-adv-x="1445" unicode="G" d="M1359 140q-111 -81 -238 -119q-126 -37 -265 -37q-180 0 -327 57q-148 55 -253 156q-105 99 -162 236q-57 136 -57 296q0 163 54 300q53 135 155 235q100 98 243 154q141 55 318 55q91 0 171 -15q79 -15 148 -41q66 -25 123 -62q59 -38 100 -78l-98 -149q-23 -36 -59 -43 q-12 -2 -17 -2q-28 0 -62 20q-41 24 -75 42q-42 19 -73 28q-43 12 -78 16q-45 5 -92 5q-95 0 -171 -33q-78 -35 -129 -95q-55 -63 -83 -146q-29 -87 -29 -191q0 -115 32 -206q31 -89 91 -152q61 -64 140 -94q81 -33 180 -33q62 0 111 12q47 11 96 32v221h-144q-31 0 -50 17 q-18 16 -18 43v186h518v-615z"/>
<glyph glyph-name="H" horiz-adv-x="1554" unicode="H" d="M1413 0h-340v616h-592v-616h-340v1457h340v-609h592v609h340v-1457z"/>
<glyph glyph-name="I" horiz-adv-x="622" unicode="I" d="M481 0h-340v1457h340v-1457z"/>
<glyph glyph-name="J" d="M695 1457h338v-929q0 -122 -30 -222q-32 -102 -92 -171q-61 -72 -155 -111q-90 -40 -216 -40h-1h-2h-8q-60 1 -127 14q-71 14 -137 39q-67 26 -124 61q-58 35 -101 78l100 158q11 15 32 28q20 12 42 12q29 0 61 -19q30 -19 69 -42q40 -24 88 -42q32 -12 75 -17 q42 1 80 14q36 14 60 45q24 32 36 82q12 51 12 126v936z" unicode="J"/>
<glyph glyph-name="K" horiz-adv-x="1413" unicode="K" d="M479 867h54q75 0 108 47l328 476q29 38 63 53q34 14 83 14h294l-432 -589q-46 -61 -99 -88q38 -14 69 -39q32 -26 58 -65l440 -682h-317q-24 0 -28 5t-6 5q-21 4 -36 12q-14 7 -26 19q-10 12 -21 27l-330 507q-18 28 -45 40q-30 11 -75 11h-82v-620h-338v1457h338v-590z "/>
<glyph glyph-name="L" horiz-adv-x="1050" unicode="L" d="M479 270h540v-270h-878v1457h338v-1187z"/>
<glyph glyph-name="M" horiz-adv-x="1920" unicode="M" d="M886 666q13 -25 39 -79q21 -48 35 -84q18 46 36 86q19 44 39 80l374 736q11 19 21 30q11 11 23 15q13 4 30 6q11 1 38 1h258v-1457h-298v838q0 62 6 132l-386 -749q-18 -35 -48 -53q-31 -18 -70 -18h-46q-39 0 -69 18q-30 17 -49 53l-388 750q5 -35 6 -69q2 -46 2 -64 v-838h-298v1457h258q28 0 39 -1q15 -1 29 -6q13 -4 24 -15q8 -8 20 -30z"/>
<glyph glyph-name="N" horiz-adv-x="1554" unicode="N" d="M319 1457q17 0 37 -2q11 -1 27 -7q14 -7 23 -16q16 -16 25 -27l692 -875q-5 42 -6 82q-2 52 -2 74v771h298v-1463l-192 6q-26 -1 -30.5 -1t-9 5.5t-9.5 7.5q-29 15 -53 44l-687 868q4 -50 5 -74q2 -50 2 -69v-781h-298v1457h178z"/>
<glyph glyph-name="O" horiz-adv-x="1629" unicode="O" d="M1225 729q0 110 -28 195q-29 88 -80 146q-53 61 -129 92q-78 32 -173 32q-96 0 -174 -32q-76 -31 -129 -92q-52 -60 -81 -146q-28 -85 -28 -195q0 -111 28 -195q29 -87 81 -147q52 -59 129 -91q78 -32 174 -32q95 0 173 32q77 32 129 91q51 58 80 147q28 84 28 195z M1571 729q0 -157 -54 -294q-55 -136 -154 -236q-100 -102 -238 -158q-139 -57 -310 -57t-310 57q-140 57 -239 158q-100 100 -154 236q-55 135 -55 294t55 294q54 136 154 236q98 99 239 157q140 57 310 57q171 0 310 -57q140 -59 238 -158q99 -100 154 -236 q54 -136 54 -293z"/>
<glyph glyph-name="P" horiz-adv-x="1272" unicode="P" d="M479 742h176q131 0 190 63q58 62 58 176q0 51 -15 91q-15 41 -45 71q-32 29 -77 45t-111 16h-176v-462zM479 487v-487h-338v1457h514q154 0 265 -36q112 -38 182 -101q71 -65 105 -151t34 -188q0 -107 -35 -200q-34 -91 -107 -156t-182 -101q-110 -37 -262 -37h-176z"/>
<glyph glyph-name="Q" horiz-adv-x="1630" unicode="Q" d="M815 264q48 0 86 7l-230 230l382 4l87 -88q33 47 57 117q28 84 28 195q0 110 -28 195q-29 88 -80 146q-53 61 -129 92q-78 32 -173 32q-96 0 -174 -32q-76 -31 -129 -92q-52 -60 -81 -146q-28 -85 -28 -195q0 -111 28 -195q29 -87 81 -147q52 -59 129 -91q78 -32 174 -32 zM1595 -44h-380l-86 87l-4 -2q-139 -57 -310 -57t-310 57q-140 57 -239 158q-100 100 -154 236q-55 135 -55 294t55 294q54 136 154 236q98 99 239 157q140 57 310 57q171 0 310 -57q140 -59 238 -158q99 -100 154 -236q54 -136 54 -293t-54 -294q-55 -136 -154 -236l-4 -4z "/>
<glyph glyph-name="R" horiz-adv-x="1315" unicode="R" d="M479 772h136q69 0 118 18q47 16 79 48t45 73q14 42 14 89q0 96 -62 150q-63 54 -194 54h-136v-432zM479 539v-539h-338v1457h474q156 0 270 -32q113 -34 182 -91q71 -59 102 -137q32 -81 32 -172q0 -73 -19 -134q-21 -66 -56 -116q-37 -53 -92 -96q-56 -42 -126 -69 q34 -16 63 -42t52 -61l310 -507h-306q-85 0 -122 64l-242 423q-16 26 -38 40q-21 12 -60 12h-86z"/>
<glyph glyph-name="S" horiz-adv-x="1108" unicode="S" d="M1030 1318l-84 -157q-15 -25 -31 -36q-16 -12 -43 -12q-24 0 -49 15q-16 8 -60 32q-36 19 -77 33q-45 14 -98 14q-95 0 -141 -40q-47 -41 -47 -110q0 -45 28 -73q30 -30 74 -50q47 -22 104 -38q48 -15 119 -39q61 -23 120 -51q55 -27 104 -74q44 -45 73 -109 q28 -63 28 -156q0 -99 -35 -189q-34 -88 -101 -153q-67 -66 -164 -103q-95 -38 -222 -38q-65 0 -138 14q-66 13 -137 40q-65 25 -124 60q-56 33 -101 78l100 158q12 17 32 29q20 11 42 11q30 0 61 -19q30 -19 69 -42q36 -21 88 -42q48 -19 118 -19q91 0 143 41q51 41 51 128 q0 52 -28 83q-30 33 -73 53q-45 20 -104 37q-49 14 -119 36q-59 19 -119 48q-58 28 -103 75q-46 45 -74 116q-28 68 -28 171q0 82 33 160t97 139q63 60 157 98q93 36 213 36q70 0 131 -10q57 -10 120 -31q61 -22 107 -49q47 -27 88 -65z"/>
<glyph glyph-name="T" horiz-adv-x="1218" unicode="T" d="M1188 1457v-268h-410v-1189h-338v1189h-410v268h1158z"/>
<glyph glyph-name="U" horiz-adv-x="1498" unicode="U" d="M749 267q67 0 122 23q53 23 90 64q38 42 57 103q19 58 19 137v863h338v-863q0 -135 -43 -246t-125 -193q-81 -81 -197 -126t-261 -45q-147 0 -262 45q-116 45 -197 126t-124 193q-43 111 -43 246v863h338v-862q0 -75 20 -137t56 -103q36 -42 91 -65q54 -23 121 -23z"/>
<glyph glyph-name="V" horiz-adv-x="1422" unicode="V" d="M-26 1457h272q43 0 71 -20q27 -21 41 -53l282 -780q20 -51 39 -111t36 -126q12 61 32 126q14 51 37 111l280 780q10 27 40 51q28 22 70 22h274l-584 -1457h-306z"/>
<glyph glyph-name="W" horiz-adv-x="2130" unicode="W" d="M4 1457h284q43 0 74 -20q29 -20 38 -53l200 -760q10 -42 18 -79q10 -47 18 -88q17 89 44 167l236 760q9 28 39 51q28 22 71 22h100q43 0 71 -20q27 -21 41 -53l234 -760q27 -74 44 -159q6 33 17 84q6 34 17 75l200 760q7 28 38 51q29 22 72 22h266l-450 -1457h-306 l-274 903q-17 48 -29 99q-12 -51 -29 -99l-278 -903h-306z"/>
<glyph glyph-name="X" horiz-adv-x="1380" unicode="X" d="M456 749l-451 708h338q31 0 49 -8q15 -9 27 -29l290 -491q4 12 12 25l4 8t5 9t5 8l254 436q13 21 30 32q14 10 38 10h324l-457 -693l467 -758l-349 -6q-22 4 -27 6t-15 10q-22 17 -33 38l-292 510q-7 -20 -18 -38l-272 -472q-15 -22 -33 -37q-20 -17 -49 -17h-316z"/>
<glyph glyph-name="Y" horiz-adv-x="1340" unicode="Y" d="M839 554v-554h-338v554l-528 903h298q44 0 70 -20q25 -21 42 -53l206 -424q33 -65 47 -93q18 -40 36 -86q13 39 35 87q9 21 46 92l204 424q8 14 17 26q10 14 24 24q11 9 31 17q17 6 38 6h300z"/>
<glyph glyph-name="Z" horiz-adv-x="1218" unicode="Z" d="M1174 1457v-122q0 -24 -8 -51q-8 -23 -24 -47l-684 -977h694v-260h-1124v130q0 22 8 46q6 18 22 41l686 980h-660v260h1090z"/>
<glyph glyph-name="bracketleft" horiz-adv-x="641" unicode="[" d="M150 -324v1881h448v-118q0 -31 -22 -53t-58 -22h-110v-1495h110q36 0 58 -22t22 -52v-119h-448z"/>
<glyph glyph-name="backslash" horiz-adv-x="958" unicode="\" d="M51 1497h132q55 0 95 -27q42 -28 61 -78l568 -1491h-132q-26 0 -48 7q-25 7 -46 21q-21 12 -40 35q-17 20 -28 48z"/>
<glyph glyph-name="bracketright" horiz-adv-x="641" unicode="]" d="M43 1557h448v-1881h-448v119q0 29 23 52q22 22 57 22h110v1495h-110q-35 0 -57 22q-23 23 -23 53v118z"/>
<glyph glyph-name="asciicircum" d="M1092 669h-228q-26 0 -45 14t-29 34l-154 336q-17 33 -32 71q-18 44 -25 65q-21 -64 -53 -136l-140 -336q-9 -21 -28 -34q-20 -14 -50 -14h-240l406 788h202z" unicode="^"/>
<glyph glyph-name="underscore" horiz-adv-x="946" unicode="_" d="M867 -108v-194h-788v194h788z"/>
<glyph glyph-name="grave" horiz-adv-x="800" unicode="`" d="M32 1473h290q48 0 70 -15q24 -18 40 -45l136 -245h-176q-36 0 -56 10q-21 9 -44 32z"/>
<glyph glyph-name="a" horiz-adv-x="1035" unicode="a" d="M444 189q60 0 105 21q43 20 91 68v172q-96 -5 -153 -16q-61 -12 -95 -30t-48 -41t-14 -78q0 -53 29 -74q28 -22 85 -22zM800 0h-29h-12t-8 -0.5t-5 1.5t-5.5 3.5t-6.5 7.5q-30 30 -38 50l-22 57q-35 -30 -75 -58q-33 -23 -74 -43q-42 -18 -82 -26q-46 -8 -97 -8 q-70 0 -129 18q-58 19 -98 55q-41 36 -63 90q-22 51 -22 123q0 84 28 141q28 58 97 106q71 48 186 79q117 32 295 36v16q0 92 -37 132t-107 40q-56 0 -90 -12q-36 -12 -62 -27q-28 -15 -54 -27t-62 -12q-32 0 -54 16q-24 17 -36 38l-56 97q97 85 209 124q113 40 245 40 q94 0 170 -30q77 -32 128 -85q51 -54 80 -130q28 -74 28 -164v-648h-142z"/>
<glyph glyph-name="b" horiz-adv-x="1149" unicode="b" d="M597 820q-58 0 -99 -25q-44 -27 -83 -73v-440q34 -38 76 -54q39 -16 83 -16q42 0 81 17q37 16 64 54q26 39 41 99q15 61 15 151q0 75 -11 133q-12 56 -34 89q-21 33 -56 50q-34 15 -77 15zM105 0v1497h310v-571q59 58 131 93q69 34 160 34q88 0 160 -36t123 -102 q51 -67 79 -161q27 -94 27 -210q0 -124 -32 -229q-31 -102 -90 -176q-58 -73 -140 -114q-79 -41 -179 -41q-46 0 -84 9q-34 8 -68 26q-29 15 -56 39q-26 23 -50 50l-11 -52q-8 -32 -26 -44t-48 -12h-206z"/>
<glyph glyph-name="c" horiz-adv-x="973" unicode="c" d="M949 900l-82 -109q-13 -17 -27 -27q-13 -10 -37 -10q-22 0 -41 11q-3 2 -42 25q-22 14 -54 24q-33 11 -77 11q-57 0 -98 -21q-42 -21 -69 -60q-26 -38 -40 -95q-13 -55 -13 -128q0 -150 58 -229q57 -80 158 -80q53 0 86 14q29 12 53 30q39 29 41 30q19 14 46 14 q37 0 56 -27l90 -111q-45 -52 -101 -89q-52 -35 -108 -54q-55 -19 -112 -27q-59 -8 -109 -8q-96 0 -181 36q-88 36 -152 105q-67 68 -104 168q-39 101 -39 228q0 114 34 210q33 97 99 169t162 112q97 41 223 41q123 0 214 -39q93 -40 166 -114z"/>
<glyph glyph-name="d" horiz-adv-x="1149" unicode="d" d="M538 222q35 0 62 7q28 6 50 18q24 13 44 30q23 22 40 42v440q-36 39 -76 55q-40 15 -86 15q-42 0 -79 -17t-62 -54q-27 -37 -42 -98q-15 -60 -15 -145q0 -83 12 -138q12 -57 34 -90q21 -35 51 -50t67 -15zM870 0h-64q-10 2 -14.5 6t-6 8.5t-4 16t-5.5 21.5l-24 79 q-34 -36 -65 -60q-34 -26 -73 -46q-41 -20 -85 -30q-49 -11 -99 -11q-81 0 -150 36t-119 104q-49 67 -78 167q-29 99 -29 224q0 114 32 216q31 96 91 172q60 74 140 113q84 41 181 41q79 0 136 -23q53 -23 100 -62v525h310v-1497h-174z"/>
<glyph glyph-name="e" horiz-adv-x="1078" unicode="e" d="M568 839q-89 0 -139 -50q-44 -45 -66 -172h387q0 63 -9 98q-11 36 -31 63q-23 28 -57 44q-36 17 -85 17zM562 1053q102 0 189 -32q85 -31 147 -93t96 -149t34 -227q0 -34 -3 -57q-3 -20 -11 -35q-8 -14 -21 -18q-15 -5 -35 -5h-598q7 -61 25 -95.5t54 -66.5 q65 -59 165 -59q55 0 93 13q43 15 70 29q11 6 30.5 16t25.5 13q25 13 53 13q36 0 56 -27l90 -111q-47 -54 -103 -89q-55 -35 -114 -54t-117 -27q-62 -8 -112 -8q-110 0 -204 36q-97 35 -167 105q-73 71 -113 174q-42 103 -42 242q0 104 36 197q34 92 102 163q66 70 161 111 q96 41 213 41z"/>
<glyph glyph-name="f" horiz-adv-x="732" unicode="f" d="M182 0v824h-68q-23 0 -57 25q-21 17 -21 50v136h146v59q0 88 29 161t82 123q51 50 130 79q75 28 175 28q42 0 70 -4q33 -5 67 -15l-6 -151q-2 -17 -8 -26q-8 -11 -18 -17q-11 -7 -25 -10t-26 -3q-39 0 -73 -8q-31 -7 -53 -28t-33 -54q-11 -36 -11 -85v-49h243v-212h-233 v-823h-310z"/>
<glyph glyph-name="g" horiz-adv-x="1148" unicode="g" d="M557 251q57 0 97 25q38 24 80 72v411q-36 38 -76 54q-39 16 -86 16q-44 0 -79 -16q-36 -17 -62 -53q-27 -36 -42 -92t-15 -134q0 -150 48 -216q46 -67 135 -67zM1044 1037v-945q0 -94 -38 -178q-38 -82 -108 -141q-70 -58 -172 -93q-100 -33 -227 -33q-75 0 -132 10 q-56 10 -109 29q-51 18 -89 42q-39 24 -69 51l72 115q13 21 31 31q19 11 47 11q27 0 48 -12q12 -6 46 -26q30 -16 59 -26q36 -11 87 -11q59 0 107 17q45 17 77 48q30 30 45 69t15 82v46q-30 -30 -57 -50q-34 -23 -59 -34q-30 -13 -66 -19t-80 -6q-99 0 -174 37 q-78 37 -132 105q-55 68 -83 164q-29 98 -29 214q0 107 32 205q31 94 91 166q59 71 140 111t181 40q45 0 85 -8q37 -7 70 -23q28 -13 58 -35q27 -21 52 -46l13 41q18 52 76 52h192z"/>
<glyph glyph-name="h" horiz-adv-x="1140" unicode="h" d="M105 0v1497h310v-551q55 48 122 78q66 29 156 29q84 0 151 -29q66 -31 110 -82q46 -53 68 -125q23 -75 23 -158v-653h-310v653q0 75 -35 119q-35 42 -103 42q-52 0 -96 -22q-48 -24 -86 -59v-739h-310z"/>
<glyph glyph-name="i" horiz-adv-x="534" unicode="i" d="M454 1321q0 -37 -15 -69t-41 -57t-60 -39q-34 -15 -74 -15q-38 0 -71 15q-32 13 -58 39q-27 26 -40 57q-15 32 -15 69q0 38 15 71q12 30 40 58q26 26 58 39q34 14 71 14q38 0 74 -14q34 -13 60 -39q27 -27 41 -58q15 -33 15 -71zM422 1037v-1037h-310v1037h310z"/>
<glyph glyph-name="j" horiz-adv-x="534" unicode="j" d="M454 1321q0 -37 -15 -69t-41 -57t-60 -39q-34 -15 -74 -15q-38 0 -71 15q-32 13 -58 39q-27 26 -40 57q-15 32 -15 69q0 38 15 71q12 30 40 58q26 26 58 39q34 14 71 14q38 0 74 -14q34 -13 60 -39q27 -27 41 -58q15 -33 15 -71zM422 1037v-1039q0 -74 -18 -138 q-19 -64 -61 -113q-43 -48 -112 -76t-173 -28q-42 0 -71 4t-67 14l10 163q1 20 14 31q11 10 48 10q36 0 59 6q24 6 37 21q13 14 19 40q5 28 5 66v1039h310z"/>
<glyph glyph-name="k" horiz-adv-x="1117" unicode="k" d="M415 1497v-839h46q29 0 44 9q14 7 30 28l196 292q16 23 41 38q23 12 59 12h284l-268 -369q-39 -51 -90 -82q23 -16 42 -39t36 -51l292 -496h-280q-35 0 -60 12q-25 10 -42 40l-196 367q-13 25 -29 33q-14 7 -45 7h-60v-459h-310v1497h310z"/>
<glyph glyph-name="l" horiz-adv-x="520" unicode="l" d="M415 1497v-1497h-310v1497h310z"/>
<glyph glyph-name="m" horiz-adv-x="1702" unicode="m" d="M105 0v1037h192q58 0 76 -52l17 -56q27 29 54 50q29 23 61 39q26 14 70 26q37 9 82 9q95 0 156 -48q62 -50 93 -130q24 45 64 82q36 33 81 55q42 20 92 31q46 10 96 10q88 0 158 -26q69 -27 116 -77q46 -50 70 -124q24 -73 24 -167v-659h-310v659q0 161 -138 161 q-63 0 -104 -41q-42 -42 -42 -120v-659h-310v659q0 88 -35 125q-34 36 -103 36q-42 0 -79 -19q-39 -20 -71 -51v-750h-310z"/>
<glyph glyph-name="n" horiz-adv-x="1140" unicode="n" d="M105 0v1037h192q58 0 76 -52l18 -60q25 24 62 52q33 25 69 41q32 15 79 26q42 9 92 9q84 0 151 -29q66 -31 110 -82q46 -53 68 -125q23 -75 23 -158v-653h-310v653q0 75 -35 119q-35 42 -103 42q-52 0 -96 -22q-48 -24 -86 -59v-739h-310z"/>
<glyph glyph-name="o" horiz-adv-x="1162" unicode="o" d="M583 214q107 0 158 76q50 76 50 229t-50 229q-51 75 -158 75q-110 0 -161 -75t-51 -229t51 -229q51 -76 161 -76zM583 1053q119 0 215 -37q97 -37 167 -106q69 -69 108 -167q38 -100 38 -222q0 -123 -38 -223q-39 -100 -108 -169q-71 -71 -167 -108t-215 -37 q-120 0 -216 37q-97 37 -168 108q-72 71 -109 169q-39 99 -39 223q0 123 39 222q37 97 109 167q70 68 168 106q96 37 216 37z"/>
<glyph glyph-name="p" horiz-adv-x="1150" unicode="p" d="M611 820q-34 0 -61 -6q-30 -8 -51 -19q-25 -13 -44 -30q-27 -27 -40 -43v-440q34 -38 76 -54q39 -16 86 -16q42 0 79 17q35 16 63 55q26 39 41 97q15 60 15 146q0 83 -12 138q-12 57 -33 91q-22 34 -52 49t-67 15zM105 -329v1366h192q58 0 76 -52l23 -76q29 32 65 60 q38 30 74 47q39 20 85 30q47 11 99 11q81 0 150 -36t119 -104q51 -69 79 -166t28 -224q0 -115 -32 -216q-33 -99 -91 -172t-140 -114q-84 -41 -181 -41q-79 0 -136 23q-53 22 -100 62v-398h-310z"/>
<glyph glyph-name="q" horiz-adv-x="1149" unicode="q" d="M538 222q35 0 62 7q28 6 50 18q24 13 44 30q23 22 40 42v440q-36 38 -76 54q-39 16 -86 16q-42 0 -79 -17t-62 -54q-27 -37 -42 -98q-15 -60 -15 -145q0 -83 12 -138q12 -57 34 -90q21 -35 51 -50t67 -15zM1044 1037v-1366h-310v442q-58 -59 -132 -93q-74 -36 -172 -36 q-81 0 -150 36t-119 104q-49 67 -78 167q-29 99 -29 224q0 114 32 216q31 96 91 172q60 74 140 113q84 41 181 41q45 0 85 -8q37 -7 70 -23q30 -14 58 -36q27 -21 52 -46l13 41q18 52 76 52h192z"/>
<glyph glyph-name="r" horiz-adv-x="763" unicode="r" d="M105 0v1037h184q24 0 39 -4q16 -5 26 -12q9 -8 16 -23q4 -11 9 -34l15 -88q49 84 112 133q62 48 143 48q71 0 114 -33l-20 -228q-4 -22 -16 -30q-13 -8 -32 -8q-12 0 -21 1l-27 3q-4 0 -14 1t-14 2q-10 1 -27 1q-68 0 -108 -36q-41 -38 -69 -101v-629h-310z"/>
<glyph glyph-name="s" horiz-adv-x="891" unicode="s" d="M834 919l-70 -109q-12 -20 -25 -27q-14 -8 -35 -8q-23 0 -44 10q-8 3 -23.5 10t-23.5 10q-21 9 -58 21q-32 9 -73 9q-59 0 -90 -22q-32 -23 -32 -63q0 -28 21 -48q19 -20 54 -33q33 -14 77 -28q58 -18 88 -29q47 -17 88 -37q44 -23 77 -53t55 -77q20 -46 20 -108 q0 -79 -28 -142q-30 -67 -83 -112q-57 -48 -137 -73q-84 -26 -188 -26q-56 0 -106 10q-52 10 -102 27q-49 16 -92 41q-41 22 -72 50l72 114q13 21 31 32q19 11 47 11q26 0 49 -12q39 -22 46 -26q30 -16 59 -26q33 -12 84 -12q34 0 61 8q26 8 40 20q15 13 22 29q7 15 7 33 q0 31 -21 51q-22 21 -55 35q-38 15 -77 27q-51 14 -89 28q-43 16 -88 39q-44 23 -78 57t-55 84t-21 121q0 65 26 126q26 60 76 104q51 45 128 72q78 26 180 26q59 0 109 -10q53 -11 98 -28q47 -18 84 -42q41 -28 67 -54z"/>
<glyph glyph-name="t" horiz-adv-x="768" unicode="t" d="M476 -16q-76 0 -130 22q-58 22 -95 61q-39 40 -59 95q-20 57 -20 125v536h-88q-25 0 -41 16q-17 15 -17 45v153h165l1 253q0 24 19 36t49 12h222v-303h257v-212h-257v-515q0 -36 18 -59q16 -24 50 -24q18 0 29 4q9 3 20 8q3 1 8 4t8 4q7 3 17 3q14 0 23 -6q9 -9 17 -21 l94 -147q-59 -44 -135 -67q-72 -23 -155 -23z"/>
<glyph glyph-name="u" horiz-adv-x="1140" unicode="u" d="M405 1037v-658q0 -76 35 -119q34 -42 103 -42q51 0 96 21q43 21 86 59v739h310v-1037h-192q-58 0 -76 52l-19 60q-33 -31 -62 -52q-29 -22 -68 -40q-38 -17 -79 -27q-42 -9 -92 -9q-85 0 -150 30q-65 28 -111 82q-46 53 -68 125q-23 74 -23 158v658h310z"/>
<glyph glyph-name="v" horiz-adv-x="1078" unicode="v" d="M680 0h-282l-402 1037h258q34 0 56 -15q22 -16 30 -39l144 -465q17 -49 34 -111q18 -72 25 -108q9 48 26 108q13 46 35 111l150 465q8 23 30 39q22 15 52 15h246z"/>
<glyph glyph-name="w" horiz-adv-x="1636" unicode="w" d="M5 1037h248q33 0 56 -15q23 -16 30 -39l104 -465q7 -26 23 -103q12 -66 17 -99q9 33 29 99q9 33 31 103l130 466q7 22 30 39q23 15 52 15h138q33 0 56 -15q23 -17 30 -39l124 -466q20 -70 29 -103t27 -101q6 36 19 100q6 26 25 104l110 465q7 23 30 39q23 15 52 15h236 l-322 -1043l-139 5q-134 1 -147 13q-15 13 -22 40l-148 517q-14 46 -19 69q-7 28 -16 68l-15 -69q-8 -30 -20 -70l-150 -515q-15 -52 -66 -52h-240z"/>
<glyph glyph-name="x" horiz-adv-x="1088" unicode="x" d="M339 536l-334 501h298q31 0 49 -8q15 -9 27 -29l185 -307q11 34 35 71l132 231q13 21 30 32q14 10 38 10h284l-334 -487l348 -550h-298q-34 0 -53 16q-22 17 -33 38l-185 318q-10 -34 -27 -60l-152 -258q-15 -22 -33 -37q-20 -17 -49 -17h-276z"/>
<glyph glyph-name="y" horiz-adv-x="1076" unicode="y" d="M1090 1037l-554 -1306q-13 -30 -34 -46q-20 -14 -64 -14h-232l200 420l-414 946h274q37 0 56 -16t28 -38l170 -447q23 -60 39 -124q17 50 22 64q4 13 23 62l154 445q9 22 32 39q22 15 50 15h250z"/>
<glyph glyph-name="z" horiz-adv-x="932" unicode="z" d="M876 1037v-124q0 -31 -11 -62q-10 -28 -29 -49l-433 -572h463v-230h-820v126q0 21 10 48q10 28 30 54l437 579h-449v230h802z"/>
<glyph glyph-name="braceleft" horiz-adv-x="621" unicode="{" d="M152 397q0 59 -23 97q-22 36 -83 36v173q31 0 50 10q22 11 33 28q12 17 18 42q5 27 5 53q0 39 -5 89q-8 60 -13 90q-8 46 -12 91q-6 46 -6 92q0 80 24 148q22 65 73 113q52 49 125 73q75 25 182 25h52v-134q0 -17 -7 -27q-9 -12 -17 -18q-9 -7 -21 -10q-9 -4 -19 -4 q-64 0 -92 -39q-30 -39 -30 -108q0 -49 5 -104q4 -44 9 -94q2 -17 5.5 -47.5t4.5 -42.5q4 -39 4 -89q0 -40 -10 -73q-11 -36 -30 -64q-20 -29 -51 -52t-69 -35q40 -12 69 -34q30 -22 51 -51q19 -30 30 -65q10 -34 10 -73q0 -50 -4 -89q-1 -13 -4.5 -43t-5.5 -46 q-6 -62 -9 -95q-5 -55 -5 -104q0 -69 30 -108q28 -39 92 -39q10 0 19 -4q12 -3 21 -10q8 -6 17 -18q7 -10 7 -27v-134h-52q-107 0 -182 25q-73 24 -125 73q-51 49 -73 114q-24 66 -24 147q0 45 6 92q4 45 12 91q5 30 13 90q5 50 5 89z"/>
<glyph glyph-name="bar" horiz-adv-x="540" unicode="|" d="M150 1557h240v-1897h-240v1897z"/>
<glyph glyph-name="braceright" horiz-adv-x="621" unicode="}" d="M469 397q0 -44 6 -89q5 -45 12 -90q6 -33 13 -91q5 -52 5 -92q0 -80 -23 -147q-24 -67 -73 -114q-51 -48 -126 -73t-182 -25h-52v134q0 17 7 27q9 12 17 18q9 7 21 10q9 4 19 4q63 0 93 39q29 40 29 108q0 60 -4 104l-5.5 49.5t-4.5 45.5q-6 60 -9 89q-5 48 -5 89 q0 39 10 73q11 37 31 65q19 28 50 51q27 21 68 34q-39 12 -68 35q-32 24 -50 52q-20 27 -31 64q-10 33 -10 73q0 41 5 89q4 43 9 90q1 12 4.5 44t5.5 50q4 44 4 104q0 68 -29 108q-30 39 -93 39q-10 0 -19 4q-12 3 -21 10q-8 6 -17 18q-7 10 -7 27v134h52q107 0 182 -25 t126 -73q48 -46 73 -113q23 -69 23 -148q0 -40 -5 -92q-7 -58 -13 -91q-7 -45 -12 -90q-6 -45 -6 -89q0 -29 6 -53q4 -25 17 -42q12 -17 33 -28q19 -10 50 -10v-173q-61 0 -83 -36q-23 -38 -23 -97z"/>
<glyph glyph-name="asciitilde" d="M733 677q49 0 74 31q26 32 26 91h250q0 -87 -22 -153q-23 -68 -65 -115q-42 -48 -103 -73q-63 -26 -140 -26q-53 0 -99 12q-43 10 -87 26q-18 6 -73 26q-36 11 -61 11q-49 0 -74 -31q-26 -32 -26 -91h-250q0 84 23 153t64 116q43 48 104 73q60 25 139 25q51 0 100 -11 q35 -9 86 -26q53 -20 74 -26q33 -12 60 -12z" unicode="~"/>
<glyph glyph-name="exclamdown" horiz-adv-x="573" unicode="¡" d="M109 882q0 35 14 68q14 32 37 54q22 22 55 36q30 13 70 13q39 0 69 -13q32 -14 56 -36q25 -23 38 -54q13 -30 13 -68q0 -37 -13 -67q-13 -31 -38 -54q-24 -22 -56 -36q-33 -14 -69 -14q-37 0 -70 14t-55 36q-23 22 -37 54q-14 33 -14 67zM143 -329v527q0 87 11 183 q10 84 29 184h210q19 -100 29 -184q11 -96 11 -183v-527h-290z"/>
<glyph glyph-name="cent" d="M405 519q0 -109 33 -179q33 -71 96 -104l59 584q-98 -20 -143 -98t-45 -203zM509 -6q-88 17 -161 58q-75 42 -130 109q-56 68 -87 157q-32 91 -32 201t34 203q33 94 99 165t163 114q95 43 222 49l14 140q3 28 25 50q23 23 57 23h114l-23 -227q75 -16 138 -51 q64 -35 117 -85l-80 -105q-13 -18 -25 -26q-14 -9 -37 -9q-14 0 -29 5q-5 2 -30 13q-22 10 -35 16q-39 15 -42 16l-61 -598q42 6 72 20q33 16 52 27q15 9 41 23q19 10 42 10q19 0 33 -7q14 -8 23 -18l86 -107q-42 -45 -84 -74q-44 -31 -92 -51q-49 -22 -96 -32 q-49 -10 -100 -15l-12 -126q-3 -28 -25 -50q-23 -23 -57 -23h-114z" unicode="¢"/>
<glyph glyph-name="sterling" d="M27 589v96q0 39 26 70q26 29 76 29h84v216q0 94 29 181q28 85 89 150q59 65 149 104q90 38 211 38q79 0 147 -20q64 -21 117 -57q53 -39 90 -86q40 -50 68 -107l-124 -78q-37 -19 -71 -19h-10q-39 1 -73 37q-36 38 -69 58q-31 19 -75 19q-81 0 -120 -56q-40 -56 -40 -163 v-217h380v-118q0 -14 -6 -28q-9 -16 -18 -25q-13 -11 -27 -17q-15 -7 -35 -7h-294v-156q0 -61 -22 -108q-21 -46 -61 -91q40 9 90 16q50 5 91 5h502v-127q0 -22 -9 -45q-11 -24 -27 -41q-7 -8 -47 -12.5t-279.5 -12.5t-723.5 -16v185q34 6 64 19q31 14 53 33q24 21 37 48 q14 30 14 65v238h-186zM45 0v1q-8 0 -22.5 -0.5t-22.5 -0.5h45zM45 0l954 -2h-954v2z" unicode="£"/>
<glyph glyph-name="currency" d="M428 674q0 -32 12 -61t33 -51q19 -22 48 -34q26 -13 59 -13t60 13q28 12 49 34t33 51t12 61q0 34 -12 63t-33 51q-20 21 -49 35q-28 12 -60 12t-59 -12q-30 -14 -48 -35q-21 -22 -33 -51t-12 -63zM200 674q0 49 12 94q10 42 32 85l-154 153l156 148l150 -148q39 22 87 34 q46 12 97 12q46 0 93 -11q43 -12 84 -33l153 152l154 -150l-153 -151q23 -41 36 -87q13 -45 13 -98q0 -47 -11 -94q-12 -46 -34 -85l155 -152l-156 -149l-151 148q-39 -22 -87 -34q-46 -12 -96 -12q-46 0 -92 11q-40 9 -85 31l-153 -150l-154 150l152 150q-23 41 -35 88 q-13 45 -13 98z" unicode="¤"/>
<glyph glyph-name="yen" d="M125 639h248l-390 818h258q45 0 71 -19q28 -20 41 -54l166 -425q14 -33 38 -98q16 -49 26 -89q17 87 60 187l164 425q12 29 40 51t70 22h260l-391 -818h249v-165h-300v-88h300v-165h-300v-221h-310v221h-300v165h300v88h-300v165z" unicode="¥"/>
<glyph glyph-name="brokenbar" horiz-adv-x="546" unicode="¦" d="M153 490h240v-819h-240v819zM153 1557h240v-819h-240v819z"/>
<glyph glyph-name="section" horiz-adv-x="1023" unicode="§" d="M351 724q0 -36 24 -61q25 -27 63 -47q32 -19 89 -41q49 -19 102 -42q27 16 40 41q12 24 12 51q0 37 -24 62q-23 24 -63 46q-37 20 -88 40q-54 21 -101 42q-30 -20 -41 -40q-13 -22 -13 -51zM905 1337l-70 -109q-11 -18 -25 -26t-35 -8t-44 9q-16 6 -47 21q-27 11 -58 20 t-73 9q-72 0 -107 -27t-35 -69q0 -26 23 -47q20 -19 61 -40q30 -15 87 -38q77 -31 99 -41q53 -23 100 -49q48 -27 86 -62q40 -38 61 -82q23 -48 23 -105q0 -81 -37 -146q-38 -68 -119 -109q43 -37 70 -85q26 -50 26 -117q0 -79 -28 -142q-30 -67 -83 -112q-57 -48 -137 -73 q-84 -26 -188 -26q-56 0 -106 10q-53 11 -102 27t-92 41q-41 22 -72 50l72 114q13 21 31 32q19 11 47 11q27 0 49 -12q28 -16 48 -26q27 -14 62 -26q34 -12 91 -12q65 0 102 24q36 22 36 70q0 37 -23 63q-24 25 -62 45q-43 22 -87 37q-25 8 -100 37q-49 19 -100 45t-87 61 q-39 36 -61 84q-24 50 -24 117q0 78 39 141t119 101q-45 42 -71 94q-27 54 -27 132q0 65 26 126q26 60 76 104q51 45 128 72q78 26 180 26q59 0 109 -10q53 -11 98 -28q46 -18 84 -42q41 -28 67 -54z"/>
<glyph glyph-name="dieresis" horiz-adv-x="800" unicode="¨" d="M774 1295q0 -31 -12 -60q-14 -30 -35 -48q-23 -21 -51 -33q-30 -12 -64 -12t-62 12t-51 33q-22 19 -34 48q-13 27 -13 60q0 35 13 62q12 29 34 51q21 20 51 34q29 12 62 12q34 0 64 -12q30 -14 51 -34q21 -21 35 -51q12 -29 12 -62zM348 1295q0 -33 -13 -60 q-14 -30 -35 -48q-22 -20 -52 -33q-30 -12 -64 -12q-32 0 -60 12q-29 12 -50 33q-21 18 -35 48q-13 27 -13 60q0 35 13 62q14 30 35 51q20 20 50 34q28 12 60 12q34 0 64 -12q32 -15 52 -34q21 -21 35 -51q13 -27 13 -62z"/>
<glyph glyph-name="copyright" horiz-adv-x="1634" unicode="©" d="M238 729q0 -127 45 -237q43 -109 122 -191q77 -81 184 -128q106 -47 227 -47q122 0 230 47q106 46 185 128q78 80 124 191q45 110 45 237q0 83 -20 163q-22 81 -58 146t-91 123q-50 53 -118 94q-62 38 -140 61q-75 21 -157 21q-121 0 -227 -47q-106 -46 -184 -129 q-79 -83 -122 -194q-45 -111 -45 -238zM72 729q0 102 26 198q28 98 76 178q47 81 116 150q66 66 151 117q82 47 178 75q96 26 197 26t199 -26q96 -28 178 -75q81 -49 151 -117q68 -67 117 -150q47 -82 75 -178q26 -96 26 -198q0 -101 -26 -197q-27 -94 -75 -177 q-51 -85 -117 -151q-71 -69 -151 -116q-82 -49 -178 -75q-96 -27 -199 -27q-102 0 -197 27q-96 26 -178 75q-84 49 -151 116t-116 151q-49 81 -76 177q-26 96 -26 197zM1016 542q12 0 23 -6q12 -7 19 -15l102 -105q-55 -76 -141 -113q-89 -39 -203 -39q-102 0 -182 37 q-82 36 -139 100q-56 62 -88 148q-31 84 -31 183q0 103 36 188t99 148t146 97t181 34q117 0 198 -40q84 -41 134 -100l-82 -109q-4 -4 -20 -18q-13 -11 -32 -11q-20 0 -34 9q-3 2 -14.5 9t-18.5 11q-19 11 -44 20q-27 9 -71 9q-101 0 -152 -66q-52 -67 -52 -181 q0 -58 14 -106q13 -46 37 -77q23 -30 58 -47q32 -16 73 -16q46 0 75 9q27 7 45 18q20 12 31 19q13 8 33 10z"/>
<glyph glyph-name="ordfeminine" horiz-adv-x="734" unicode="ª" d="M329 980q27 0 49 9q19 7 45 31v63q-40 -1 -76 -7q-26 -6 -45 -14q-16 -9 -21 -20q-6 -10 -6 -22q0 -24 12 -31q12 -9 42 -9zM639 842h-104q-29 0 -45 8q-14 7 -29 34l-12 27q-26 -22 -44 -34q-22 -14 -43 -24q-19 -9 -48 -14q-28 -5 -57 -5q-92 0 -142 46q-52 46 -52 130 q0 34 16 67q15 34 55 64q43 31 110 49q73 20 179 23v16q0 47 -19 63t-53 16q-29 0 -49 -6q-21 -6 -34 -13q-15 -7 -32 -13q-16 -6 -41 -6q-24 0 -38 13q-17 15 -26 27l-38 69q59 53 131 77q74 23 155 23q60 0 107 -19q49 -20 82 -53t53 -79q18 -46 18 -99v-387z"/>
<glyph glyph-name="guillemotleft" horiz-adv-x="959" unicode="«" d="M441 525v39l262 402l102 -46q38 -16 46 -48q1 -5 1 -14q0 -25 -15 -52l-120 -215q-17 -31 -36 -47q19 -17 36 -46l120 -216q15 -27 15 -51q0 -9 -1 -14q-8 -32 -46 -48l-102 -46zM81 525v39l262 402l102 -46q38 -16 46 -48q1 -5 1 -14q0 -25 -15 -52l-120 -215 q-17 -31 -36 -47q19 -17 36 -46l120 -216q15 -27 15 -51q0 -9 -1 -14q-8 -32 -46 -48l-102 -46z"/>
<glyph glyph-name="logicalnot" d="M118 783h910v-501h-262v279h-648v222z" unicode="¬"/>
<glyph glyph-name="registered" horiz-adv-x="1634" unicode="®" d="M734 767h64q46 0 76 8q28 8 41 21q13 14 18 36q3 21 3 48q0 26 -3 46q-5 20 -16 33q-11 12 -35 20q-22 7 -64 7h-84v-219zM238 729q0 -127 45 -237q43 -109 122 -191q77 -81 184 -128q106 -47 227 -47q114 0 216 41q100 40 178 114h-216q-55 0 -76 39l-92 231 q-11 18 -23 25q-13 7 -37 7h-32v-302h-268v901h352q100 0 173 -18q74 -18 119 -52q45 -33 68 -84q22 -48 22 -114q0 -44 -10 -80q-11 -40 -30 -71q-21 -33 -53 -59q-35 -27 -78 -43q30 -16 49 -39t36 -56l124 -257q74 79 119 188q43 105 43 232q0 83 -20 163q-22 81 -58 146 t-91 123q-50 53 -118 94q-62 38 -140 61q-75 21 -157 21q-121 0 -227 -47q-106 -46 -184 -129q-79 -83 -122 -194q-45 -111 -45 -238zM72 729q0 103 27 198q26 96 75 178q47 81 116 150q66 66 151 117q82 47 178 75q96 26 197 26t199 -26q96 -28 178 -75q81 -49 151 -117 q68 -67 117 -150q47 -82 75 -178q26 -96 26 -198q0 -101 -26 -197q-27 -94 -75 -177q-51 -85 -117 -151q-71 -69 -151 -116q-82 -49 -178 -75q-96 -27 -199 -27q-102 0 -197 27q-96 26 -178 75q-84 49 -151 116t-116 151q-50 83 -75 177q-27 94 -27 197z"/>
<glyph glyph-name="macron" horiz-adv-x="800" unicode="¯" d="M90 1391h620v-190h-620v190z"/>
<glyph glyph-name="degree" horiz-adv-x="832" unicode="°" d="M265 1117q0 -31 11 -61q10 -28 31 -50q19 -22 48 -34q27 -12 60 -12t61 12q29 13 47 34q21 22 31 50q11 30 11 61q0 33 -11 64q-10 26 -31 51q-18 20 -47 34q-29 12 -61 12q-33 0 -60 -12q-29 -14 -48 -34q-21 -25 -31 -51q-11 -31 -11 -64zM51 1119q0 76 28 139 q30 67 77 113q49 48 116 76q65 28 143 28t144 -28q68 -29 117 -76q47 -46 77 -113q28 -63 28 -139q0 -73 -28 -136q-30 -67 -77 -113q-49 -47 -117 -76q-69 -29 -144 -29q-76 0 -143 29q-67 28 -116 76q-47 46 -77 113q-28 63 -28 136z"/>
<glyph glyph-name="plusminus" d="M85 302h990v-222h-990v222zM705 1272v-336h370v-223h-370v-319h-252v319h-368v223h368v336h252z" unicode="±"/>
<glyph glyph-name="twosuperior" horiz-adv-x="668" unicode="²" d="M341 1658q63 0 113 -18q49 -18 81 -49q32 -32 48 -71t16 -86q0 -40 -12 -75q-12 -32 -33 -65q-21 -32 -48 -60q-9 -9 -27 -29t-28 -30l-101 -103q28 9 65 16q31 6 58 6h68q35 0 55 -18q19 -19 19 -50v-126h-570v69q0 19 8 43q7 21 28 42l198 194q20 20 38 44q15 21 30 47 q13 21 21 46q7 21 7 41q0 24 -10 43q-11 18 -36 18q-22 0 -33 -10q-14 -11 -25 -32q-6 -11 -17 -22q-9 -9 -20 -14t-27 -7q-16 -1 -38 3l-124 19q9 63 34 105q27 46 64 73q37 28 89 42q51 14 109 14z"/>
<glyph glyph-name="threesuperior" horiz-adv-x="668" unicode="³" d="M343 1658q61 0 110 -17q49 -19 79 -46q29 -26 47 -64q16 -33 16 -70q0 -61 -23 -105q-25 -45 -79 -70q58 -20 86 -54t28 -92q0 -66 -24 -113q-26 -48 -64 -77q-40 -31 -88 -44q-51 -14 -98 -14q-51 0 -95 9q-43 7 -80 32q-35 22 -64 63t-51 103l96 38q25 9 48 9 q14 0 21 -2q31 -7 43 -30q13 -26 33 -36q19 -10 37 -10q31 0 47 18q17 17 17 46q0 23 -5 40q-6 15 -20 23q-16 8 -39 11q-34 2 -62 2v140q37 0 65 5q24 4 38 14q12 8 17 23q4 12 4 32q0 27 -10 44q-11 17 -42 17q-24 0 -36 -9q-13 -8 -22 -27q-4 -9 -16 -25q-9 -11 -19 -15 q-12 -5 -26 -5q-15 -1 -37 3l-114 19q9 63 34 105q27 47 62 73q38 29 85 42q48 14 101 14z"/>
<glyph glyph-name="acute" horiz-adv-x="800" unicode="´" d="M796 1473l-260 -263q-23 -23 -44 -32q-20 -10 -56 -10h-186l136 245q16 27 40 45q22 15 70 15h300z"/>
<glyph glyph-name="paragraph" horiz-adv-x="1540" unicode="¶" d="M1468 1457v-251h-210v-1422h-270v1422h-196v-1422h-270v822q-105 0 -189 34q-88 36 -146 92q-60 56 -94 134q-33 76 -33 162q0 94 33 173t94 136q61 58 146 89q84 31 189 31h946z"/>
<glyph glyph-name="periodcentered" horiz-adv-x="576" unicode="·" d="M63 596q0 44 18 85q16 40 48 70q31 30 71 46q42 17 87 17q46 0 89 -17q38 -16 72 -46q30 -30 48 -70q17 -42 17 -85q0 -44 -17 -84q-18 -40 -48 -69q-32 -31 -72 -47q-43 -17 -89 -17q-45 0 -87 17q-40 16 -71 47q-31 29 -48 69q-18 39 -18 84z"/>
<glyph glyph-name="cedilla" horiz-adv-x="800" unicode="¸" d="M279 -220q17 0 29 -4q14 -3 35 -3q27 0 37 9q11 9 11 20q0 22 -30 32q-32 11 -104 21l65 189h172l-26 -93q47 -12 80 -29q29 -15 50 -36q20 -20 27 -42q8 -24 8 -48q0 -35 -19 -63t-55 -48q-37 -21 -84 -31t-110 -10q-44 0 -75 4q-37 5 -73 12l28 93q6 27 34 27z"/>
<glyph glyph-name="onesuperior" horiz-adv-x="668" unicode="¹" d="M135 1036h130v298l6 54l-50 -37q-17 -12 -30 -13q-15 -3 -28 0t-23 10q-11 6 -15 13l-68 90l242 199h186v-614h102v-136h-452v136z"/>
<glyph glyph-name="ordmasculine" horiz-adv-x="798" unicode="º" d="M401 1004q50 0 76 35q24 35 24 115t-24 115q-25 34 -76 34q-56 0 -80 -34q-24 -35 -24 -115t24 -115t80 -35zM401 1477q76 0 138 -22q63 -23 108 -63q45 -42 71 -101q25 -59 25 -135q0 -77 -25 -136q-25 -60 -71 -103q-44 -41 -108 -64t-138 -23q-75 0 -139 23 q-64 22 -110 64q-45 41 -71 103q-26 61 -26 136q0 74 26 135q27 61 71 101q47 41 110 63q62 22 139 22z"/>
<glyph glyph-name="guillemotright" horiz-adv-x="959" unicode="»" d="M616 123l-102 46q-39 17 -45 48q-2 10 -2 16q0 23 15 49l120 216q15 28 36 46q-9 8 -19 21t-17 26l-120 215q-15 26 -15 50q0 6 2 16q6 32 45 48l102 46l262 -402v-39zM256 123l-102 46q-39 17 -45 48q-2 10 -2 16q0 23 15 49l120 216q15 28 36 46q-9 8 -19 21t-17 26 l-120 215q-15 26 -15 50q0 6 2 16q6 32 45 48l102 46l262 -402v-39z"/>
<glyph glyph-name="onequarter" horiz-adv-x="1750" unicode="¼" d="M1319 320v164q0 86 6 184q-9 -26 -35.5 -79.5t-41.5 -77.5l-127 -191h198zM1682 152h-125v-151h-238v151h-383v154l385 577h236v-563h125v-168zM1370 1462l-811 -1462h-239l811 1462h239zM538 586h-238v446l3 112l5 95q-27 -36 -75 -78l-78 -61l-109 127l301 235h191 v-876z"/>
<glyph glyph-name="onehalf" horiz-adv-x="1800" unicode="½" d="M1716 1h-647v168l224 219q104 103 131 145q28 43 28 94q0 38 -23.5 58t-64.5 20q-82 0 -180 -88l-123 152q147 129 336 129q137 0 216 -66.5t79 -183.5q0 -85 -47.5 -160.5t-175.5 -191.5l-105 -95h352v-200zM1370 1462l-811 -1462h-239l811 1462h239zM538 586h-238v446 l3 112l5 95q-27 -36 -75 -78l-78 -61l-109 127l301 235h191v-876z"/>
<glyph glyph-name="threequarters" horiz-adv-x="1750" unicode="¾" d="M1349 320v164q0 86 6 184q-9 -26 -35.5 -79.5t-41.5 -77.5l-127 -191h198zM1712 152h-125v-151h-238v151h-383v154l385 577h236v-563h125v-168zM1441 1462l-811 -1462h-239l811 1462h239zM697 1249q0 -142 -170 -198v-13q94 -20 146 -75t52 -134q0 -124 -90 -192 t-272 -68q-143 0 -273 70v190q149 -90 271 -90q143 0 143 107q0 52 -43.5 79t-122.5 27h-112v160h92q84 0 124 26t40 83q0 40 -26 64t-75 24q-45 0 -86 -18t-102 -60l-101 141q144 109 316 109q127 0 208 -64t81 -168z"/>
<glyph glyph-name="questiondown" horiz-adv-x="938" unicode="¿" d="M343 883q0 34 14 67q14 32 37 54q24 24 55 37q30 13 70 13q39 0 69 -13t56 -37q25 -23 38 -54q13 -30 13 -67t-13 -67q-14 -32 -38 -55q-24 -22 -56 -36q-30 -13 -69 -13q-40 0 -70 13q-33 14 -55 36q-22 21 -37 55q-14 33 -14 67zM801 -70l82 -126q-35 -30 -81 -58 q-44 -27 -93 -48q-52 -20 -107 -32q-61 -11 -125 -11q-94 0 -169 24q-76 24 -129 68q-52 45 -82 109q-28 63 -28 142t21 131q21 51 53 90q29 35 71 62q14 10 40 26.5t33 20.5q35 22 60 45q25 22 32 53l28 139h212l22 -160q2 -20 2 -29q0 -35 -13 -60q-18 -36 -49 -61 t-71 -45q-37 -20 -73 -45q-34 -24 -57 -56q-23 -34 -23 -82q0 -60 40 -96q40 -35 108 -35q50 0 88 11q37 11 62 24q9 5 23.5 13.5t20.5 11.5q20 11 38 11q43 0 64 -37z"/>
<glyph glyph-name="Agrave" horiz-adv-x="1422" unicode="À" d="M237 1867h322q29 0 40 -1q18 -2 31 -6q11 -4 25 -14q12 -10 24 -25l209 -270h-226q-22 0 -31 1q-13 0 -24 3t-22 9q-9 4 -23 16zM512 557h398l-134 399q-17 43 -32 90q-23 72 -34 111q-20 -76 -32 -113q-15 -47 -32 -90zM1448 0h-262q-44 0 -71 21q-27 20 -41 52l-86 254 h-554l-86 -254q-10 -27 -39 -50t-71 -23h-264l564 1457h346z"/>
<glyph glyph-name="Aacute" horiz-adv-x="1422" unicode="Á" d="M1169 1867l-323 -285q-13 -11 -23 -17t-23 -9q-9 -2 -25 -4q-9 -1 -31 -1h-226l189 270q10 14 24 26q11 9 25 14q10 3 31 5q11 1 40 1h342zM512 557h398l-134 399q-17 43 -32 90q-23 72 -34 111q-20 -76 -32 -113q-15 -47 -32 -90zM1448 0h-262q-44 0 -71 21 q-27 20 -41 52l-86 254h-554l-86 -254q-10 -27 -39 -50t-71 -23h-264l564 1457h346z"/>
<glyph glyph-name="Acircumflex" horiz-adv-x="1422" unicode="Â" d="M1100 1551h-224q-20 0 -44 7q-26 6 -54 39l-50 78q-3 5 -9 13l-9 12l-18 -25l-50 -78q-28 -33 -54 -39q-24 -7 -44 -7h-214l244 278h282zM512 557h398l-134 399q-17 43 -32 90q-23 72 -34 111q-20 -76 -32 -113q-15 -47 -32 -90zM1448 0h-262q-44 0 -71 21q-27 20 -41 52 l-86 254h-554l-86 -254q-10 -27 -39 -50t-71 -23h-264l564 1457h346z"/>
<glyph glyph-name="Atilde" horiz-adv-x="1422" unicode="Ã" d="M834 1729q22 0 37 9q13 6 25 22q10 15 14 29q4 13 4 29h188q0 -55 -15 -106q-15 -50 -44 -90t-72 -63q-43 -24 -99 -24t-95 15q-41 15 -70 34q-9 5 -19 11t-20.5 12.5t-16.5 9.5q-25 15 -51 15q-22 0 -37 -9q-16 -9 -24 -22q-8 -12 -13 -30q-4 -15 -4 -30h-190 q0 55 15 106q15 50 45 91q28 40 72 64q42 24 98 24t96 -15q39 -15 70 -33q27 -17 55 -34q25 -15 51 -15zM512 557h398l-134 399q-17 43 -32 90q-23 72 -34 111q-20 -76 -32 -113q-15 -47 -32 -90zM1448 0h-262q-44 0 -71 21q-27 20 -41 52l-86 254h-554l-86 -254 q-10 -27 -39 -50t-71 -23h-264l564 1457h346z"/>
<glyph glyph-name="Adieresis" horiz-adv-x="1422" unicode="Ä" d="M1096 1668q0 -32 -12 -59q-14 -29 -34 -47q-22 -22 -49 -32q-29 -12 -61 -12t-60 12q-28 10 -50 32q-21 19 -33 47q-13 26 -13 59q0 32 13 59q12 28 33 49t50 33q28 12 60 12t61 -12q28 -12 49 -33t34 -49q12 -28 12 -59zM636 1668q0 -32 -12 -59q-15 -29 -35 -47 q-23 -22 -51 -32q-28 -12 -62 -12q-30 0 -57 12q-27 10 -49 32q-21 19 -33 47q-13 26 -13 59q0 32 13 59q12 28 33 49t49 33q27 12 57 12q34 0 62 -12t51 -33q21 -20 35 -49q12 -28 12 -59zM512 557h398l-134 399q-17 43 -32 90q-23 72 -34 111q-20 -76 -32 -113 q-15 -47 -32 -90zM1448 0h-262q-44 0 -71 21q-27 20 -41 52l-86 254h-554l-86 -254q-10 -27 -39 -50t-71 -23h-264l564 1457h346z"/>
<glyph glyph-name="Aring" horiz-adv-x="1422" unicode="Å" d="M633 1714q0 -34 20 -57t60 -23q36 0 57 23t21 57q0 38 -21 60t-57 22q-41 0 -60 -22q-20 -23 -20 -60zM487 1714q0 47 19 84q18 37 49 64t70 41q42 14 84 14q45 0 87 -14q41 -15 73 -41q30 -26 50 -64q18 -38 18 -84q0 -44 -18 -80q-20 -39 -50 -63q-33 -27 -73 -40 q-42 -14 -87 -14q-42 0 -84 14q-38 13 -70 40q-31 25 -49 63q-19 35 -19 80zM512 557h398l-134 399q-17 43 -32 90q-23 72 -34 111q-20 -76 -32 -113q-15 -47 -32 -90zM1448 0h-262q-44 0 -71 21q-27 20 -41 52l-86 254h-554l-86 -254q-10 -27 -39 -50t-71 -23h-264 l564 1457h346z"/>
<glyph glyph-name="AE" horiz-adv-x="1870" unicode="Æ" d="M561 557h354l-78 652q-14 -42 -40 -110q-12 -32 -40 -94zM683 1457h1120v-260h-645l41 -340h464v-250h-434l42 -347h532v-260h-820l-40 327h-483l-111 -254q-17 -33 -48 -52q-33 -21 -78 -21h-256z"/>
<glyph glyph-name="Ccedilla" horiz-adv-x="1311" unicode="Ç" d="M653 -220q17 0 29 -4q14 -3 35 -3q27 0 37 9q11 9 11 20q0 22 -30 32q-32 11 -104 21l46 134q-144 15 -259 77q-112 60 -194 160q-80 98 -122 226t-42 277q0 162 53 300q52 135 149 235q95 98 230 154q132 55 295 55q79 0 155 -14q75 -16 135 -40q62 -25 116 -62 q55 -38 94 -78l-114 -153q-12 -15 -26 -25q-15 -12 -42 -12q-16 0 -34 8q-13 6 -34 20q-1 1 -39 25q-20 12 -51 25q-36 13 -69 19q-43 8 -93 8q-85 0 -153 -31q-70 -31 -120 -90q-51 -60 -78 -146q-28 -85 -28 -198t31 -199q30 -87 83 -146q52 -60 122 -91q69 -31 150 -31 q42 0 84 5q38 5 71 15q36 11 62 28q28 16 59 44q8 7 26 17q14 6 29 6q13 0 24 -4t23 -16l134 -141q-78 -101 -190 -159q-111 -58 -262 -70l-10 -36q47 -12 80 -29q29 -15 50 -36q20 -20 27 -42q8 -24 8 -48q0 -35 -19 -63t-55 -48q-37 -21 -84 -31t-110 -10q-44 0 -75 4 q-37 5 -73 12l28 93q6 27 34 27z"/>
<glyph glyph-name="Egrave" horiz-adv-x="1146" unicode="È" d="M154 1867h322q29 0 40 -1q18 -2 31 -6q11 -4 25 -14q12 -10 24 -25l209 -270h-226q-22 0 -31 1q-14 0 -24 3q-11 3 -22 9q-9 4 -23 16zM1079 1457v-260h-598v-340h458v-250h-458v-347h598v-260h-938v1457h938z"/>
<glyph glyph-name="Eacute" horiz-adv-x="1146" unicode="É" d="M1086 1867l-323 -285q-13 -11 -23 -17t-23 -9q-9 -2 -25 -4q-9 -1 -31 -1h-226l189 270q10 14 24 26q11 9 25 14q10 3 31 5q11 1 40 1h342zM1079 1457v-260h-598v-340h458v-250h-458v-347h598v-260h-938v1457h938z"/>
<glyph glyph-name="Ecircumflex" horiz-adv-x="1146" unicode="Ê" d="M1017 1551h-224q-20 0 -44 7q-25 6 -54 39l-50 78q-3 5 -9 13l-9 12l-18 -25l-50 -78q-29 -33 -54 -39q-24 -7 -44 -7h-214l244 278h282zM1079 1457v-260h-598v-340h458v-250h-458v-347h598v-260h-938v1457h938z"/>
<glyph glyph-name="Edieresis" horiz-adv-x="1146" unicode="Ë" d="M1013 1668q0 -32 -12 -59q-14 -29 -34 -47q-22 -22 -49 -32q-28 -12 -61 -12q-31 0 -60 12q-29 10 -50 32q-21 19 -33 47q-13 26 -13 59q0 32 13 59q12 28 33 49t50 33t60 12q33 0 61 -12t49 -33q20 -21 34 -49q12 -28 12 -59zM553 1668q0 -32 -12 -59q-15 -29 -35 -47 q-23 -22 -51 -32q-28 -12 -62 -12q-30 0 -57 12q-27 10 -49 32q-21 19 -33 47q-13 26 -13 59q0 32 13 59q12 28 33 49t49 33q27 12 57 12q33 0 62 -12t51 -33q21 -20 35 -49q12 -28 12 -59zM1079 1457v-260h-598v-340h458v-250h-458v-347h598v-260h-938v1457h938z"/>
<glyph glyph-name="Igrave" horiz-adv-x="622" unicode="Ì" d="M-158 1867h322q29 0 40 -1q18 -2 31 -6q11 -4 25 -14q12 -10 24 -25l209 -270h-226q-22 0 -31 1q-14 0 -24 3q-11 3 -22 9q-9 4 -23 16zM481 0h-340v1457h340v-1457z"/>
<glyph glyph-name="Iacute" horiz-adv-x="622" unicode="Í" d="M774 1867l-323 -285q-13 -11 -23 -17t-23 -9q-9 -2 -25 -4q-9 -1 -31 -1h-226l189 270q10 14 24 26q11 9 25 14q10 3 31 5q11 1 40 1h342zM481 0h-340v1457h340v-1457z"/>
<glyph glyph-name="Icircumflex" horiz-adv-x="622" unicode="Î" d="M705 1551h-224q-20 0 -44 7q-25 6 -54 39l-50 78q-3 5 -9 13l-9 12l-18 -25l-50 -78q-29 -33 -54 -39q-24 -7 -44 -7h-214l244 278h282zM481 0h-340v1457h340v-1457z"/>
<glyph glyph-name="Idieresis" horiz-adv-x="622" unicode="Ï" d="M701 1668q0 -32 -12 -59q-14 -29 -34 -47q-22 -22 -49 -32q-28 -12 -61 -12q-31 0 -60 12q-28 10 -50 32q-21 19 -33 47q-13 26 -13 59q0 32 13 59q12 28 33 49t50 33t60 12q33 0 61 -12t49 -33q20 -21 34 -49q12 -28 12 -59zM241 1668q0 -32 -12 -59q-15 -29 -35 -47 q-23 -22 -51 -32q-28 -12 -62 -12q-30 0 -57 12q-27 10 -49 32q-20 18 -34 47q-12 27 -12 59q0 30 12 59q14 28 34 49q21 21 49 33q27 12 57 12q33 0 62 -12t51 -33q21 -20 35 -49q12 -29 12 -59zM481 0h-340v1457h340v-1457z"/>
<glyph glyph-name="Eth" horiz-adv-x="1543" unicode="Ð" d="M1138 729q0 110 -28 195q-29 88 -80 148q-52 60 -129 93q-78 32 -173 32h-226v-374h244v-184h-244v-379h226q96 0 173 33q77 31 129 93q51 58 80 147q28 85 28 196zM-4 823h166v634h566q172 0 310 -55q140 -56 238 -152q99 -97 154 -230q54 -134 54 -291t-54 -291 q-56 -134 -154 -231q-100 -99 -238 -152q-138 -55 -310 -55h-566v639h-166v184z"/>
<glyph glyph-name="Ntilde" horiz-adv-x="1554" unicode="Ñ" d="M319 1457q17 0 37 -2q11 -1 27 -7q14 -7 23 -16q16 -16 25 -27l692 -875q-5 42 -6 82q-2 52 -2 74v771h298v-1463l-192 6q-26 0 -30.5 -0.5t-9 5t-9.5 8.5q-28 13 -53 43l-687 868q4 -50 5 -74q2 -50 2 -69v-781h-298v1457h178zM903 1729q22 0 37 9q13 6 25 22 q10 15 14 29q4 13 4 29h188q0 -55 -15 -106q-15 -50 -44 -90q-28 -40 -72 -63q-44 -24 -99 -24q-56 0 -95 15q-41 15 -70 34q-9 5 -19 11t-20.5 12.5t-16.5 9.5q-26 15 -51 15q-22 0 -37 -9q-16 -9 -24 -22q-8 -12 -13 -30q-4 -15 -4 -30h-190q0 55 15 106q15 50 45 91 q28 40 72 64q42 24 98 24q55 0 96 -15q39 -15 70 -33q27 -17 55 -34q26 -15 51 -15z"/>
<glyph glyph-name="Ograve" horiz-adv-x="1629" unicode="Ò" d="M344 1867h322q29 0 40 -1q18 -2 31 -6q11 -4 25 -14q12 -10 24 -25l209 -270h-226q-22 0 -31 1q-14 0 -24 3q-11 3 -22 9q-9 4 -23 16zM1225 729q0 110 -28 195q-29 88 -80 146q-53 61 -129 92q-78 32 -173 32q-96 0 -174 -32q-76 -31 -129 -92q-52 -60 -81 -146 q-28 -85 -28 -195q0 -111 28 -195q29 -87 81 -147q52 -59 129 -91q78 -32 174 -32q95 0 173 32q77 32 129 91q51 58 80 147q28 84 28 195zM1571 729q0 -157 -54 -294q-55 -136 -154 -236q-100 -102 -238 -158q-139 -57 -310 -57t-310 57q-140 57 -239 158q-100 100 -154 236 q-55 135 -55 294t55 294q54 136 154 236q98 99 239 157q140 57 310 57q171 0 310 -57q140 -59 238 -158q99 -100 154 -236q54 -136 54 -293z"/>
<glyph glyph-name="Oacute" horiz-adv-x="1629" unicode="Ó" d="M1276 1867l-323 -285q-13 -11 -23 -17t-23 -9q-9 -2 -25 -4q-9 -1 -31 -1h-226l189 270q10 14 24 26q11 9 25 14q10 3 31 5q11 1 40 1h342zM1225 729q0 110 -28 195q-29 88 -80 146q-53 61 -129 92q-78 32 -173 32q-96 0 -174 -32q-76 -31 -129 -92q-52 -60 -81 -146 q-28 -85 -28 -195q0 -111 28 -195q29 -87 81 -147q52 -59 129 -91q78 -32 174 -32q95 0 173 32q77 32 129 91q51 58 80 147q28 84 28 195zM1571 729q0 -157 -54 -294q-55 -136 -154 -236q-100 -102 -238 -158q-139 -57 -310 -57t-310 57q-140 57 -239 158q-100 100 -154 236 q-55 135 -55 294t55 294q54 136 154 236q98 99 239 157q140 57 310 57q171 0 310 -57q140 -59 238 -158q99 -100 154 -236q54 -136 54 -293z"/>
<glyph glyph-name="Ocircumflex" horiz-adv-x="1629" unicode="Ô" d="M1207 1551h-224q-20 0 -44 7q-25 6 -54 39l-50 78q-3 5 -9 13l-9 12l-18 -25l-50 -78q-29 -33 -54 -39q-24 -7 -44 -7h-214l244 278h282zM1225 729q0 110 -28 195q-29 88 -80 146q-53 61 -129 92q-78 32 -173 32q-96 0 -174 -32q-76 -31 -129 -92q-52 -60 -81 -146 q-28 -85 -28 -195q0 -111 28 -195q29 -87 81 -147q52 -59 129 -91q78 -32 174 -32q95 0 173 32q77 32 129 91q51 58 80 147q28 84 28 195zM1571 729q0 -157 -54 -294q-55 -136 -154 -236q-100 -102 -238 -158q-139 -57 -310 -57t-310 57q-140 57 -239 158q-100 100 -154 236 q-55 135 -55 294t55 294q54 136 154 236q98 99 239 157q140 57 310 57q171 0 310 -57q140 -59 238 -158q99 -100 154 -236q54 -136 54 -293z"/>
<glyph glyph-name="Otilde" horiz-adv-x="1629" unicode="Õ" d="M941 1729q22 0 37 9q13 6 25 22q10 15 14 29q4 13 4 29h188q0 -55 -15 -106q-15 -50 -44 -90q-28 -40 -72 -63q-44 -24 -99 -24q-56 0 -95 15q-41 15 -70 34q-9 5 -19 11t-20.5 12.5t-16.5 9.5q-26 15 -51 15q-22 0 -37 -9q-16 -9 -24 -22q-8 -12 -13 -30q-4 -15 -4 -30 h-190q0 55 15 106q15 50 45 91q28 40 72 64q42 24 98 24q55 0 96 -15q39 -15 70 -33q27 -17 55 -34q26 -15 51 -15zM1225 729q0 110 -28 195q-29 88 -80 146q-53 61 -129 92q-78 32 -173 32q-96 0 -174 -32q-76 -31 -129 -92q-52 -60 -81 -146q-28 -85 -28 -195 q0 -111 28 -195q29 -87 81 -147q52 -59 129 -91q78 -32 174 -32q95 0 173 32q77 32 129 91q51 58 80 147q28 84 28 195zM1571 729q0 -157 -54 -294q-55 -136 -154 -236q-100 -102 -238 -158q-139 -57 -310 -57t-310 57q-140 57 -239 158q-100 100 -154 236q-55 135 -55 294 t55 294q54 136 154 236q98 99 239 157q140 57 310 57q171 0 310 -57q140 -59 238 -158q99 -100 154 -236q54 -136 54 -293z"/>
<glyph glyph-name="Odieresis" horiz-adv-x="1629" unicode="Ö" d="M1203 1668q0 -32 -12 -59q-14 -29 -34 -47q-22 -22 -49 -32q-28 -12 -61 -12q-31 0 -60 12q-29 10 -50 32q-21 19 -33 47q-13 26 -13 59q0 32 13 59q12 28 33 49t50 33t60 12q33 0 61 -12t49 -33t34 -49q12 -28 12 -59zM743 1668q0 -32 -12 -59q-15 -29 -35 -47 q-23 -22 -51 -32q-28 -12 -62 -12q-30 0 -57 12q-27 10 -49 32q-21 19 -33 47q-13 26 -13 59q0 32 13 59q12 28 33 49t49 33q27 12 57 12q33 0 62 -12t51 -33q21 -20 35 -49q12 -28 12 -59zM1225 729q0 110 -28 195q-29 88 -80 146q-53 61 -129 92q-78 32 -173 32 q-96 0 -174 -32q-76 -31 -129 -92q-52 -60 -81 -146q-28 -85 -28 -195q0 -111 28 -195q29 -87 81 -147q52 -59 129 -91q78 -32 174 -32q95 0 173 32q77 32 129 91q51 58 80 147q28 84 28 195zM1571 729q0 -157 -54 -294q-55 -136 -154 -236q-100 -102 -238 -158 q-139 -57 -310 -57t-310 57q-140 57 -239 158q-100 100 -154 236q-55 135 -55 294t55 294q54 136 154 236q98 99 239 157q140 57 310 57q171 0 310 -57q140 -59 238 -158q99 -100 154 -236q54 -136 54 -293z"/>
<glyph glyph-name="multiply" d="M1052 982l-310 -310l330 -329l-164 -157l-326 326l-328 -328l-164 157l331 331l-311 312l162 157l309 -309l307 307z" unicode="×"/>
<glyph glyph-name="Oslash" horiz-adv-x="1629" unicode="Ø" d="M1225 729q0 83 -16 150q-17 70 -46 124l-512 -711q69 -28 164 -28t173 32q77 32 129 91q51 58 80 147q28 84 28 195zM403 729q0 -193 84 -311l527 731q-40 21 -92 34q-52 11 -107 11q-96 0 -174 -32q-76 -31 -129 -92q-52 -60 -81 -146q-28 -85 -28 -195zM1571 729 q0 -157 -54 -294q-55 -136 -154 -236q-100 -102 -238 -158q-139 -57 -310 -57q-94 0 -178 18q-82 16 -159 50l-57 -79q-37 -48 -86 -67q-48 -19 -98 -19h-132l199 276q-117 101 -182 247q-65 143 -65 319q0 159 55 294q54 136 154 236q98 99 239 157q140 57 310 57 q107 0 198 -22q94 -23 173 -64l41 57q15 20 30 37q13 15 28 25q14 8 34 13q17 4 46 4h172l-184 -255q105 -102 162 -240q56 -139 56 -299z"/>
<glyph glyph-name="Ugrave" horiz-adv-x="1498" unicode="Ù" d="M276 1867h322q29 0 40 -1q18 -2 31 -6q11 -4 25 -14q12 -10 24 -25l209 -270h-226q-22 0 -31 1q-14 0 -24 3q-11 3 -22 9q-9 4 -23 16zM749 267q67 0 122 23q53 23 90 64q38 42 57 103q19 58 19 137v863h338v-863q0 -135 -43 -246t-125 -193q-81 -81 -197 -126t-261 -45 q-147 0 -262 45q-116 45 -197 126t-124 193q-43 111 -43 246v863h338v-862q0 -75 20 -137t56 -103q36 -42 91 -65q54 -23 121 -23z"/>
<glyph glyph-name="Uacute" horiz-adv-x="1498" unicode="Ú" d="M1208 1867l-323 -285q-13 -11 -23 -17t-23 -9q-9 -2 -25 -4q-9 -1 -31 -1h-226l189 270q10 14 24 26q11 9 25 14q10 3 31 5q11 1 40 1h342zM749 267q67 0 122 23q53 23 90 64q38 42 57 103q19 58 19 137v863h338v-863q0 -135 -43 -246t-125 -193q-81 -81 -197 -126 t-261 -45q-147 0 -262 45q-116 45 -197 126t-124 193q-43 111 -43 246v863h338v-862q0 -75 20 -137t56 -103q36 -42 91 -65q54 -23 121 -23z"/>
<glyph glyph-name="Ucircumflex" horiz-adv-x="1498" unicode="Û" d="M1139 1551h-224q-20 0 -44 7q-25 6 -54 39l-50 78q-3 5 -9 13l-9 12l-18 -25l-50 -78q-29 -33 -54 -39q-24 -7 -44 -7h-214l244 278h282zM749 267q67 0 122 23q53 23 90 64q38 42 57 103q19 58 19 137v863h338v-863q0 -135 -43 -246t-125 -193q-81 -81 -197 -126 t-261 -45q-147 0 -262 45q-116 45 -197 126t-124 193q-43 111 -43 246v863h338v-862q0 -75 20 -137t56 -103q36 -42 91 -65q54 -23 121 -23z"/>
<glyph glyph-name="Udieresis" horiz-adv-x="1498" unicode="Ü" d="M1135 1668q0 -32 -12 -59q-14 -29 -34 -47q-22 -22 -49 -32q-28 -12 -61 -12q-31 0 -60 12q-29 10 -50 32q-21 19 -33 47q-13 26 -13 59q0 32 13 59q12 28 33 49t50 33t60 12q33 0 61 -12t49 -33t34 -49q12 -28 12 -59zM675 1668q0 -32 -12 -59q-15 -29 -35 -47 q-23 -22 -51 -32q-28 -12 -62 -12q-30 0 -57 12q-27 10 -49 32q-21 19 -33 47q-13 26 -13 59q0 32 13 59q12 28 33 49t49 33q27 12 57 12q33 0 62 -12t51 -33q21 -20 35 -49q12 -28 12 -59zM749 267q67 0 122 23q53 23 90 64q38 42 57 103q19 58 19 137v863h338v-863 q0 -135 -43 -246t-125 -193q-81 -81 -197 -126t-261 -45q-147 0 -262 45q-116 45 -197 126t-124 193q-43 111 -43 246v863h338v-862q0 -75 20 -137t56 -103q36 -42 91 -65q54 -23 121 -23z"/>
<glyph glyph-name="Yacute" horiz-adv-x="1340" unicode="Ý" d="M1132 1867l-323 -285q-13 -11 -23 -17t-23 -9q-9 -2 -25 -4q-9 -1 -31 -1h-226l189 270q10 14 24 26q11 9 25 14q10 3 31 5q11 1 40 1h342zM839 554v-554h-338v554l-528 903h298q44 0 70 -20q25 -21 42 -53l206 -424q33 -65 47 -93q18 -40 36 -86q13 39 35 87q9 21 46 92 l204 424q8 14 17 26q10 14 24 24q11 9 31 17q17 6 38 6h300z"/>
<glyph glyph-name="Thorn" horiz-adv-x="1263" unicode="Þ" d="M479 507h176q131 0 190 63q58 62 58 176q0 50 -15 91t-45 71q-32 29 -77 45t-111 16h-176v-462zM479 252v-252h-338v1457h338v-235h176q154 0 265 -36q112 -38 182 -101q71 -65 105 -151t34 -188q0 -107 -35 -200q-34 -91 -107 -156t-182 -101q-110 -37 -262 -37h-176z "/>
<glyph glyph-name="germandbls" horiz-adv-x="1246" unicode="ß" d="M662 1485q131 0 220 -37q93 -39 146 -92q54 -54 80 -117q24 -61 24 -113q0 -56 -18 -96t-45 -69q-29 -31 -58 -50q-9 -7 -28.5 -20.5t-29.5 -20.5q-30 -22 -45 -38q-18 -20 -18 -46q0 -28 24 -50q22 -22 58 -47q6 -4 32.5 -22.5t42.5 -29.5q44 -31 76 -67q34 -40 58 -94 q23 -57 23 -131q0 -91 -34 -158q-35 -68 -92 -113q-56 -44 -132 -67q-77 -23 -156 -23q-46 0 -90 10t-89 27q-44 17 -82 41q-37 22 -69 50l72 114q13 21 31 32q19 11 47 11q26 0 49 -12q15 -8 45 -26q27 -16 49 -26q27 -12 65 -12q39 0 68 29q28 28 28 75q0 39 -26 68 q-24 27 -65 52q-29 18 -84 49q-44 23 -84 59t-65 82q-26 47 -26 118q0 58 20 103q20 44 49 75q28 29 64 56t64 49q32 25 50 52q19 26 19 64q0 67 -43 106q-44 38 -139 38q-62 0 -107 -20q-44 -20 -73 -59q-27 -37 -41 -95q-13 -53 -13 -126v-968h-310v978q0 106 38 200 q38 93 109 161q73 68 176 107t235 39z"/>
<glyph glyph-name="agrave" horiz-adv-x="1035" unicode="à" d="M444 189q60 0 105 21q43 20 91 68v172q-96 -5 -153 -16q-61 -12 -95 -30t-48 -41t-14 -78q0 -53 29 -74q28 -22 85 -22zM800 0h-29h-12t-8 -0.5t-5 1.5t-5.5 3.5t-6.5 7.5q-30 30 -38 50l-22 57q-35 -30 -75 -58q-35 -25 -74 -42q-39 -18 -82 -27q-46 -8 -97 -8 q-72 0 -129 19q-57 18 -98 54t-63 90q-22 51 -22 123q0 84 28 141q28 58 97 106q71 48 186 79q117 32 295 36v16q0 92 -37 132t-107 40q-56 0 -90 -12q-36 -12 -62 -27q-28 -15 -54 -27t-62 -12q-32 0 -54 16q-24 17 -36 38l-56 97q97 85 209 124q113 40 245 40 q94 0 170 -30q77 -32 128 -85q51 -54 80 -130q28 -74 28 -164v-648h-142zM143 1473h290q47 0 70 -15q24 -18 40 -45l136 -245h-176q-36 0 -56 10q-21 9 -44 32z"/>
<glyph glyph-name="aacute" horiz-adv-x="1035" unicode="á" d="M444 189q60 0 105 21q43 20 91 68v172q-96 -5 -153 -16q-61 -12 -95 -30t-48 -41t-14 -78q0 -53 29 -74q28 -22 85 -22zM800 0h-29h-12t-8 -0.5t-5 1.5t-5.5 3.5t-6.5 7.5q-30 30 -38 50l-22 57q-35 -30 -75 -58q-35 -25 -74 -42q-39 -18 -82 -27q-46 -8 -97 -8 q-72 0 -129 19q-57 18 -98 54t-63 90q-22 51 -22 123q0 84 28 141q28 58 97 106q71 48 186 79q117 32 295 36v16q0 92 -37 132t-107 40q-56 0 -90 -12q-36 -12 -62 -27q-28 -15 -54 -27t-62 -12q-32 0 -54 16q-24 17 -36 38l-56 97q97 85 209 124q113 40 245 40 q94 0 170 -30q77 -32 128 -85q51 -54 80 -130q28 -74 28 -164v-648h-142zM907 1473l-260 -263q-23 -23 -44 -32q-20 -10 -56 -10h-186l136 245q16 27 40 45q23 15 70 15h300z"/>
<glyph glyph-name="acircumflex" horiz-adv-x="1035" unicode="â" d="M444 189q60 0 105 21q43 20 91 68v172q-96 -5 -153 -16q-61 -12 -95 -30t-48 -41t-14 -78q0 -53 29 -74q28 -22 85 -22zM800 0h-29h-12t-8 -0.5t-5 1.5t-5.5 3.5t-6.5 7.5q-30 30 -38 50l-22 57q-35 -30 -75 -58q-35 -25 -74 -42q-39 -18 -82 -27q-46 -8 -97 -8 q-72 0 -129 19q-57 18 -98 54t-63 90q-22 51 -22 123q0 84 28 141q28 58 97 106q71 48 186 79q117 32 295 36v16q0 92 -37 132t-107 40q-56 0 -90 -12q-36 -12 -62 -27q-28 -15 -54 -27t-62 -12q-32 0 -54 16q-24 17 -36 38l-56 97q97 85 209 124q113 40 245 40 q94 0 170 -30q77 -32 128 -85q51 -54 80 -130q28 -74 28 -164v-648h-142zM891 1168h-206q-19 0 -35 6q-16 5 -34 22l-75 83l-12 13q-5 4 -13 14l-12 -15q-9 -9 -13 -12l-77 -83q-15 -14 -33 -21q-17 -7 -36 -7h-214l234 289h292z"/>
<glyph glyph-name="atilde" horiz-adv-x="1035" unicode="ã" d="M444 189q60 0 105 21q43 20 91 68v172q-96 -5 -153 -16q-61 -12 -95 -30t-48 -41t-14 -78q0 -53 29 -74q28 -22 85 -22zM800 0h-29h-12t-8 -0.5t-5 1.5t-5.5 3.5t-6.5 7.5q-30 30 -38 50l-22 57q-35 -30 -75 -58q-35 -25 -74 -42q-39 -18 -82 -27q-46 -8 -97 -8 q-72 0 -129 19q-57 18 -98 54t-63 90q-22 51 -22 123q0 84 28 141q28 58 97 106q71 48 186 79q117 32 295 36v16q0 92 -37 132t-107 40q-56 0 -90 -12q-36 -12 -62 -27q-28 -15 -54 -27t-62 -12q-32 0 -54 16q-24 17 -36 38l-56 97q97 85 209 124q113 40 245 40 q94 0 170 -30q77 -32 128 -85q51 -54 80 -130q28 -74 28 -164v-648h-142zM615 1387q25 0 39 13q15 12 15 53h188q0 -62 -17 -113q-19 -53 -49 -86q-31 -36 -73 -55q-41 -19 -91 -19q-37 0 -69 12q-27 9 -59 25q-11 5 -50 26q-24 11 -40 11q-25 0 -38 -13q-14 -14 -14 -55 h-190q0 63 18 114q19 51 49 86q33 37 73 56q41 19 90 19q35 0 70 -11q29 -11 59 -26q6 -3 16.5 -8.5t18.5 -9.5t15 -7q22 -12 39 -12z"/>
<glyph glyph-name="adieresis" horiz-adv-x="1035" unicode="ä" d="M444 189q60 0 105 21q43 20 91 68v172q-96 -5 -153 -16q-61 -12 -95 -30t-48 -41t-14 -78q0 -53 29 -74q28 -22 85 -22zM800 0h-29h-12t-8 -0.5t-5 1.5t-5.5 3.5t-6.5 7.5q-30 30 -38 50l-22 57q-35 -30 -75 -58q-35 -25 -74 -42q-39 -18 -82 -27q-46 -8 -97 -8 q-72 0 -129 19q-57 18 -98 54t-63 90q-22 51 -22 123q0 84 28 141q28 58 97 106q71 48 186 79q117 32 295 36v16q0 92 -37 132t-107 40q-56 0 -90 -12q-36 -12 -62 -27q-28 -15 -54 -27t-62 -12q-32 0 -54 16q-24 17 -36 38l-56 97q97 85 209 124q113 40 245 40 q94 0 170 -30q77 -32 128 -85q51 -54 80 -130q28 -74 28 -164v-648h-142zM885 1295q0 -31 -12 -60q-14 -30 -35 -48q-22 -21 -51 -33q-30 -12 -64 -12q-33 0 -62 12t-51 33q-22 19 -34 48q-13 27 -13 60q0 35 13 62q12 29 34 51q21 20 51 34q29 12 62 12q34 0 64 -12 q30 -14 51 -34q21 -21 35 -51q12 -29 12 -62zM459 1295q0 -33 -13 -60q-14 -30 -35 -48q-22 -20 -52 -33q-30 -12 -64 -12q-31 0 -60 12t-50 33q-21 18 -35 48q-13 27 -13 60q0 35 13 62q14 30 35 51q20 20 50 34q29 12 60 12q34 0 64 -12q32 -15 52 -34q21 -21 35 -51 q13 -27 13 -62z"/>
<glyph glyph-name="aring" horiz-adv-x="1035" unicode="å" d="M444 189q60 0 105 21q43 20 91 68v172q-96 -5 -153 -16q-61 -12 -95 -30t-48 -41t-14 -78q0 -53 29 -74q28 -22 85 -22zM800 0h-29h-12t-8 -0.5t-5 1.5t-5.5 3.5t-6.5 7.5q-30 30 -38 50l-22 57q-35 -30 -75 -58q-35 -25 -74 -42q-39 -18 -82 -27q-46 -8 -97 -8 q-72 0 -129 19q-57 18 -98 54t-63 90q-22 51 -22 123q0 84 28 141q28 58 97 106q71 48 186 79q117 32 295 36v16q0 92 -37 132t-107 40q-56 0 -90 -12q-36 -12 -62 -27q-28 -15 -54 -27t-62 -12q-32 0 -54 16q-24 17 -36 38l-56 97q97 85 209 124q113 40 245 40 q94 0 170 -30q77 -32 128 -85q51 -54 80 -130q28 -74 28 -164v-648h-142zM435 1334q0 -34 20 -57t60 -23q36 0 57 23t21 57q0 38 -21 60t-57 22q-41 0 -60 -22q-20 -23 -20 -60zM269 1334q0 49 20 91q19 40 53 69q33 28 77 45q44 15 92 15q49 0 94 -15q46 -17 80 -45 q35 -28 54 -69q20 -42 20 -91q0 -48 -20 -88q-19 -39 -54 -68q-33 -27 -80 -43q-44 -16 -94 -16t-92 16q-45 16 -77 43q-35 30 -53 68q-20 40 -20 88z"/>
<glyph glyph-name="ae" horiz-adv-x="1628" unicode="æ" d="M642 427v16q-93 -5 -153 -18q-58 -13 -95 -34q-34 -19 -48 -44q-14 -26 -14 -51q0 -54 29 -80q29 -27 85 -27q43 0 78 13q37 12 62 40q27 30 41 74q15 45 15 111zM1132 839q-89 0 -135 -55q-47 -55 -61 -161h364q0 34 -8 76q-9 39 -28 69t-52 51q-34 20 -80 20z M1146 1053q90 0 171 -35q78 -34 137 -99q57 -65 90 -156q32 -93 32 -205q0 -34 -3 -57q-3 -22 -10 -35q-7 -14 -21 -18q-15 -5 -34 -5h-570q17 -119 78 -173q60 -54 152 -54q66 0 107 12q38 12 65 26q13 7 44 26q18 12 44 12q42 0 62 -27l84 -103q-48 -56 -102 -90 q-56 -35 -112 -54q-57 -19 -113 -27q-53 -7 -109 -7q-54 0 -101 10q-49 10 -96 33q-41 20 -86 58q-41 35 -74 83q-31 -47 -76 -83q-47 -36 -98 -58q-52 -22 -113 -33q-57 -10 -124 -10q-160 0 -247 78t-87 219q0 37 12 76q12 40 39 77q28 37 74 71t113 59q68 26 158 42 q88 16 210 19v23q0 92 -37 136q-37 45 -107 45q-57 0 -90 -13q-36 -14 -62 -30q-28 -16 -54 -30t-62 -14q-32 0 -54 16q-24 17 -36 38l-56 97q97 85 196 124q101 40 224 40q113 0 188 -39t117 -108q58 66 143 105q85 38 194 38z"/>
<glyph glyph-name="ccedilla" horiz-adv-x="975" unicode="ç" d="M416 -220q17 0 29 -4q14 -3 35 -3q26 0 37 9t11 20q0 22 -30 32q-32 11 -104 21l47 137q-82 15 -152 57q-73 44 -124 109q-53 69 -83 159q-31 90 -31 204t34 210q33 97 99 169t162 112q97 41 223 41q123 0 214 -39q93 -40 166 -114l-82 -109q-13 -17 -27 -27 q-13 -10 -37 -10q-22 0 -41 11q-3 2 -42 25q-22 14 -54 24q-33 11 -77 11q-57 0 -98 -21q-42 -21 -69 -60q-26 -38 -40 -95q-13 -55 -13 -128q0 -150 58 -229q57 -80 158 -80q53 0 86 14q29 12 53 30q39 29 41 30q19 14 46 14q37 0 56 -27l90 -111q-37 -43 -79 -74 q-43 -32 -85 -51q-47 -21 -88 -31q-48 -13 -89 -17l-11 -38q47 -12 80 -29q29 -15 50 -36q19 -20 27 -42q8 -24 8 -48q0 -35 -19 -63t-55 -48q-37 -21 -84 -31t-110 -10q-44 0 -75 4q-37 5 -73 12l28 93q6 27 34 27z"/>
<glyph glyph-name="egrave" horiz-adv-x="1078" unicode="è" d="M568 839q-89 0 -139 -50q-44 -45 -66 -172h387q0 63 -9 98q-11 36 -31 63q-23 28 -57 44q-36 17 -85 17zM562 1053q102 0 189 -32q85 -31 147 -93t96 -149t34 -227q0 -34 -3 -57q-3 -20 -11 -35q-8 -14 -21 -18q-15 -5 -35 -5h-598q7 -61 25 -95.5t54 -66.5 q65 -59 165 -59q55 0 93 13q43 15 70 29q11 6 30.5 16t25.5 13q25 13 53 13q36 0 56 -27l90 -111q-47 -54 -103 -89q-55 -35 -114 -54t-117 -27q-62 -8 -112 -8q-110 0 -204 36q-97 35 -167 105q-73 71 -113 174q-42 103 -42 242q0 104 36 197q34 92 102 163q66 70 161 111 q96 41 213 41zM202 1473h290q48 0 70 -15q24 -18 40 -45l136 -245h-176q-36 0 -56 10q-21 9 -44 32z"/>
<glyph glyph-name="eacute" horiz-adv-x="1078" unicode="é" d="M568 839q-89 0 -139 -50q-44 -45 -66 -172h387q0 63 -9 98q-11 36 -31 63q-23 28 -57 44q-36 17 -85 17zM562 1053q102 0 189 -32q85 -31 147 -93t96 -149t34 -227q0 -34 -3 -57q-3 -20 -11 -35q-8 -14 -21 -18q-15 -5 -35 -5h-598q7 -61 25 -95.5t54 -66.5 q65 -59 165 -59q55 0 93 13q43 15 70 29q11 6 30.5 16t25.5 13q25 13 53 13q36 0 56 -27l90 -111q-47 -54 -103 -89q-55 -35 -114 -54t-117 -27q-62 -8 -112 -8q-110 0 -204 36q-97 35 -167 105q-73 71 -113 174q-42 103 -42 242q0 104 36 197q34 92 102 163q66 70 161 111 q96 41 213 41zM966 1473l-260 -263q-23 -23 -44 -32q-20 -10 -56 -10h-186l136 245q16 27 40 45q23 15 70 15h300z"/>
<glyph glyph-name="ecircumflex" horiz-adv-x="1078" unicode="ê" d="M568 839q-89 0 -139 -50q-44 -45 -66 -172h387q0 63 -9 98q-11 36 -31 63q-23 28 -57 44q-36 17 -85 17zM562 1053q102 0 189 -32q85 -31 147 -93t96 -149t34 -227q0 -34 -3 -57q-3 -20 -11 -35q-8 -14 -21 -18q-15 -5 -35 -5h-598q7 -61 25 -95.5t54 -66.5 q65 -59 165 -59q55 0 93 13q43 15 70 29q11 6 30.5 16t25.5 13q25 13 53 13q36 0 56 -27l90 -111q-47 -54 -103 -89q-55 -35 -114 -54t-117 -27q-62 -8 -112 -8q-110 0 -204 36q-97 35 -167 105q-73 71 -113 174q-42 103 -42 242q0 104 36 197q34 92 102 163q66 70 161 111 q96 41 213 41zM950 1168h-206q-19 0 -35 6q-17 5 -34 22l-75 83l-12 13q-5 4 -13 14l-12 -15q-9 -9 -13 -12l-77 -83q-15 -14 -33 -21q-17 -7 -36 -7h-214l234 289h292z"/>
<glyph glyph-name="edieresis" horiz-adv-x="1078" unicode="ë" d="M568 839q-89 0 -139 -50q-44 -45 -66 -172h387q0 63 -9 98q-11 36 -31 63q-23 28 -57 44q-36 17 -85 17zM562 1053q102 0 189 -32q85 -31 147 -93t96 -149t34 -227q0 -34 -3 -57q-3 -20 -11 -35q-8 -14 -21 -18q-15 -5 -35 -5h-598q7 -61 25 -95.5t54 -66.5 q65 -59 165 -59q55 0 93 13q43 15 70 29q11 6 30.5 16t25.5 13q25 13 53 13q36 0 56 -27l90 -111q-47 -54 -103 -89q-55 -35 -114 -54t-117 -27q-62 -8 -112 -8q-110 0 -204 36q-97 35 -167 105q-73 71 -113 174q-42 103 -42 242q0 104 36 197q34 92 102 163q66 70 161 111 q96 41 213 41zM944 1295q0 -31 -12 -60q-14 -30 -35 -48q-23 -21 -51 -33q-30 -12 -64 -12t-62 12t-51 33q-22 19 -34 48q-13 27 -13 60q0 35 13 62q12 29 34 51q21 20 51 34q29 12 62 12q34 0 64 -12q30 -14 51 -34q21 -21 35 -51q12 -29 12 -62zM518 1295q0 -33 -13 -60 q-14 -30 -35 -48q-22 -20 -52 -33q-30 -12 -64 -12q-32 0 -60 12q-29 12 -50 33q-21 18 -35 48q-13 27 -13 60q0 35 13 62q14 30 35 51q20 20 50 34q28 12 60 12q34 0 64 -12q32 -15 52 -34q21 -21 35 -51q13 -27 13 -62z"/>
<glyph glyph-name="igrave" horiz-adv-x="534" unicode="ì" d="M-92 1473h290q48 0 70 -15q24 -18 40 -45l136 -245h-176q-36 0 -56 10q-21 9 -44 32zM422 1037v-1037h-310v1037h310z"/>
<glyph glyph-name="iacute" horiz-adv-x="535" unicode="í" d="M673 1473l-260 -263q-23 -23 -44 -32q-20 -10 -56 -10h-186l136 245q16 27 40 45q23 15 70 15h300zM423 1037v-1037h-310v1037h310z"/>
<glyph glyph-name="icircumflex" horiz-adv-x="534" unicode="î" d="M656 1168h-206q-19 0 -35 6q-17 5 -34 22l-75 83l-12 13q-5 4 -13 14l-12 -15q-9 -9 -13 -12l-77 -83q-15 -14 -33 -21q-17 -7 -36 -7h-214l234 289h292zM422 1037v-1037h-310v1037h310z"/>
<glyph glyph-name="idieresis" horiz-adv-x="534" unicode="ï" d="M620 1295q0 -31 -12 -60q-14 -30 -35 -48q-23 -21 -51 -33q-30 -12 -64 -12t-62 12t-51 33q-22 19 -34 48q-13 27 -13 60q0 35 13 62q12 29 34 51q21 20 51 34q28 12 62 12t64 -12q30 -14 51 -34q21 -21 35 -51q12 -29 12 -62zM254 1295q0 -33 -13 -60q-14 -30 -35 -48 q-22 -20 -52 -33q-30 -12 -64 -12q-32 0 -60 12t-51 33q-20 19 -34 48q-13 27 -13 60q0 35 13 62q14 30 34 51q21 20 51 34q28 12 60 12q34 0 64 -12q32 -15 52 -34q21 -21 35 -51q13 -27 13 -62zM422 1037v-1037h-310v1037h310z"/>
<glyph glyph-name="eth" horiz-adv-x="1149" unicode="ð" d="M563 212q44 0 86 17t74 56q33 41 52 107q20 69 23 169q-28 62 -82 105q-55 41 -139 41q-55 0 -95 -18q-42 -18 -70 -49q-28 -32 -42 -72q-15 -42 -15 -90q0 -67 16 -115q17 -52 44 -83q29 -34 66 -51q39 -17 82 -17zM407 963l-58 96q-18 28 -10 55q7 24 38 41l46 22 q-7 2 -20 7t-20 7q-19 6 -42 12q-19 6 -36 18q-16 10 -26 28q-9 17 -9 41q0 22 11 53l36 103q99 -15 203 -49q95 -31 182 -81l183 107l62 -98q17 -27 10 -51q-7 -25 -34 -39l-66 -33q109 -103 172 -249q62 -148 62 -342q0 -149 -35 -266q-36 -117 -104 -197 q-70 -82 -169 -122q-101 -42 -228 -42q-110 0 -202 34q-95 34 -161 97q-69 66 -106 156q-39 91 -39 209q0 92 34 173q32 81 95 145q61 62 147 100q84 37 190 37q92 0 161 -28q71 -29 127 -79q-19 82 -63 145q-44 64 -119 114z"/>
<glyph glyph-name="ntilde" horiz-adv-x="1140" unicode="ñ" d="M687 1387q25 0 39 13q15 12 15 53h188q0 -62 -17 -113q-19 -53 -49 -86q-31 -36 -73 -55q-41 -19 -91 -19q-37 0 -69 12q-27 9 -59 25q-11 5 -50 26q-24 11 -40 11q-25 0 -38 -13q-14 -14 -14 -55h-190q0 63 18 114q19 51 49 86q33 37 73 56q41 19 90 19q35 0 70 -11 q29 -11 59 -26q6 -3 16.5 -8.5t18.5 -9.5t15 -7q22 -12 39 -12zM105 0v1037h192q58 0 76 -52l18 -60q25 24 62 52q33 25 69 41q32 15 79 26q42 9 92 9q84 0 151 -29q66 -31 110 -82q46 -53 68 -125q23 -75 23 -158v-653h-310v653q0 75 -35 119q-35 42 -103 42q-52 0 -96 -22 q-48 -24 -86 -59v-739h-310z"/>
<glyph glyph-name="ograve" horiz-adv-x="1162" unicode="ò" d="M215 1473h290q47 0 70 -15q24 -18 40 -45l136 -245h-176q-36 0 -56 10q-21 9 -44 32zM583 214q107 0 158 76q50 76 50 229t-50 229q-51 75 -158 75q-110 0 -161 -75t-51 -229t51 -229q51 -76 161 -76zM583 1053q119 0 215 -37q97 -37 167 -106q69 -69 108 -167 q38 -100 38 -222q0 -123 -38 -223q-39 -100 -108 -169q-71 -71 -167 -108t-215 -37q-120 0 -216 37q-97 37 -168 108q-72 71 -109 169q-39 99 -39 223q0 123 39 222q37 97 109 167q70 68 168 106q96 37 216 37z"/>
<glyph glyph-name="oacute" horiz-adv-x="1162" unicode="ó" d="M979 1473l-260 -263q-23 -23 -44 -32q-20 -10 -56 -10h-186l136 245q16 27 40 45q23 15 70 15h300zM583 214q107 0 158 76q50 76 50 229t-50 229q-51 75 -158 75q-110 0 -161 -75t-51 -229t51 -229q51 -76 161 -76zM583 1053q119 0 215 -37q97 -37 167 -106 q69 -69 108 -167q38 -100 38 -222q0 -123 -38 -223q-39 -100 -108 -169q-71 -71 -167 -108t-215 -37q-120 0 -216 37q-97 37 -168 108q-72 71 -109 169q-39 99 -39 223q0 123 39 222q37 97 109 167q70 68 168 106q96 37 216 37z"/>
<glyph glyph-name="ocircumflex" horiz-adv-x="1162" unicode="ô" d="M963 1168h-206q-19 0 -35 6q-16 5 -34 22l-75 83l-12 13q-5 4 -13 14l-12 -15q-9 -9 -13 -12l-77 -83q-15 -14 -33 -21q-17 -7 -36 -7h-214l234 289h292zM583 214q107 0 158 76q50 76 50 229t-50 229q-51 75 -158 75q-110 0 -161 -75t-51 -229t51 -229q51 -76 161 -76z M583 1053q119 0 215 -37q97 -37 167 -106q69 -69 108 -167q38 -100 38 -222q0 -123 -38 -223q-39 -100 -108 -169q-71 -71 -167 -108t-215 -37q-120 0 -216 37q-97 37 -168 108q-72 71 -109 169q-39 99 -39 223q0 123 39 222q37 97 109 167q70 68 168 106q96 37 216 37z"/>
<glyph glyph-name="otilde" horiz-adv-x="1162" unicode="õ" d="M687 1387q25 0 39 13q15 12 15 53h188q0 -62 -17 -113q-19 -53 -49 -86q-31 -36 -73 -55q-41 -19 -91 -19q-37 0 -69 12q-27 9 -59 25q-11 5 -50 26q-24 11 -40 11q-25 0 -38 -13q-14 -14 -14 -55h-190q0 63 18 114q19 51 49 86q33 37 73 56q41 19 90 19q35 0 70 -11 q29 -11 59 -26q6 -3 16.5 -8.5t18.5 -9.5t15 -7q22 -12 39 -12zM583 214q107 0 158 76q50 76 50 229t-50 229q-51 75 -158 75q-110 0 -161 -75t-51 -229t51 -229q51 -76 161 -76zM583 1053q119 0 215 -37q97 -37 167 -106q69 -69 108 -167q38 -100 38 -222q0 -123 -38 -223 q-39 -100 -108 -169q-71 -71 -167 -108t-215 -37q-120 0 -216 37q-97 37 -168 108q-72 71 -109 169q-39 99 -39 223q0 123 39 222q37 97 109 167q70 68 168 106q96 37 216 37z"/>
<glyph glyph-name="odieresis" horiz-adv-x="1162" unicode="ö" d="M957 1295q0 -31 -12 -60q-14 -30 -35 -48q-22 -21 -51 -33q-30 -12 -64 -12q-33 0 -62 12t-51 33q-22 19 -34 48q-13 27 -13 60q0 35 13 62q12 29 34 51q21 20 51 34q29 12 62 12q34 0 64 -12q30 -14 51 -34q21 -21 35 -51q12 -29 12 -62zM531 1295q0 -33 -13 -60 q-14 -30 -35 -48q-22 -20 -52 -33q-30 -12 -64 -12q-31 0 -60 12t-50 33q-21 18 -35 48q-13 27 -13 60q0 35 13 62q14 30 35 51q20 20 50 34q29 12 60 12q34 0 64 -12q32 -15 52 -34q21 -21 35 -51q13 -27 13 -62zM583 214q107 0 158 76q50 76 50 229t-50 229 q-51 75 -158 75q-110 0 -161 -75t-51 -229t51 -229q51 -76 161 -76zM583 1053q119 0 215 -37q97 -37 167 -106q69 -69 108 -167q38 -100 38 -222q0 -123 -38 -223q-39 -100 -108 -169q-71 -71 -167 -108t-215 -37q-120 0 -216 37q-97 37 -168 108q-72 71 -109 169 q-39 99 -39 223q0 123 39 222q37 97 109 167q70 68 168 106q96 37 216 37z"/>
<glyph glyph-name="divide" d="M403 316q0 34 14 67q14 32 37 54q24 24 55 37q30 13 70 13q39 0 69 -13t56 -37q25 -23 38 -54q13 -30 13 -67t-13 -67q-14 -32 -38 -55q-24 -22 -56 -36q-30 -13 -69 -13q-40 0 -70 13q-33 14 -55 36q-22 21 -37 55q-14 33 -14 67zM403 1028q0 34 14 67q14 32 37 54 q24 23 55 37q30 13 70 13q39 0 69 -13t56 -37q25 -23 38 -54q13 -30 13 -67t-13 -67q-14 -32 -38 -55q-24 -22 -56 -36q-30 -13 -69 -13q-40 0 -70 13q-33 14 -55 36q-22 21 -37 55q-14 33 -14 67zM85 783h990v-222h-990v222z" unicode="÷"/>
<glyph glyph-name="oslash" horiz-adv-x="1162" unicode="ø" d="M351 519q0 -82 13 -135l316 430q-39 19 -97 19q-109 0 -171 -80q-61 -79 -61 -234zM583 205q106 0 168 80q60 79 60 234q0 76 -14 137l-318 -431q45 -20 104 -20zM1157 1146l-182 -247q65 -70 101 -164q35 -97 35 -214q0 -123 -38 -223q-39 -100 -108 -169 q-71 -71 -167 -108t-215 -37q-137 0 -245 49l-17 -24q-16 -25 -38 -42q-20 -15 -46 -26t-50 -15q-23 -4 -50 -4h-112l161 219q-66 71 -100 165q-35 97 -35 215q0 123 39 222q37 97 109 167q70 68 168 106q96 37 216 37q130 0 238 -47l46 62q12 18 29 37q14 16 28 24 q13 8 35 13q17 4 46 4h152z"/>
<glyph glyph-name="ugrave" horiz-adv-x="1140" unicode="ù" d="M202 1473h290q48 0 70 -15q24 -18 40 -45l136 -245h-176q-36 0 -56 10q-21 9 -44 32zM405 1037v-658q0 -76 35 -119q34 -42 103 -42q51 0 96 21q43 21 86 59v739h310v-1037h-192q-58 0 -76 52l-19 60q-33 -31 -62 -52q-29 -22 -68 -40q-38 -17 -79 -27q-42 -9 -92 -9 q-85 0 -150 30q-65 28 -111 82q-46 53 -68 125q-23 74 -23 158v658h310z"/>
<glyph glyph-name="uacute" horiz-adv-x="1140" unicode="ú" d="M966 1473l-260 -263q-23 -23 -44 -32q-20 -10 -56 -10h-186l136 245q16 27 40 45q23 15 70 15h300zM405 1037v-658q0 -76 35 -119q34 -42 103 -42q51 0 96 21q43 21 86 59v739h310v-1037h-192q-58 0 -76 52l-19 60q-33 -31 -62 -52q-29 -22 -68 -40q-38 -17 -79 -27 q-42 -9 -92 -9q-85 0 -150 30q-65 28 -111 82q-46 53 -68 125q-23 74 -23 158v658h310z"/>
<glyph glyph-name="ucircumflex" horiz-adv-x="1140" unicode="û" d="M950 1168h-206q-19 0 -35 6q-17 5 -34 22l-75 83l-12 13q-5 4 -13 14l-12 -15q-9 -9 -13 -12l-77 -83q-15 -14 -33 -21q-17 -7 -36 -7h-214l234 289h292zM405 1037v-658q0 -76 35 -119q34 -42 103 -42q51 0 96 21q43 21 86 59v739h310v-1037h-192q-58 0 -76 52l-19 60 q-33 -31 -62 -52q-29 -22 -68 -40q-38 -17 -79 -27q-42 -9 -92 -9q-85 0 -150 30q-65 28 -111 82q-46 53 -68 125q-23 74 -23 158v658h310z"/>
<glyph glyph-name="udieresis" horiz-adv-x="1140" unicode="ü" d="M944 1295q0 -31 -12 -60q-14 -30 -35 -48q-23 -21 -51 -33q-30 -12 -64 -12t-62 12t-51 33q-22 19 -34 48q-13 27 -13 60q0 35 13 62q12 29 34 51q21 20 51 34q29 12 62 12q34 0 64 -12q30 -14 51 -34q21 -21 35 -51q12 -29 12 -62zM518 1295q0 -33 -13 -60 q-14 -30 -35 -48q-22 -20 -52 -33q-30 -12 -64 -12q-32 0 -60 12q-29 12 -50 33q-21 18 -35 48q-13 27 -13 60q0 35 13 62q14 30 35 51q20 20 50 34q28 12 60 12q34 0 64 -12q32 -15 52 -34q21 -21 35 -51q13 -27 13 -62zM405 1037v-658q0 -76 35 -119q34 -42 103 -42 q51 0 96 21q43 21 86 59v739h310v-1037h-192q-58 0 -76 52l-19 60q-33 -31 -62 -52q-29 -22 -68 -40q-38 -17 -79 -27q-42 -9 -92 -9q-85 0 -150 30q-65 28 -111 82q-46 53 -68 125q-23 74 -23 158v658h310z"/>
<glyph glyph-name="yacute" horiz-adv-x="1076" unicode="ý" d="M958 1473l-260 -263q-23 -23 -44 -32q-20 -10 -56 -10h-186l136 245q16 27 40 45q22 15 70 15h300zM1090 1037l-554 -1306q-13 -30 -34 -46q-20 -14 -64 -14h-232l200 420l-414 946h274q37 0 56 -16t28 -38l170 -447q23 -60 39 -124q17 50 22 64q4 13 23 62l154 445 q9 22 32 39q22 15 50 15h250z"/>
<glyph glyph-name="thorn" horiz-adv-x="1150" unicode="þ" d="M611 820q-34 0 -61 -6q-30 -8 -51 -19q-25 -13 -44 -30q-27 -27 -40 -43v-440q34 -38 76 -54q39 -16 86 -16q42 0 79 17q35 16 63 55q26 39 41 97q15 60 15 146q0 83 -12 138q-12 57 -33 91q-22 34 -52 49t-67 15zM105 -329v1826h310v-570q59 58 132 92q72 34 172 34 q80 0 150 -35t119 -102q51 -69 79 -166q28 -96 28 -223q0 -115 -32 -216q-33 -99 -91 -172t-140 -114q-84 -41 -181 -41q-43 0 -75 7q-29 6 -62 22q-33 15 -53 32q-21 17 -46 42v-416h-310z"/>
<glyph glyph-name="ydieresis" horiz-adv-x="1076" unicode="ÿ" d="M936 1295q0 -31 -12 -60q-14 -30 -35 -48q-23 -21 -51 -33q-30 -12 -64 -12q-33 0 -62 12q-28 12 -51 33q-22 19 -34 48q-13 27 -13 60q0 35 13 62q12 29 34 51q21 20 51 34q29 12 62 12q34 0 64 -12q30 -14 51 -34q21 -21 35 -51q12 -29 12 -62zM510 1295q0 -33 -13 -60 q-14 -30 -35 -48q-22 -20 -52 -33q-30 -12 -64 -12q-32 0 -60 12q-29 12 -50 33q-21 18 -35 48q-13 27 -13 60q0 35 13 62q14 30 35 51q20 20 50 34q28 12 60 12q34 0 64 -12q32 -15 52 -34q21 -21 35 -51q13 -27 13 -62zM1090 1037l-554 -1306q-13 -30 -34 -46 q-20 -14 -64 -14h-232l200 420l-414 946h274q37 0 56 -16t28 -38l170 -447q23 -60 39 -124q17 50 22 64q4 13 23 62l154 445q9 22 32 39q22 15 50 15h250z"/>
<glyph glyph-name="OE" horiz-adv-x="2147" unicode="Œ" d="M1142 729q0 107 -24 196q-26 89 -72 150q-45 59 -115 95q-68 33 -155 33q-90 0 -157 -33q-71 -36 -116 -95q-48 -61 -72 -150q-25 -87 -25 -196q0 -110 25 -197q24 -87 72 -149q47 -62 116 -95q67 -34 157 -34q88 0 155 34q68 33 115 95t72 149q24 88 24 197zM2080 1457 v-260h-598v-340h458v-250h-458v-347h598v-254h-898v142q-84 -76 -196 -121q-110 -43 -244 -43q-154 0 -279 57q-126 57 -215 158q-90 100 -139 236q-49 135 -49 294t49 294q49 136 139 236q87 99 215 157q125 57 279 57q134 0 244 -43q110 -44 196 -122v149h898z"/>
<glyph glyph-name="oe" horiz-adv-x="1757" unicode="œ" d="M1261 839q-89 0 -135 -55q-47 -55 -61 -161h364q0 34 -8 76q-9 39 -28 69t-52 51q-34 20 -80 20zM565 214q100 0 146 76q46 74 46 229t-46 229q-47 75 -146 75q-101 0 -147 -75q-47 -76 -47 -229t47 -229q46 -76 147 -76zM1275 1053q90 0 171 -35q78 -34 137 -99 q57 -65 90 -156q32 -93 32 -205q0 -34 -3 -57q-3 -22 -10 -35q-8 -14 -21 -18q-15 -5 -34 -5h-570q17 -119 78 -173q60 -54 152 -54q52 0 88 13q42 16 65 29q19 11 53 29q25 13 54 13q35 0 54 -27l92 -111q-46 -53 -102 -89q-56 -35 -112 -54q-62 -21 -113 -28 q-53 -7 -109 -7q-53 0 -100 10q-54 13 -94 33q-47 23 -86 56q-43 35 -73 79q-63 -86 -159 -132q-95 -46 -220 -46q-105 0 -191 38q-92 39 -154 107q-65 69 -102 169q-37 98 -37 223q0 122 38 222q38 99 103 167q66 69 157 106q90 37 198 37q118 0 211 -45q93 -46 155 -130 q60 83 149 128q91 47 213 47z"/>
<glyph glyph-name="Ydieresis" horiz-adv-x="1340" unicode="Ÿ" d="M1059 1668q0 -32 -12 -59q-14 -29 -34 -47q-22 -22 -49 -32q-28 -12 -61 -12q-31 0 -60 12q-29 10 -50 32q-21 19 -33 47q-13 26 -13 59q0 32 13 59q12 28 33 49t50 33t60 12q33 0 61 -12t49 -33t34 -49q12 -28 12 -59zM599 1668q0 -32 -12 -59q-15 -29 -35 -47 q-23 -22 -51 -32q-28 -12 -62 -12q-30 0 -57 12q-27 10 -49 32q-21 19 -33 47q-13 26 -13 59q0 32 13 59q12 28 33 49t49 33q27 12 57 12q33 0 62 -12t51 -33q21 -20 35 -49q12 -28 12 -59zM839 554v-554h-338v554l-528 903h298q44 0 70 -20q25 -21 42 -53l206 -424 q33 -65 47 -93q18 -40 36 -86q13 39 35 87q9 21 46 92l204 424q8 14 17 26q10 14 24 24q11 9 31 17q17 6 38 6h300z"/>
<glyph glyph-name="circumflex" horiz-adv-x="800" unicode="ˆ" d="M780 1168h-206q-18 0 -35 6q-17 5 -34 22l-75 83l-12 13q-5 4 -13 14l-12 -15q-9 -9 -13 -12l-77 -83q-15 -14 -33 -21q-17 -7 -36 -7h-214l234 289h292z"/>
<glyph glyph-name="tilde" horiz-adv-x="800" unicode="˜" d="M504 1387q25 0 39 13q15 12 15 53h188q0 -62 -17 -113q-19 -53 -49 -86q-31 -36 -73 -55q-41 -19 -91 -19q-38 0 -69 12q-27 9 -59 25q-11 5 -50 26q-24 11 -40 11q-25 0 -38 -13q-14 -14 -14 -55h-190q0 63 18 114q19 51 49 86q33 37 73 56q41 19 90 19q35 0 70 -11 q29 -11 59 -26q6 -3 16.5 -8.5t18.5 -9.5t15 -7q23 -12 39 -12z"/>
<glyph glyph-name="uni2000" horiz-adv-x="1000" unicode=" "/>
<glyph glyph-name="uni2001" horiz-adv-x="1500" unicode=" "/>
<glyph glyph-name="enspace" horiz-adv-x="1000" unicode=" "/>
<glyph glyph-name="uni2003" horiz-adv-x="1500" unicode=" "/>
<glyph glyph-name="uni2004" horiz-adv-x="666" unicode=" "/>
<glyph glyph-name="uni2005" horiz-adv-x="500" unicode=" "/>
<glyph glyph-name="uni2006" horiz-adv-x="333" unicode=" "/>
<glyph glyph-name="uni2007" unicode=" "/>
<glyph glyph-name="uni2008" horiz-adv-x="472" unicode=" "/>
<glyph glyph-name="uni2009" horiz-adv-x="250" unicode=" "/>
<glyph glyph-name="uni200A" horiz-adv-x="125" unicode=" "/>
<glyph glyph-name="zerowidthspace" horiz-adv-x="0" unicode="​"/>
<glyph glyph-name="uni200C" horiz-adv-x="0" unicode="‌" d="M-37 1610h74v-2000h-74v2000z"/>
<glyph glyph-name="uni200D" horiz-adv-x="0" unicode="‍" d="M-92 1700l-104 105l94 92l102 -103l103 103l93 -92l-103 -105l103 -104l-93 -92l-66 66v-1960h-74v1959l-65 -65l-94 92z"/>
<glyph glyph-name="uni200E" horiz-adv-x="0" unicode="‎" d="M314 1666h-277v-2056h-74v2127h350l-69 69l94 90l196 -195l-196 -196l-94 91z"/>
<glyph glyph-name="uni200F" horiz-adv-x="0" unicode="‏" d="M-313 1737h350v-2127h-74v2056h-278l71 -70l-94 -91l-196 196l196 195l94 -90z"/>
<glyph glyph-name="figuredash" horiz-adv-x="1080" unicode="‒" d="M153 713h774v-212h-774v212z"/>
<glyph glyph-name="endash" d="M170 713h820v-212h-820v212z" unicode="–"/>
<glyph glyph-name="emdash" horiz-adv-x="1604" unicode="—" d="M111 713h1382v-212h-1382v212z"/>
<glyph glyph-name="quoteleft" horiz-adv-x="454" unicode="‘" d="M332 982l-186 -69q-53 84 -73 177q-10 46 -10 95q0 40 8 85q17 89 67 169q49 80 136 147l98 -58q14 -8 18 -18q5 -12 5 -20q-2 -14 -5 -20q-4 -9 -12 -17q-17 -19 -36 -55q-20 -38 -29 -88q-5 -27 -5 -52q0 -24 5 -57q7 -60 48 -123q15 -24 15 -43q0 -9 -3 -17 q-10 -25 -41 -36z"/>
<glyph glyph-name="quoteright" horiz-adv-x="454" unicode="’" d="M128 1484l186 69q53 -84 73 -177q11 -52 11 -98q0 -38 -8 -81q-16 -88 -68 -170q-51 -82 -136 -147l-98 58q-14 8 -18 18q-4 12 -4 17q0 14 5 24t11 16q10 12 24 33q14 22 24 49q11 30 18 62q4 23 4 53v18q-1 36 -14 78q-12 40 -39 82q-15 22 -15 42q0 6 4 18 q11 26 40 36z"/>
<glyph glyph-name="quotesinglbase" horiz-adv-x="440" unicode="‚" d="M102 265l186 69q53 -84 73 -177q11 -52 11 -98q0 -39 -8 -82q-16 -87 -68 -169q-51 -82 -136 -147l-98 58q-14 8 -18 17q-4 12 -4 17q0 15 5 24q5 10 11 17q10 12 24 33q14 22 24 49q11 29 18 61q4 24 4 54v18q-1 36 -14 78q-12 40 -39 82q-15 23 -15 42q0 6 4 18 q11 26 40 36z"/>
<glyph glyph-name="quotedblleft" horiz-adv-x="812" unicode="“" d="M690 982l-186 -69q-53 84 -73 177q-10 46 -10 95q0 40 8 85q17 89 67 169q49 80 136 147l98 -58q14 -8 18 -18q5 -12 5 -20q-2 -14 -5 -20q-4 -9 -12 -17q-17 -19 -36 -55q-20 -38 -29 -88q-5 -27 -5 -52q0 -24 5 -57q7 -60 48 -123q15 -24 15 -43q0 -9 -3 -17 q-10 -25 -41 -36zM332 982l-186 -69q-53 84 -73 177q-10 46 -10 95q0 40 8 85q17 89 67 169q49 80 136 147l98 -58q14 -8 18 -18q5 -12 5 -20q-2 -14 -5 -20q-4 -9 -12 -17q-17 -19 -36 -55q-20 -38 -29 -88q-5 -27 -5 -52q0 -24 5 -57q7 -60 48 -123q15 -24 15 -43 q0 -9 -3 -17q-10 -25 -41 -36z"/>
<glyph glyph-name="quotedblright" horiz-adv-x="812" unicode="”" d="M486 1484l186 69q53 -84 73 -177q11 -52 11 -98q0 -38 -8 -81q-16 -88 -68 -170q-51 -82 -136 -147l-98 58q-14 8 -18 18q-5 12 -4 21q0 8 5 20q5 10 11 16q10 12 24 33q14 22 24 49q11 30 18 62q4 23 4 53v18q-1 36 -14 78q-12 40 -39 82q-15 22 -15 42q0 6 4 18 q11 26 40 36zM128 1484l186 69q53 -84 73 -177q11 -52 11 -98q0 -38 -8 -81q-16 -88 -68 -170q-51 -82 -136 -147l-98 58q-14 8 -18 18q-4 12 -4 17q0 14 5 24t11 16q10 12 24 33q14 22 24 49q11 30 18 62q4 23 4 53v18q-1 36 -14 78q-12 40 -39 82q-15 22 -15 42q0 6 4 18 q11 26 40 36z"/>
<glyph glyph-name="quotedblbase" horiz-adv-x="798" unicode="„" d="M460 265l186 69q53 -84 73 -177q11 -52 11 -98q0 -39 -8 -82q-16 -87 -68 -169q-51 -82 -136 -147l-98 58q-14 8 -18 17q-5 12 -4 21q0 10 5 20q4 10 11 17q10 12 24 33q14 22 24 49q11 29 18 61q4 24 4 54v18q-1 36 -14 78q-12 40 -39 82q-15 23 -15 42q0 6 4 18 q11 26 40 36zM102 265l186 69q53 -84 73 -177q11 -52 11 -98q0 -39 -8 -82q-16 -87 -68 -169q-51 -82 -136 -147l-98 58q-14 8 -18 17q-4 12 -4 17q0 15 5 24q5 10 11 17q10 12 24 33q14 22 24 49q11 29 18 61q4 24 4 54v18q-1 36 -14 78q-12 40 -39 82q-15 23 -15 42 q0 6 4 18q11 26 40 36z"/>
<glyph glyph-name="bullet" d="M85 592q0 100 39 188t106 154q69 67 157 104q91 38 192 38q102 0 193 -38q90 -37 158 -104q67 -66 106 -154q39 -89 39 -188q0 -98 -39 -187t-106 -153q-69 -66 -158 -103q-91 -38 -193 -38q-101 0 -192 38q-87 36 -157 103q-67 64 -106 153t-39 187z" unicode="•"/>
<glyph glyph-name="ellipsis" horiz-adv-x="1582" unicode="…" d="M615 157q0 34 14 67q14 32 37 54q24 24 55 37q30 13 70 13q39 0 69 -13t56 -37q25 -23 38 -54q13 -30 13 -67t-13 -67q-14 -32 -38 -55q-24 -22 -56 -36q-30 -13 -69 -13q-40 0 -70 13q-33 14 -55 36q-22 21 -37 55q-14 33 -14 67zM1167 157q0 34 14 67q14 32 37 54 q24 24 55 37q30 13 70 13q39 0 69 -13t56 -37q25 -23 38 -54q13 -30 13 -67t-13 -67q-14 -32 -38 -55q-24 -22 -56 -36q-30 -13 -69 -13q-40 0 -70 13q-33 14 -55 36q-22 21 -37 55q-14 33 -14 67zM63 157q0 34 14 67q14 32 37 54q24 24 55 37q30 13 70 13q39 0 69 -13 t56 -37q25 -23 38 -54q13 -30 13 -67t-13 -67q-14 -32 -38 -55q-24 -22 -56 -36q-30 -13 -69 -13q-40 0 -70 13q-33 14 -55 36q-22 21 -37 55q-14 33 -14 67z"/>
<glyph glyph-name="uni202F" horiz-adv-x="500" unicode=" "/>
<glyph glyph-name="guilsinglleft" horiz-adv-x="599" unicode="‹" d="M81 525v39l262 402l102 -46q38 -16 46 -48q1 -5 1 -14q0 -25 -15 -52l-120 -215q-17 -31 -36 -47q19 -17 36 -46l120 -216q15 -27 15 -51q0 -9 -1 -14q-8 -32 -46 -48l-102 -46z"/>
<glyph glyph-name="guilsinglright" horiz-adv-x="599" unicode="›" d="M256 123l-102 46q-39 17 -45 48q-2 10 -2 16q0 23 15 49l120 216q15 28 36 46q-9 8 -19 21t-17 26l-120 215q-15 26 -15 50q0 6 2 16q6 32 45 48l102 46l262 -402v-39z"/>
<glyph glyph-name="uni205F" horiz-adv-x="400" unicode=" "/>
<glyph glyph-name="Euro" d="M29 950h120q26 120 77 215q54 99 125 164q73 67 165 105q90 37 197 37q142 0 246 -56q103 -57 166 -150l-110 -114q-11 -12 -26 -24q-14 -11 -38 -11q-23 0 -40 15q-5 4 -39 34q-23 19 -55 33q-33 15 -90 15q-94 0 -160 -66q-67 -66 -98 -197h460v-92q0 -12 -6 -26 q-5 -11 -17 -23q-11 -11 -26 -17q-15 -7 -35 -7h-397q-1 -9 -1 -28v-28v-35h386v-92q0 -12 -6 -26q-5 -11 -17 -23q-11 -11 -26 -17q-15 -7 -35 -7h-286q25 -143 91 -215q64 -70 159 -70q42 0 72 9q28 7 51 20q21 12 36 27q14 15 27 27q13 13 25 21q13 8 29 8q15 0 24 -4 q10 -5 20 -15l136 -121q-69 -113 -181 -171q-113 -59 -255 -59q-120 0 -213 40q-95 39 -164 110q-70 70 -114 171q-44 99 -64 222h-113v165h98v35v28q0 19 1 28h-99v165z" unicode="€"/>
<glyph glyph-name="trademark" horiz-adv-x="1524" unicode="™" d="M586 1457v-169h-150v-444h-212v444h-148v169h510zM888 1426l94 -217q20 -42 33 -84q10 28 16 42q5 14 19 42l100 217q17 20 30 26q13 5 38 5h184v-613h-186v252l14 113l-126 -269q-23 -44 -72 -44h-30q-49 0 -72 44l-120 264l12 -108v-252h-186v613h184q16 0 23 -1 q12 -2 17 -4q6 -4 14 -10q9 -9 14 -16z"/>
<glyph glyph-name="blacksmallsquare" horiz-adv-x="860" unicode="▪" d="M100 975h660v-646h-660v646z"/>
<glyph glyph-name="emdash.case" d="M118 812h1382v-212h-1382v212z" horiz-adv-x="1618"/>
<glyph glyph-name="endash.case" d="M170 812h820v-212h-820v212z"/>
<glyph glyph-name="figuredash.case" d="M153 713h774v-212h-774v212z" horiz-adv-x="1080"/>
<glyph glyph-name="uni2015.case" d="M112 1103h1382v-213h-1382v213z" horiz-adv-x="1606"/>
<glyph glyph-name="hyphen.case" d="M111 832h540v-250h-540v250z" horiz-adv-x="762"/>
</font>
</defs>
</svg>
